<svg height="511pt" viewBox="0 0 511.99979 511" width="511pt" xmlns="http://www.w3.org/2000/svg"><path d="m327.265625 512.441406h-142.53125c-40.058594 0-80.550781-13.488281-111.089844-37.003906-33.558593-25.84375-52.871093-61.601562-54.382812-100.683594-1.058594-27.429687 8.578125-48.023437 17.082031-66.191406 7.835938-16.738281 14.023438-29.960938 10.742188-45.214844-1.316407-6.113281 1.296874-12.398437 6.558593-15.777344 5.261719-3.378906 12.066407-3.136718 17.074219.601563 23.789062 17.761719 25.066406 43.605469 26.199219 66.410156 1.015625 20.515625 1.894531 38.234375 16.996093 51.140625 3.519532 3.007813 7.164063 5.738282 10.875 8.144532h254.507813c1.496094-.492188 2.980469-.894532 4.4375-1.289063 4.773437-1.296875 9.285156-2.523437 14.351563-6.855469 15.101562-12.90625 15.980468-30.625 16.996093-51.140625 1.132813-22.804687 2.414063-48.648437 26.199219-66.410156 5.007812-3.738281 11.8125-3.980469 17.074219-.601563 5.261719 3.378907 7.875 9.664063 6.558593 15.777344-3.28125 15.253906 2.90625 28.476563 10.742188 45.214844 8.503906 18.167969 18.140625 38.761719 17.082031 66.191406-1.511719 39.082032-20.824219 74.839844-54.386719 100.683594-30.535156 23.515625-71.023437 37.003906-111.085937 37.003906zm0 0" fill="#ffc12e"/><path d="m464.914062 263.347656c1.316407-6.113281-1.296874-12.398437-6.558593-15.777344-5.261719-3.378906-12.0625-3.136718-17.074219.601563-23.785156 17.761719-25.066406 43.605469-26.195312 66.410156-1.019532 20.515625-1.894532 38.234375-17 51.140625-5.066407 4.332032-9.578126 5.558594-14.351563 6.855469-1.457031.394531-2.941406.796875-4.4375 1.289063h-123.296875v138.574218h71.265625c40.058594 0 80.550781-13.488281 111.089844-37.003906 33.558593-25.84375 52.871093-61.601562 54.382812-100.683594 1.058594-27.429687-8.578125-48.023437-17.082031-66.191406-7.835938-16.738281-14.023438-29.960938-10.742188-45.214844zm0 0" fill="#f2860a"/><path d="m251.414062 512.441406c-39.535156 0-76.617187-15.542968-104.417968-43.761718-27.246094-27.664063-43.101563-64.855469-44.644532-104.726563-2.15625-55.867187 32.023438-82.308594 33.480469-83.40625 4.109375-3.101563 9.523438-3.875 14.339844-2.050781 4.816406 1.820312 8.359375 5.984375 9.386719 11.03125.035156.15625 3.589844 17.183594 11.296875 33.671875 2.597656 5.554687 6.683593 13.152343 11.820312 18.945312v-61.355469c0-39.203124 17.53125-67.722656 32.238281-84.75 18.34375-21.234374 42.980469-36.789062 67.59375-42.675781 4.464844-1.066406 9.175782-.027343 12.78125 2.8125 3.601563 2.847657 5.707032 7.183594 5.707032 11.777344v72.925781l41.875-9.054687c4.433594-.957031 9.058594.140625 12.585937 2.988281 3.527344 2.847656 5.582031 7.140625 5.582031 11.671875 0 13.621094 5.867188 22.949219 13.988282 35.863281 11.34375 18.035156 25.460937 40.480469 25.460937 81.023438 0 82.199218-66.875 149.070312-149.074219 149.070312zm0 0" fill="#f7a520"/><path d="m228.644531 275.433594c-1.734375 0-3.472656-.300782-5.132812-.90625l-117.6875-42.875c-20.777344-7.570313-37.363281-22.777344-46.703125-42.824219-7.25-15.5625-9.460938-32.589844-6.542969-49.152344-19.851563-7.761719-35.730469-22.65625-44.789063-42.097656-9.339843-20.046875-10.3125-42.527344-2.742187-63.304687 2.835937-7.78125 11.445313-11.789063 19.226563-8.957032l191.722656 69.851563c20.78125 7.574219 37.460937 22.789062 46.964844 42.847656 9.5625 20.179687 10.660156 42.730469 3.089843 63.507813l-23.308593 64.042968c-1.363282 3.738282-4.152344 6.78125-7.757813 8.464844-2.007813.933594-4.167969 1.402344-6.339844 1.402344zm0 0" fill="#ff5c42"/><path d="m283.355469 275.433594c-2.167969 0-4.332031-.46875-6.335938-1.402344-3.605469-1.679688-6.398437-4.726562-7.757812-8.464844l-23.3125-64.046875c-7.570313-20.773437-6.472657-43.324219 3.089843-63.503906 9.507813-20.058594 26.1875-35.273437 46.96875-42.84375l191.71875-69.855469c7.78125-2.832031 16.390626 1.175782 19.226563 8.957032 7.570313 20.777343 6.597656 43.257812-2.742187 63.304687-9.050782 19.421875-24.90625 34.304687-44.789063 42.097656 2.917969 16.5625.707031 33.59375-6.542969 49.152344-9.339844 20.046875-25.925781 35.253906-46.703125 42.824219l-117.6875 42.875c-1.660156.605468-3.398437.90625-5.132812.90625zm0 0" fill="#d9311c"/><path d="m251.0625 215.566406 18.199219 50c1.359375 3.738282 4.152343 6.785156 7.757812 8.464844 2.003907.933594 4.167969 1.402344 6.335938 1.402344 1.734375 0 3.472656-.300782 5.132812-.90625l117.6875-42.875c20.78125-7.570313 37.367188-22.777344 46.707031-42.824219 7.25-15.5625 9.457032-32.589844 6.539063-49.152344.035156-.015625.070313-.03125.105469-.042969zm0 0" fill="#9a0000"/><path d="m52.578125 139.675781c-2.917969 16.5625-.707031 33.589844 6.542969 49.152344 9.339844 20.042969 25.925781 35.253906 46.703125 42.820313l117.6875 42.878906c1.660156.605468 3.398437.90625 5.132812.90625 2.171875 0 4.332031-.46875 6.335938-1.402344 3.605469-1.683594 6.398437-4.726562 7.761719-8.464844l18.195312-49.992187zm0 0" fill="#d9311c"/><path d="m256 317.210938c-24.8125 0-44.996094-20.183594-44.996094-44.992188v-214.640625c0-26.996094 19.328125-49.8125 45.953125-54.246094l14.933594-2.488281c7.261719-1.210938 14.648437.820312 20.265625 5.582031 5.617188 4.757813 8.839844 11.710938 8.839844 19.074219v246.71875c0 24.808594-20.183594 44.992188-44.996094 44.992188zm0 0" fill="#ff826e"/><path d="m292.15625 6.425781c-5.617188-4.761719-13.007812-6.792969-20.269531-5.582031l-14.929688 2.484375c-.320312.054687-.636719.125-.957031.183594v313.699219c24.8125 0 44.996094-20.183594 44.996094-44.992188v-246.71875c0-7.363281-3.222656-14.316406-8.839844-19.074219zm0 0" fill="#ff5c42"/><path d="m286.070312 56.445312c-6.570312 0-12.597656-4.351562-14.441406-10.988281-2.21875-7.980469 2.453125-16.25 10.4375-18.46875l35.992188-9.996093c7.972656-2.210938 16.246094 2.453124 18.464844 10.433593s-2.453126 16.25-10.4375 18.46875l-35.992188 9.996094c-1.34375.375-2.695312.554687-4.023438.554687zm0 0" fill="#9a0000"/><path d="m339.628906 483.460938c18.964844-15.035157 30.148438-35.195313 32.078125-58.515626 2.894531-34.96875-16.15625-74.015624-46.320312-94.957031-5.597657-3.886719-11.734375-13.894531-16.417969-26.765625-5.066406-13.921875-7.972656-29.871094-7.972656-43.757812v-91.515625c0-4.589844-2.105469-8.929688-5.707032-11.773438-3.605468-2.84375-8.3125-3.878906-12.78125-2.8125-24.609374 5.886719-49.25 21.441407-67.59375 42.675781-14.707031 17.023438-32.238281 45.546876-32.238281 84.746094v61.355469c-5.136719-5.789063-9.222656-13.386719-11.820312-18.945313-7.707031-16.484374-11.261719-33.515624-11.292969-33.667968-1.027344-5.046875-4.574219-9.210938-9.390625-11.035156-4.8125-1.820313-10.226563-1.046876-14.339844 2.054687-1.453125 1.097656-35.636719 27.539063-33.476562 83.40625 1.539062 39.871094 17.394531 77.0625 44.640625 104.722656 27.800781 28.222657 64.882812 43.761719 104.417968 43.761719 21.734376 0 43.628907-5.050781 65.109376-14.988281 8.144531-3.96875 15.871093-8.660157 23.105468-13.988281zm0 0" fill="#ffe645"/><path d="m325.386719 329.988281c-5.597657-3.886719-11.734375-13.894531-16.417969-26.765625-5.066406-13.921875-7.972656-29.871094-7.972656-43.757812v-91.515625c0-4.589844-2.105469-8.929688-5.707032-11.773438-3.605468-2.84375-8.3125-3.878906-12.78125-2.8125-8.933593 2.136719-17.867187 5.5625-26.507812 10.058594v348.933594c20.222656-.65625 40.554688-5.667969 60.523438-14.90625 8.144531-3.96875 15.871093-8.664063 23.105468-13.992188 18.964844-15.03125 30.148438-35.195312 32.078125-58.511719 2.894531-34.96875-16.15625-74.015624-46.320312-94.957031zm0 0" fill="#ffc12e"/></svg>