<svg width="250" height="128" viewBox="0 0 250 128" fill="none" xmlns="http://www.w3.org/2000/svg">
<path d="M202.826 7C205.559 8.57785 206.495 12.0724 204.918 14.8053L195.537 31.0536L190.588 28.1966L202.826 7Z" fill="#4BD89D"/>
<path d="M155.369 100.517C161.212 108.365 171.61 110.34 180.797 106.975L181.241 106.813C187.201 104.63 193.765 104.781 199.618 107.236C207.379 110.491 216.35 109.687 222.149 103.588C230.655 94.6427 241.441 79.1216 241.441 57.9312C241.441 37.3912 232.769 28.5509 225.608 24.7524C219.861 21.7036 213.092 22.7822 206.819 24.5086L203.673 25.3743C195.053 27.7467 185.959 27.7976 177.312 25.5218C168.321 23.1551 158.339 22.9479 151.541 29.2913C145.621 34.8158 139.736 44.0459 139.736 58.9117C139.736 75.8443 148.105 90.7597 155.369 100.517Z" fill="#5F8DF7"/>
<path d="M190.589 79.5775C190.589 79.5778 190.589 105.222 190.589 105.222C190.589 105.222 190.589 105.222 190.589 105.222L203.402 109.522C208.902 111.367 214.977 110.587 219.196 106.606C227.895 98.3984 241.517 81.7447 241.517 57.9312C241.517 40.9254 235.539 31.7481 229.394 26.8067C221.905 20.7836 211.513 22.5985 202.359 25.5274L200.065 26.2614C199.841 26.333 199.61 26.3793 199.376 26.3995L190.589 27.1562V50.6031V68.226C190.589 72.8085 190.589 76.5415 190.589 79.5775Z" fill="#2E4885"/>
<path d="M89.7559 110.899C79.5441 108.071 74.5746 97.5002 75.5191 86.9463C96.9081 81.2151 110.543 77.5617 122.693 74.3062C128.627 84.6904 132.676 98.2812 123.52 105.976C120.796 108.266 117.173 110.282 112.354 111.573C104.414 113.701 96.3949 112.737 89.7559 110.899Z" fill="#5F8DF7"/>
<path d="M163.768 83.4061C169.143 92.5379 180.639 94.6023 190.589 90.9583C190.589 68.8148 190.589 54.6991 190.589 42.1208C179.022 39.0764 164.847 38.6825 159.784 49.5183C158.277 52.7421 157.268 56.7637 157.268 61.7524C157.268 69.973 160.273 77.4692 163.768 83.4061Z" fill="#F5F7FB"/>
<path d="M217.41 83.4061C212.035 92.5379 200.539 94.6023 190.589 90.9583C190.589 68.8148 190.589 54.6991 190.589 42.1208C202.155 39.0764 216.331 38.6825 221.394 49.5183C222.9 52.7421 223.91 56.7637 223.91 61.7524C223.91 69.973 220.904 77.4692 217.41 83.4061Z" fill="#A7C3FB"/>
<path d="M56.3184 83.708C65.4502 89.0828 67.5146 100.579 63.8706 110.529C41.7271 110.529 27.6114 110.529 15.0331 110.529C11.9887 98.9626 11.5948 84.787 22.4306 79.7239C25.6544 78.2175 29.6759 77.2078 34.6646 77.2078C42.8853 77.2078 50.3814 80.2136 56.3184 83.708Z" fill="#5F8DF7"/>
<rect x="10.0996" y="110.446" width="223.529" height="8" fill="#2E4885"/>
</svg>
