<svg width="801" height="299" viewBox="0 0 801 299" fill="none" xmlns="http://www.w3.org/2000/svg">
<rect x="0.262695" y="1" width="800" height="295.976" rx="4" fill="#F5F7FB"/>
<path d="M654.6 1C648.54 18.2437 642.391 58.6698 666.271 82.4252C696.12 112.119 756.514 101.013 747.489 71.1663C738.465 41.3191 682.931 75.855 708.615 112.034C729.163 140.978 768.083 138.899 784.975 134.241" stroke="#D5E0F7" stroke-width="4"/>
<path d="M194.55 293.122C187.838 296.331 171.733 300.549 161.002 291.753C147.588 280.758 150.809 262.11 136.167 255.973C121.399 249.783 106.918 258.645 101.861 262.919" stroke="#D5E0F6" stroke-width="4"/>
<path d="M102.296 262.737C97.2396 268.193 83.8224 278.049 70.6051 273.827C54.0833 268.549 48.0894 253.492 32.2167 253.182C16.206 252.87 6.01143 266.446 2.88574 272.282" stroke="#D5E0F6" stroke-width="4"/>
</svg>
