<svg width="1071" height="421" viewBox="0 0 1071 421" fill="none" xmlns="http://www.w3.org/2000/svg">
<rect y="0.722656" width="1070.24" height="420" fill="#F5F7FB"/>
<mask id="mask0" mask-type="alpha" maskUnits="userSpaceOnUse" x="0" y="0" width="1068" height="421">
<rect y="0.722656" width="1067.51" height="420" fill="#F5F7FB"/>
</mask>
<g mask="url(#mask0)">
<rect x="27.6377" y="276.843" width="3.6223" height="3.6223" rx="1.81115" fill="#D7E1F8"/>
<rect x="50.5789" y="276.843" width="3.6223" height="3.6223" rx="1.81115" fill="#D7E1F8"/>
<rect x="73.5203" y="276.843" width="3.6223" height="3.6223" rx="1.81115" fill="#D7E1F8"/>
<rect x="96.4614" y="276.843" width="3.6223" height="3.6223" rx="1.81115" fill="#D7E1F8"/>
<rect x="119.403" y="276.843" width="3.6223" height="3.6223" rx="1.81115" fill="#D7E1F8"/>
<rect x="142.344" y="276.843" width="3.6223" height="3.6223" rx="1.81115" fill="#D7E1F8"/>
<rect x="165.285" y="276.843" width="3.6223" height="3.6223" rx="1.81115" fill="#D7E1F8"/>
<rect x="188.227" y="276.843" width="3.6223" height="3.6223" rx="1.81115" fill="#D7E1F8"/>
<rect x="211.168" y="276.843" width="3.6223" height="3.6223" rx="1.81115" fill="#D7E1F8"/>
<rect x="234.109" y="276.843" width="3.6223" height="3.6223" rx="1.81115" fill="#D7E1F8"/>
<rect x="257.05" y="276.843" width="3.6223" height="3.6223" rx="1.81115" fill="#D7E1F8"/>
<rect x="279.991" y="276.843" width="3.6223" height="3.6223" rx="1.81115" fill="#D7E1F8"/>
<rect x="302.933" y="276.843" width="3.6223" height="3.6223" rx="1.81115" fill="#D7E1F8"/>
<rect x="325.874" y="276.843" width="3.6223" height="3.6223" rx="1.81115" fill="#D7E1F8"/>
<rect x="348.815" y="276.843" width="3.6223" height="3.6223" rx="1.81115" fill="#D7E1F8"/>
<rect x="371.757" y="276.843" width="3.6223" height="3.6223" rx="1.81115" fill="#D7E1F8"/>
<rect x="394.698" y="276.843" width="3.6223" height="3.6223" rx="1.81115" fill="#D7E1F8"/>
<rect x="417.639" y="276.843" width="3.6223" height="3.6223" rx="1.81115" fill="#D7E1F8"/>
<rect x="440.58" y="276.843" width="3.6223" height="3.6223" rx="1.81115" fill="#D7E1F8"/>
<rect x="27.6377" y="300.119" width="3.6223" height="3.6223" rx="1.81115" fill="#D7E1F8"/>
<rect x="50.5789" y="300.119" width="3.6223" height="3.6223" rx="1.81115" fill="#D7E1F8"/>
<rect x="73.5203" y="300.119" width="3.6223" height="3.6223" rx="1.81115" fill="#D7E1F8"/>
<rect x="96.4614" y="300.119" width="3.6223" height="3.6223" rx="1.81115" fill="#D7E1F8"/>
<rect x="119.403" y="300.119" width="3.6223" height="3.6223" rx="1.81115" fill="#D7E1F8"/>
<rect x="142.344" y="300.119" width="3.6223" height="3.6223" rx="1.81115" fill="#D7E1F8"/>
<rect x="165.285" y="300.119" width="3.6223" height="3.6223" rx="1.81115" fill="#D7E1F8"/>
<rect x="188.227" y="300.119" width="3.6223" height="3.6223" rx="1.81115" fill="#D7E1F8"/>
<rect x="211.168" y="300.119" width="3.6223" height="3.6223" rx="1.81115" fill="#D7E1F8"/>
<rect x="234.109" y="300.119" width="3.6223" height="3.6223" rx="1.81115" fill="#D7E1F8"/>
<rect x="257.05" y="300.119" width="3.6223" height="3.6223" rx="1.81115" fill="#D7E1F8"/>
<rect x="279.991" y="300.119" width="3.6223" height="3.6223" rx="1.81115" fill="#D7E1F8"/>
<rect x="302.933" y="300.119" width="3.6223" height="3.6223" rx="1.81115" fill="#D7E1F8"/>
<rect x="325.874" y="300.119" width="3.6223" height="3.6223" rx="1.81115" fill="#D7E1F8"/>
<rect x="348.815" y="300.119" width="3.6223" height="3.6223" rx="1.81115" fill="#D7E1F8"/>
<rect x="371.757" y="300.119" width="3.6223" height="3.6223" rx="1.81115" fill="#D7E1F8"/>
<rect x="394.698" y="300.119" width="3.6223" height="3.6223" rx="1.81115" fill="#D7E1F8"/>
<rect x="417.639" y="300.119" width="3.6223" height="3.6223" rx="1.81115" fill="#D7E1F8"/>
<rect x="440.58" y="300.119" width="3.6223" height="3.6223" rx="1.81115" fill="#D7E1F8"/>
<rect x="27.6377" y="323.394" width="3.6223" height="3.6223" rx="1.81115" fill="#D7E1F8"/>
<rect x="50.5789" y="323.394" width="3.6223" height="3.6223" rx="1.81115" fill="#D7E1F8"/>
<rect x="73.5203" y="323.394" width="3.6223" height="3.6223" rx="1.81115" fill="#D7E1F8"/>
<rect x="96.4614" y="323.394" width="3.6223" height="3.6223" rx="1.81115" fill="#D7E1F8"/>
<rect x="119.403" y="323.394" width="3.6223" height="3.6223" rx="1.81115" fill="#D7E1F8"/>
<rect x="142.344" y="323.394" width="3.6223" height="3.6223" rx="1.81115" fill="#D7E1F8"/>
<rect x="165.285" y="323.394" width="3.6223" height="3.6223" rx="1.81115" fill="#D7E1F8"/>
<rect x="188.227" y="323.394" width="3.6223" height="3.6223" rx="1.81115" fill="#D7E1F8"/>
<rect x="211.168" y="323.394" width="3.6223" height="3.6223" rx="1.81115" fill="#D7E1F8"/>
<rect x="234.109" y="323.394" width="3.6223" height="3.6223" rx="1.81115" fill="#D7E1F8"/>
<rect x="257.05" y="323.394" width="3.6223" height="3.6223" rx="1.81115" fill="#D7E1F8"/>
<rect x="279.991" y="323.394" width="3.6223" height="3.6223" rx="1.81115" fill="#D7E1F8"/>
<rect x="302.933" y="323.394" width="3.6223" height="3.6223" rx="1.81115" fill="#D7E1F8"/>
<rect x="325.874" y="323.394" width="3.6223" height="3.6223" rx="1.81115" fill="#D7E1F8"/>
<rect x="348.815" y="323.394" width="3.6223" height="3.6223" rx="1.81115" fill="#D7E1F8"/>
<rect x="371.757" y="323.394" width="3.6223" height="3.6223" rx="1.81115" fill="#D7E1F8"/>
<rect x="394.698" y="323.394" width="3.6223" height="3.6223" rx="1.81115" fill="#D7E1F8"/>
<rect x="417.639" y="323.394" width="3.6223" height="3.6223" rx="1.81115" fill="#D7E1F8"/>
<rect x="440.58" y="323.394" width="3.6223" height="3.6223" rx="1.81115" fill="#D7E1F8"/>
<rect x="27.6377" y="346.67" width="3.6223" height="3.6223" rx="1.81115" fill="#D7E1F8"/>
<rect x="50.5789" y="346.67" width="3.6223" height="3.6223" rx="1.81115" fill="#D7E1F8"/>
<rect x="73.5203" y="346.67" width="3.6223" height="3.6223" rx="1.81115" fill="#D7E1F8"/>
<rect x="96.4614" y="346.67" width="3.6223" height="3.6223" rx="1.81115" fill="#D7E1F8"/>
<rect x="119.403" y="346.67" width="3.6223" height="3.6223" rx="1.81115" fill="#D7E1F8"/>
<rect x="142.344" y="346.67" width="3.6223" height="3.6223" rx="1.81115" fill="#D7E1F8"/>
<rect x="165.285" y="346.67" width="3.6223" height="3.6223" rx="1.81115" fill="#D7E1F8"/>
<rect x="188.227" y="346.67" width="3.6223" height="3.6223" rx="1.81115" fill="#D7E1F8"/>
<rect x="211.168" y="346.67" width="3.6223" height="3.6223" rx="1.81115" fill="#D7E1F8"/>
<rect x="234.109" y="346.67" width="3.6223" height="3.6223" rx="1.81115" fill="#D7E1F8"/>
<rect x="257.05" y="346.67" width="3.6223" height="3.6223" rx="1.81115" fill="#D7E1F8"/>
<rect x="279.991" y="346.67" width="3.6223" height="3.6223" rx="1.81115" fill="#D7E1F8"/>
<rect x="302.933" y="346.67" width="3.6223" height="3.6223" rx="1.81115" fill="#D7E1F8"/>
<rect x="325.874" y="346.67" width="3.6223" height="3.6223" rx="1.81115" fill="#D7E1F8"/>
<rect x="348.815" y="346.67" width="3.6223" height="3.6223" rx="1.81115" fill="#D7E1F8"/>
<rect x="371.757" y="346.67" width="3.6223" height="3.6223" rx="1.81115" fill="#D7E1F8"/>
<rect x="394.698" y="346.67" width="3.6223" height="3.6223" rx="1.81115" fill="#D7E1F8"/>
<rect x="417.639" y="346.67" width="3.6223" height="3.6223" rx="1.81115" fill="#D7E1F8"/>
<rect x="440.58" y="346.67" width="3.6223" height="3.6223" rx="1.81115" fill="#D7E1F8"/>
<rect x="27.6377" y="369.946" width="3.6223" height="3.6223" rx="1.81115" fill="#D7E1F8"/>
<rect x="50.5789" y="369.946" width="3.6223" height="3.6223" rx="1.81115" fill="#D7E1F8"/>
<rect x="73.5203" y="369.946" width="3.6223" height="3.6223" rx="1.81115" fill="#D7E1F8"/>
<rect x="96.4614" y="369.946" width="3.6223" height="3.6223" rx="1.81115" fill="#D7E1F8"/>
<rect x="119.403" y="369.946" width="3.6223" height="3.6223" rx="1.81115" fill="#D7E1F8"/>
<rect x="142.344" y="369.946" width="3.6223" height="3.6223" rx="1.81115" fill="#D7E1F8"/>
<rect x="165.285" y="369.946" width="3.6223" height="3.6223" rx="1.81115" fill="#D7E1F8"/>
<rect x="188.227" y="369.946" width="3.6223" height="3.6223" rx="1.81115" fill="#D7E1F8"/>
<rect x="211.168" y="369.946" width="3.6223" height="3.6223" rx="1.81115" fill="#D7E1F8"/>
<rect x="234.109" y="369.946" width="3.6223" height="3.6223" rx="1.81115" fill="#D7E1F8"/>
<rect x="257.05" y="369.946" width="3.6223" height="3.6223" rx="1.81115" fill="#D7E1F8"/>
<rect x="279.991" y="369.946" width="3.6223" height="3.6223" rx="1.81115" fill="#D7E1F8"/>
<rect x="302.933" y="369.946" width="3.6223" height="3.6223" rx="1.81115" fill="#D7E1F8"/>
<rect x="325.874" y="369.946" width="3.6223" height="3.6223" rx="1.81115" fill="#D7E1F8"/>
<rect x="348.815" y="369.946" width="3.6223" height="3.6223" rx="1.81115" fill="#D7E1F8"/>
<rect x="371.757" y="369.946" width="3.6223" height="3.6223" rx="1.81115" fill="#D7E1F8"/>
<rect x="394.698" y="369.946" width="3.6223" height="3.6223" rx="1.81115" fill="#D7E1F8"/>
<rect x="417.639" y="369.946" width="3.6223" height="3.6223" rx="1.81115" fill="#D7E1F8"/>
<rect x="440.58" y="369.946" width="3.6223" height="3.6223" rx="1.81115" fill="#D7E1F8"/>
<rect x="27.6377" y="393.221" width="3.6223" height="3.6223" rx="1.81115" fill="#D7E1F8"/>
<rect x="50.5789" y="393.221" width="3.6223" height="3.6223" rx="1.81115" fill="#D7E1F8"/>
<rect x="73.5203" y="393.221" width="3.6223" height="3.6223" rx="1.81115" fill="#D7E1F8"/>
<rect x="96.4614" y="393.221" width="3.6223" height="3.6223" rx="1.81115" fill="#D7E1F8"/>
<rect x="119.403" y="393.221" width="3.6223" height="3.6223" rx="1.81115" fill="#D7E1F8"/>
<rect x="142.344" y="393.221" width="3.6223" height="3.6223" rx="1.81115" fill="#D7E1F8"/>
<rect x="165.285" y="393.221" width="3.6223" height="3.6223" rx="1.81115" fill="#D7E1F8"/>
<rect x="188.227" y="393.221" width="3.6223" height="3.6223" rx="1.81115" fill="#D7E1F8"/>
<rect x="211.168" y="393.221" width="3.6223" height="3.6223" rx="1.81115" fill="#D7E1F8"/>
<rect x="234.109" y="393.221" width="3.6223" height="3.6223" rx="1.81115" fill="#D7E1F8"/>
<rect x="257.05" y="393.221" width="3.6223" height="3.6223" rx="1.81115" fill="#D7E1F8"/>
<rect x="279.991" y="393.221" width="3.6223" height="3.6223" rx="1.81115" fill="#D7E1F8"/>
<rect x="302.933" y="393.221" width="3.6223" height="3.6223" rx="1.81115" fill="#D7E1F8"/>
<rect x="325.874" y="393.221" width="3.6223" height="3.6223" rx="1.81115" fill="#D7E1F8"/>
<rect x="348.815" y="393.221" width="3.6223" height="3.6223" rx="1.81115" fill="#D7E1F8"/>
<rect x="371.757" y="393.221" width="3.6223" height="3.6223" rx="1.81115" fill="#D7E1F8"/>
<rect x="394.698" y="393.221" width="3.6223" height="3.6223" rx="1.81115" fill="#D7E1F8"/>
<rect x="417.639" y="393.221" width="3.6223" height="3.6223" rx="1.81115" fill="#D7E1F8"/>
<rect x="440.58" y="393.221" width="3.6223" height="3.6223" rx="1.81115" fill="#D7E1F8"/>
<rect x="826.627" y="-3.94684" width="3.6223" height="3.6223" rx="1.81115" transform="rotate(45 826.627 -3.94684)" fill="#D7E1F8"/>
<rect x="842.849" y="12.2751" width="3.6223" height="3.6223" rx="1.81115" transform="rotate(45 842.849 12.2751)" fill="#D7E1F8"/>
<rect x="859.071" y="28.497" width="3.6223" height="3.6223" rx="1.81115" transform="rotate(45 859.071 28.497)" fill="#D7E1F8"/>
<rect x="875.292" y="44.7189" width="3.6223" height="3.6223" rx="1.81115" transform="rotate(45 875.292 44.7189)" fill="#D7E1F8"/>
<rect x="891.514" y="60.9409" width="3.6223" height="3.6223" rx="1.81115" transform="rotate(45 891.514 60.9409)" fill="#D7E1F8"/>
<rect x="907.736" y="77.1627" width="3.6223" height="3.6223" rx="1.81115" transform="rotate(45 907.736 77.1627)" fill="#D7E1F8"/>
<rect x="923.958" y="93.3846" width="3.6223" height="3.6223" rx="1.81115" transform="rotate(45 923.958 93.3846)" fill="#D7E1F8"/>
<rect x="940.18" y="109.607" width="3.6223" height="3.6223" rx="1.81115" transform="rotate(45 940.18 109.607)" fill="#D7E1F8"/>
<rect x="956.402" y="125.828" width="3.6223" height="3.6223" rx="1.81115" transform="rotate(45 956.402 125.828)" fill="#D7E1F8"/>
<rect x="972.624" y="142.05" width="3.6223" height="3.6223" rx="1.81115" transform="rotate(45 972.624 142.05)" fill="#D7E1F8"/>
<rect x="988.846" y="158.272" width="3.6223" height="3.6223" rx="1.81115" transform="rotate(45 988.846 158.272)" fill="#D7E1F8"/>
<rect x="1005.07" y="174.494" width="3.6223" height="3.6223" rx="1.81115" transform="rotate(45 1005.07 174.494)" fill="#D7E1F8"/>
<rect x="793.947" y="-3.71039" width="3.6223" height="3.6223" rx="1.81115" transform="rotate(45 793.947 -3.71039)" fill="#D7E1F8"/>
<rect x="810.168" y="12.5115" width="3.6223" height="3.6223" rx="1.81115" transform="rotate(45 810.168 12.5115)" fill="#D7E1F8"/>
<rect x="826.39" y="28.7334" width="3.6223" height="3.6223" rx="1.81115" transform="rotate(45 826.39 28.7334)" fill="#D7E1F8"/>
<rect x="842.612" y="44.9553" width="3.6223" height="3.6223" rx="1.81115" transform="rotate(45 842.612 44.9553)" fill="#D7E1F8"/>
<rect x="858.834" y="61.1772" width="3.6223" height="3.6223" rx="1.81115" transform="rotate(45 858.834 61.1772)" fill="#D7E1F8"/>
<rect x="875.056" y="77.3992" width="3.6223" height="3.6223" rx="1.81115" transform="rotate(45 875.056 77.3992)" fill="#D7E1F8"/>
<rect x="891.278" y="93.6211" width="3.6223" height="3.6223" rx="1.81115" transform="rotate(45 891.278 93.6211)" fill="#D7E1F8"/>
<rect x="907.5" y="109.843" width="3.6223" height="3.6223" rx="1.81115" transform="rotate(45 907.5 109.843)" fill="#D7E1F8"/>
<rect x="923.722" y="126.065" width="3.6223" height="3.6223" rx="1.81115" transform="rotate(45 923.722 126.065)" fill="#D7E1F8"/>
<rect x="939.944" y="142.287" width="3.6223" height="3.6223" rx="1.81115" transform="rotate(45 939.944 142.287)" fill="#D7E1F8"/>
<rect x="956.166" y="158.509" width="3.6223" height="3.6223" rx="1.81115" transform="rotate(45 956.166 158.509)" fill="#D7E1F8"/>
<rect x="972.387" y="174.731" width="3.6223" height="3.6223" rx="1.81115" transform="rotate(45 972.387 174.731)" fill="#D7E1F8"/>
<rect x="988.609" y="190.953" width="3.6223" height="3.6223" rx="1.81115" transform="rotate(45 988.609 190.953)" fill="#D7E1F8"/>
<rect x="761.266" y="-3.47406" width="3.6223" height="3.6223" rx="1.81115" transform="rotate(45 761.266 -3.47406)" fill="#D7E1F8"/>
<rect x="777.488" y="12.7479" width="3.6223" height="3.6223" rx="1.81115" transform="rotate(45 777.488 12.7479)" fill="#D7E1F8"/>
<rect x="793.71" y="28.9698" width="3.6223" height="3.6223" rx="1.81115" transform="rotate(45 793.71 28.9698)" fill="#D7E1F8"/>
<rect x="809.932" y="45.1917" width="3.6223" height="3.6223" rx="1.81115" transform="rotate(45 809.932 45.1917)" fill="#D7E1F8"/>
<rect x="826.154" y="61.4136" width="3.6223" height="3.6223" rx="1.81115" transform="rotate(45 826.154 61.4136)" fill="#D7E1F8"/>
<rect x="842.376" y="77.6355" width="3.6223" height="3.6223" rx="1.81115" transform="rotate(45 842.376 77.6355)" fill="#D7E1F8"/>
<rect x="858.598" y="93.8574" width="3.6223" height="3.6223" rx="1.81115" transform="rotate(45 858.598 93.8574)" fill="#D7E1F8"/>
<rect x="874.82" y="110.079" width="3.6223" height="3.6223" rx="1.81115" transform="rotate(45 874.82 110.079)" fill="#D7E1F8"/>
<rect x="891.042" y="126.301" width="3.6223" height="3.6223" rx="1.81115" transform="rotate(45 891.042 126.301)" fill="#D7E1F8"/>
<rect x="907.263" y="142.523" width="3.6223" height="3.6223" rx="1.81115" transform="rotate(45 907.263 142.523)" fill="#D7E1F8"/>
<rect x="923.485" y="158.745" width="3.6223" height="3.6223" rx="1.81115" transform="rotate(45 923.485 158.745)" fill="#D7E1F8"/>
<rect x="939.707" y="174.967" width="3.6223" height="3.6223" rx="1.81115" transform="rotate(45 939.707 174.967)" fill="#D7E1F8"/>
<rect x="955.929" y="191.189" width="3.6223" height="3.6223" rx="1.81115" transform="rotate(45 955.929 191.189)" fill="#D7E1F8"/>
<rect x="972.151" y="207.411" width="3.6223" height="3.6223" rx="1.81115" transform="rotate(45 972.151 207.411)" fill="#D7E1F8"/>
<rect x="728.586" y="-3.23773" width="3.6223" height="3.6223" rx="1.81115" transform="rotate(45 728.586 -3.23773)" fill="#D7E1F8"/>
<rect x="744.808" y="12.9842" width="3.6223" height="3.6223" rx="1.81115" transform="rotate(45 744.808 12.9842)" fill="#D7E1F8"/>
<rect x="761.03" y="29.2061" width="3.6223" height="3.6223" rx="1.81115" transform="rotate(45 761.03 29.2061)" fill="#D7E1F8"/>
<rect x="777.252" y="45.428" width="3.6223" height="3.6223" rx="1.81115" transform="rotate(45 777.252 45.428)" fill="#D7E1F8"/>
<rect x="793.474" y="61.6499" width="3.6223" height="3.6223" rx="1.81115" transform="rotate(45 793.474 61.6499)" fill="#D7E1F8"/>
<rect x="809.696" y="77.8718" width="3.6223" height="3.6223" rx="1.81115" transform="rotate(45 809.696 77.8718)" fill="#D7E1F8"/>
<rect x="825.918" y="94.0938" width="3.6223" height="3.6223" rx="1.81115" transform="rotate(45 825.918 94.0938)" fill="#D7E1F8"/>
<rect x="842.14" y="110.316" width="3.6223" height="3.6223" rx="1.81115" transform="rotate(45 842.14 110.316)" fill="#D7E1F8"/>
<rect x="858.362" y="126.538" width="3.6223" height="3.6223" rx="1.81115" transform="rotate(45 858.362 126.538)" fill="#D7E1F8"/>
<rect x="874.583" y="142.76" width="3.6223" height="3.6223" rx="1.81115" transform="rotate(45 874.583 142.76)" fill="#D7E1F8"/>
<rect x="890.805" y="158.981" width="3.6223" height="3.6223" rx="1.81115" transform="rotate(45 890.805 158.981)" fill="#D7E1F8"/>
<rect x="907.027" y="175.203" width="3.6223" height="3.6223" rx="1.81115" transform="rotate(45 907.027 175.203)" fill="#D7E1F8"/>
<rect x="923.249" y="191.425" width="3.6223" height="3.6223" rx="1.81115" transform="rotate(45 923.249 191.425)" fill="#D7E1F8"/>
<rect x="939.471" y="207.647" width="3.6223" height="3.6223" rx="1.81115" transform="rotate(45 939.471 207.647)" fill="#D7E1F8"/>
<rect x="955.693" y="223.869" width="3.6223" height="3.6223" rx="1.81115" transform="rotate(45 955.693 223.869)" fill="#D7E1F8"/>
<rect x="695.906" y="-3.00134" width="3.6223" height="3.6223" rx="1.81115" transform="rotate(45 695.906 -3.00134)" fill="#D7E1F8"/>
<rect x="712.128" y="13.2206" width="3.6223" height="3.6223" rx="1.81115" transform="rotate(45 712.128 13.2206)" fill="#D7E1F8"/>
<rect x="728.35" y="29.4425" width="3.6223" height="3.6223" rx="1.81115" transform="rotate(45 728.35 29.4425)" fill="#D7E1F8"/>
<rect x="744.572" y="45.6644" width="3.6223" height="3.6223" rx="1.81115" transform="rotate(45 744.572 45.6644)" fill="#D7E1F8"/>
<rect x="760.793" y="61.8864" width="3.6223" height="3.6223" rx="1.81115" transform="rotate(45 760.793 61.8864)" fill="#D7E1F8"/>
<rect x="777.015" y="78.1083" width="3.6223" height="3.6223" rx="1.81115" transform="rotate(45 777.015 78.1083)" fill="#D7E1F8"/>
<rect x="793.237" y="94.3302" width="3.6223" height="3.6223" rx="1.81115" transform="rotate(45 793.237 94.3302)" fill="#D7E1F8"/>
<rect x="809.459" y="110.552" width="3.6223" height="3.6223" rx="1.81115" transform="rotate(45 809.459 110.552)" fill="#D7E1F8"/>
<rect x="825.681" y="126.774" width="3.6223" height="3.6223" rx="1.81115" transform="rotate(45 825.681 126.774)" fill="#D7E1F8"/>
<rect x="841.903" y="142.996" width="3.6223" height="3.6223" rx="1.81115" transform="rotate(45 841.903 142.996)" fill="#D7E1F8"/>
<rect x="858.125" y="159.218" width="3.6223" height="3.6223" rx="1.81115" transform="rotate(45 858.125 159.218)" fill="#D7E1F8"/>
<rect x="874.347" y="175.44" width="3.6223" height="3.6223" rx="1.81115" transform="rotate(45 874.347 175.44)" fill="#D7E1F8"/>
<rect x="890.569" y="191.662" width="3.6223" height="3.6223" rx="1.81115" transform="rotate(45 890.569 191.662)" fill="#D7E1F8"/>
<rect x="906.791" y="207.884" width="3.6223" height="3.6223" rx="1.81115" transform="rotate(45 906.791 207.884)" fill="#D7E1F8"/>
<rect x="923.012" y="224.106" width="3.6223" height="3.6223" rx="1.81115" transform="rotate(45 923.012 224.106)" fill="#D7E1F8"/>
<rect x="939.234" y="240.327" width="3.6223" height="3.6223" rx="1.81115" transform="rotate(45 939.234 240.327)" fill="#D7E1F8"/>
<rect x="663.226" y="-2.76495" width="3.6223" height="3.6223" rx="1.81115" transform="rotate(45 663.226 -2.76495)" fill="#D7E1F8"/>
<rect x="679.448" y="13.457" width="3.6223" height="3.6223" rx="1.81115" transform="rotate(45 679.448 13.457)" fill="#D7E1F8"/>
<rect x="695.669" y="29.6789" width="3.6223" height="3.6223" rx="1.81115" transform="rotate(45 695.669 29.6789)" fill="#D7E1F8"/>
<rect x="711.891" y="45.9008" width="3.6223" height="3.6223" rx="1.81115" transform="rotate(45 711.891 45.9008)" fill="#D7E1F8"/>
<rect x="728.113" y="62.1227" width="3.6223" height="3.6223" rx="1.81115" transform="rotate(45 728.113 62.1227)" fill="#D7E1F8"/>
<rect x="744.335" y="78.3446" width="3.6223" height="3.6223" rx="1.81115" transform="rotate(45 744.335 78.3446)" fill="#D7E1F8"/>
<rect x="760.557" y="94.5665" width="3.6223" height="3.6223" rx="1.81115" transform="rotate(45 760.557 94.5665)" fill="#D7E1F8"/>
<rect x="776.779" y="110.788" width="3.6223" height="3.6223" rx="1.81115" transform="rotate(45 776.779 110.788)" fill="#D7E1F8"/>
<rect x="793.001" y="127.01" width="3.6223" height="3.6223" rx="1.81115" transform="rotate(45 793.001 127.01)" fill="#D7E1F8"/>
<rect x="809.223" y="143.232" width="3.6223" height="3.6223" rx="1.81115" transform="rotate(45 809.223 143.232)" fill="#D7E1F8"/>
<rect x="825.445" y="159.454" width="3.6223" height="3.6223" rx="1.81115" transform="rotate(45 825.445 159.454)" fill="#D7E1F8"/>
<rect x="841.667" y="175.676" width="3.6223" height="3.6223" rx="1.81115" transform="rotate(45 841.667 175.676)" fill="#D7E1F8"/>
<rect x="857.889" y="191.898" width="3.6223" height="3.6223" rx="1.81115" transform="rotate(45 857.889 191.898)" fill="#D7E1F8"/>
<rect x="874.11" y="208.12" width="3.6223" height="3.6223" rx="1.81115" transform="rotate(45 874.11 208.12)" fill="#D7E1F8"/>
<rect x="890.332" y="224.342" width="3.6223" height="3.6223" rx="1.81115" transform="rotate(45 890.332 224.342)" fill="#D7E1F8"/>
<rect x="906.554" y="240.564" width="3.6223" height="3.6223" rx="1.81115" transform="rotate(45 906.554 240.564)" fill="#D7E1F8"/>
<rect x="922.776" y="256.786" width="3.6223" height="3.6223" rx="1.81115" transform="rotate(45 922.776 256.786)" fill="#D7E1F8"/>
<rect x="1022.47" y="-4.18323" width="3.6223" height="3.6223" rx="1.81115" transform="rotate(45 1022.47 -4.18323)" fill="#D7E1F8"/>
<rect x="1038.69" y="12.0387" width="3.6223" height="3.6223" rx="1.81115" transform="rotate(45 1038.69 12.0387)" fill="#D7E1F8"/>
<rect x="1054.92" y="28.2606" width="3.6223" height="3.6223" rx="1.81115" transform="rotate(45 1054.92 28.2606)" fill="#D7E1F8"/>
<rect x="989.792" y="-3.94678" width="3.6223" height="3.6223" rx="1.81115" transform="rotate(45 989.792 -3.94678)" fill="#D7E1F8"/>
<rect x="1006.01" y="12.2751" width="3.6223" height="3.6223" rx="1.81115" transform="rotate(45 1006.01 12.2751)" fill="#D7E1F8"/>
<rect x="1022.24" y="28.497" width="3.6223" height="3.6223" rx="1.81115" transform="rotate(45 1022.24 28.497)" fill="#D7E1F8"/>
<rect x="1038.46" y="44.7189" width="3.6223" height="3.6223" rx="1.81115" transform="rotate(45 1038.46 44.7189)" fill="#D7E1F8"/>
<rect x="1054.68" y="60.9409" width="3.6223" height="3.6223" rx="1.81115" transform="rotate(45 1054.68 60.9409)" fill="#D7E1F8"/>
<rect x="957.111" y="-3.71045" width="3.6223" height="3.6223" rx="1.81115" transform="rotate(45 957.111 -3.71045)" fill="#D7E1F8"/>
<rect x="973.333" y="12.5115" width="3.6223" height="3.6223" rx="1.81115" transform="rotate(45 973.333 12.5115)" fill="#D7E1F8"/>
<rect x="989.555" y="28.7334" width="3.6223" height="3.6223" rx="1.81115" transform="rotate(45 989.555 28.7334)" fill="#D7E1F8"/>
<rect x="1005.78" y="44.9553" width="3.6223" height="3.6223" rx="1.81115" transform="rotate(45 1005.78 44.9553)" fill="#D7E1F8"/>
<rect x="1022" y="61.1772" width="3.6223" height="3.6223" rx="1.81115" transform="rotate(45 1022 61.1772)" fill="#D7E1F8"/>
<rect x="1038.22" y="77.3992" width="3.6223" height="3.6223" rx="1.81115" transform="rotate(45 1038.22 77.3992)" fill="#D7E1F8"/>
<rect x="1054.44" y="93.621" width="3.6223" height="3.6223" rx="1.81115" transform="rotate(45 1054.44 93.621)" fill="#D7E1F8"/>
<rect x="924.431" y="-3.47412" width="3.6223" height="3.6223" rx="1.81115" transform="rotate(45 924.431 -3.47412)" fill="#D7E1F8"/>
<rect x="940.653" y="12.7478" width="3.6223" height="3.6223" rx="1.81115" transform="rotate(45 940.653 12.7478)" fill="#D7E1F8"/>
<rect x="956.875" y="28.9697" width="3.6223" height="3.6223" rx="1.81115" transform="rotate(45 956.875 28.9697)" fill="#D7E1F8"/>
<rect x="973.097" y="45.1917" width="3.6223" height="3.6223" rx="1.81115" transform="rotate(45 973.097 45.1917)" fill="#D7E1F8"/>
<rect x="989.319" y="61.4136" width="3.6223" height="3.6223" rx="1.81115" transform="rotate(45 989.319 61.4136)" fill="#D7E1F8"/>
<rect x="1005.54" y="77.6355" width="3.6223" height="3.6223" rx="1.81115" transform="rotate(45 1005.54 77.6355)" fill="#D7E1F8"/>
<rect x="1021.76" y="93.8574" width="3.6223" height="3.6223" rx="1.81115" transform="rotate(45 1021.76 93.8574)" fill="#D7E1F8"/>
<rect x="1037.98" y="110.079" width="3.6223" height="3.6223" rx="1.81115" transform="rotate(45 1037.98 110.079)" fill="#D7E1F8"/>
<rect x="1054.21" y="126.301" width="3.6223" height="3.6223" rx="1.81115" transform="rotate(45 1054.21 126.301)" fill="#D7E1F8"/>
<rect x="891.751" y="-3.23767" width="3.6223" height="3.6223" rx="1.81115" transform="rotate(45 891.751 -3.23767)" fill="#D7E1F8"/>
<rect x="907.973" y="12.9843" width="3.6223" height="3.6223" rx="1.81115" transform="rotate(45 907.973 12.9843)" fill="#D7E1F8"/>
<rect x="924.195" y="29.2062" width="3.6223" height="3.6223" rx="1.81115" transform="rotate(45 924.195 29.2062)" fill="#D7E1F8"/>
<rect x="940.417" y="45.428" width="3.6223" height="3.6223" rx="1.81115" transform="rotate(45 940.417 45.428)" fill="#D7E1F8"/>
<rect x="956.638" y="61.65" width="3.6223" height="3.6223" rx="1.81115" transform="rotate(45 956.638 61.65)" fill="#D7E1F8"/>
<rect x="972.86" y="77.8719" width="3.6223" height="3.6223" rx="1.81115" transform="rotate(45 972.86 77.8719)" fill="#D7E1F8"/>
<rect x="989.082" y="94.0938" width="3.6223" height="3.6223" rx="1.81115" transform="rotate(45 989.082 94.0938)" fill="#D7E1F8"/>
<rect x="1005.3" y="110.316" width="3.6223" height="3.6223" rx="1.81115" transform="rotate(45 1005.3 110.316)" fill="#D7E1F8"/>
<rect x="1021.53" y="126.538" width="3.6223" height="3.6223" rx="1.81115" transform="rotate(45 1021.53 126.538)" fill="#D7E1F8"/>
<rect x="1037.75" y="142.76" width="3.6223" height="3.6223" rx="1.81115" transform="rotate(45 1037.75 142.76)" fill="#D7E1F8"/>
<rect x="859.071" y="-3.00134" width="3.6223" height="3.6223" rx="1.81115" transform="rotate(45 859.071 -3.00134)" fill="#D7E1F8"/>
<rect x="875.292" y="13.2206" width="3.6223" height="3.6223" rx="1.81115" transform="rotate(45 875.292 13.2206)" fill="#D7E1F8"/>
<rect x="891.514" y="29.4425" width="3.6223" height="3.6223" rx="1.81115" transform="rotate(45 891.514 29.4425)" fill="#D7E1F8"/>
<rect x="907.736" y="45.6644" width="3.6223" height="3.6223" rx="1.81115" transform="rotate(45 907.736 45.6644)" fill="#D7E1F8"/>
<rect x="923.958" y="61.8864" width="3.6223" height="3.6223" rx="1.81115" transform="rotate(45 923.958 61.8864)" fill="#D7E1F8"/>
<rect x="940.18" y="78.1082" width="3.6223" height="3.6223" rx="1.81115" transform="rotate(45 940.18 78.1082)" fill="#D7E1F8"/>
<rect x="956.402" y="94.3301" width="3.6223" height="3.6223" rx="1.81115" transform="rotate(45 956.402 94.3301)" fill="#D7E1F8"/>
<rect x="972.624" y="110.552" width="3.6223" height="3.6223" rx="1.81115" transform="rotate(45 972.624 110.552)" fill="#D7E1F8"/>
<rect x="988.846" y="126.774" width="3.6223" height="3.6223" rx="1.81115" transform="rotate(45 988.846 126.774)" fill="#D7E1F8"/>
<rect x="1005.07" y="142.996" width="3.6223" height="3.6223" rx="1.81115" transform="rotate(45 1005.07 142.996)" fill="#D7E1F8"/>
<rect x="1021.29" y="159.218" width="3.6223" height="3.6223" rx="1.81115" transform="rotate(45 1021.29 159.218)" fill="#D7E1F8"/>
<circle cx="877.796" cy="451.292" r="109.768" stroke="#D5E0F6" stroke-width="4"/>
<path d="M159.275 1.57922L134.156 26.6985" stroke="#D5E0F6" stroke-width="4"/>
<path d="M159.275 60.4998L134.156 35.3804" stroke="#D5E0F6" stroke-width="4"/>
<path d="M134.156 1.57922L109.037 26.6985" stroke="#D5E0F6" stroke-width="4"/>
<path d="M134.156 60.4998L109.037 35.3804" stroke="#D5E0F6" stroke-width="4"/>
<path d="M109.037 1.57922L83.9173 26.6985" stroke="#D5E0F6" stroke-width="4"/>
<path d="M109.037 60.4998L83.9173 35.3804" stroke="#D5E0F6" stroke-width="4"/>
<path d="M624.131 324.5H731.971" stroke="#D5E0F6" stroke-width="4"/>
<path d="M624.131 300.5L678.051 300.5" stroke="#D5E0F6" stroke-width="4"/>
<path d="M624.131 276.5L676.565 276.5" stroke="#D5E0F6" stroke-width="4"/>
</g>
<rect x="82.1816" y="291.433" width="28" height="3" fill="#2E4885"/>
</svg>
