<svg width="1071" height="420" viewBox="0 0 1071 420" fill="none" xmlns="http://www.w3.org/2000/svg">
<rect width="1070.24" height="420" fill="#F5F7FB"/>
<mask id="mask0" mask-type="alpha" maskUnits="userSpaceOnUse" x="0" y="0" width="1068" height="420">
<rect width="1067.51" height="420" fill="#F5F7FB"/>
</mask>
<g mask="url(#mask0)">
<path d="M788.512 336L788.512 360" stroke="#D5E0F6" stroke-width="4"/>
<path d="M800.501 348.108L776.501 348.108" stroke="#D5E0F6" stroke-width="4"/>
<path d="M986.088 48L986.088 64" stroke="#D5E0F6" stroke-width="4"/>
<path d="M994.081 56.0717L978.081 56.0717" stroke="#D5E0F6" stroke-width="4"/>
<circle cx="787.561" cy="232.864" r="4" fill="#D5E0F6"/>
<circle cx="868.485" cy="266.384" r="4" transform="rotate(45 868.485 266.384)" fill="#D5E0F6"/>
<circle cx="902.005" cy="347.308" r="4" transform="rotate(90 902.005 347.308)" fill="#D5E0F6"/>
<circle cx="673.117" cy="347.308" r="4" transform="rotate(90 673.117 347.308)" fill="#D5E0F6"/>
<circle cx="706.637" cy="266.384" r="4" transform="rotate(135 706.637 266.384)" fill="#D5E0F6"/>
<circle cx="893.066" cy="302.966" r="4" transform="rotate(67.2038 893.066 302.966)" fill="#D5E0F6"/>
<circle cx="682.057" cy="391.649" r="4" transform="rotate(67.2038 682.057 391.649)" fill="#D5E0F6"/>
<circle cx="743.219" cy="241.803" r="4" transform="rotate(157.204 743.219 241.803)" fill="#D5E0F6"/>
<circle cx="893.759" cy="389.962" r="4" transform="rotate(111.883 893.759 389.962)" fill="#D5E0F6"/>
<circle cx="681.363" cy="304.653" r="4" transform="rotate(111.883 681.363 304.653)" fill="#D5E0F6"/>
<circle cx="830.216" cy="241.11" r="4" transform="rotate(-158.117 830.216 241.11)" fill="#D5E0F6"/>
<circle cx="137.077" cy="66.5297" r="2.47025" fill="#D5E0F6"/>
<circle cx="87.1011" cy="45.8292" r="2.47025" transform="rotate(45 87.1011 45.8292)" fill="#D5E0F6"/>
<circle cx="187.052" cy="45.8292" r="2.47025" transform="rotate(135 187.052 45.8292)" fill="#D5E0F6"/>
<circle cx="71.9213" cy="23.2372" r="2.47025" transform="rotate(67.2038 71.9213 23.2372)" fill="#D5E0F6"/>
<circle cx="164.461" cy="61.009" r="2.47025" transform="rotate(157.204 164.461 61.009)" fill="#D5E0F6"/>
<circle cx="202.661" cy="22.1952" r="2.47025" transform="rotate(111.883 202.661 22.1952)" fill="#D5E0F6"/>
<circle cx="110.735" cy="61.4371" r="2.47025" transform="rotate(-158.117 110.735 61.4371)" fill="#D5E0F6"/>
<circle cx="985.909" cy="173.147" r="4" fill="#D5E0F6"/>
<circle cx="904.985" cy="139.627" r="4" transform="rotate(45 904.985 139.627)" fill="#D5E0F6"/>
<circle cx="1066.83" cy="139.627" r="4" transform="rotate(135 1066.83 139.627)" fill="#D5E0F6"/>
<circle cx="871.465" cy="58.7025" r="4" transform="rotate(90 871.465 58.7025)" fill="#D5E0F6"/>
<circle cx="880.405" cy="103.044" r="4" transform="rotate(67.2038 880.405 103.044)" fill="#D5E0F6"/>
<circle cx="1030.25" cy="164.207" r="4" transform="rotate(157.204 1030.25 164.207)" fill="#D5E0F6"/>
<circle cx="879.711" cy="16.048" r="4" transform="rotate(111.883 879.711 16.048)" fill="#D5E0F6"/>
<circle cx="943.255" cy="164.9" r="4" transform="rotate(-158.117 943.255 164.9)" fill="#D5E0F6"/>
<circle cx="494" cy="272" r="2" fill="#D5E0F6"/>
<circle cx="494" cy="290" r="2" fill="#D5E0F6"/>
<circle cx="494" cy="308" r="2" fill="#D5E0F6"/>
<circle cx="494" cy="326" r="2" fill="#D5E0F6"/>
<circle cx="494" cy="344" r="2" fill="#D5E0F6"/>
<circle cx="494" cy="362" r="2" fill="#D5E0F6"/>
<circle cx="494" cy="380" r="2" fill="#D5E0F6"/>
<circle cx="494" cy="398" r="2" fill="#D5E0F6"/>
<circle cx="494" cy="416" r="2" fill="#D5E0F6"/>
<circle cx="137.273" cy="272" r="2" fill="#D5E0F6"/>
<circle cx="137.273" cy="255" r="2" fill="#D5E0F6"/>
<circle cx="137.273" cy="290" r="2" fill="#D5E0F6"/>
<circle cx="137.273" cy="308" r="2" fill="#D5E0F6"/>
<circle cx="137.273" cy="326" r="2" fill="#D5E0F6"/>
<circle cx="137.273" cy="344" r="2" fill="#D5E0F6"/>
<circle cx="137.273" cy="362" r="2" fill="#D5E0F6"/>
<circle cx="137.273" cy="380" r="2" fill="#D5E0F6"/>
<circle cx="137.273" cy="398" r="2" fill="#D5E0F6"/>
<circle cx="137.273" cy="416" r="2" fill="#D5E0F6"/>
<circle cx="137.273" cy="48" r="2" fill="#D5E0F6"/>
<circle cx="137.273" cy="66" r="2" fill="#D5E0F6"/>
<circle cx="137.273" cy="84" r="2" fill="#D5E0F6"/>
<circle cx="137.273" cy="102" r="2" fill="#D5E0F6"/>
<path d="M222.5 291L233.325 309.75H211.675L222.5 291Z" fill="#D5E0F6"/>
<path d="M222.5 316L233.325 334.75H211.675L222.5 316Z" fill="#D5E0F6"/>
<path d="M222.5 341L233.325 359.75H211.675L222.5 341Z" fill="#D5E0F6"/>
<path d="M754.5 24L765.325 42.75H743.675L754.5 24Z" fill="#D5E0F6"/>
<path d="M754.5 49L765.325 67.75H743.675L754.5 49Z" fill="#D5E0F6"/>
<path d="M754.5 74L765.325 92.75H743.675L754.5 74Z" fill="#D5E0F6"/>
<rect x="494" y="244.63" width="7.17994" height="7.17994" transform="rotate(45 494 244.63)" fill="#D5E0F6"/>
<rect x="137.077" y="21.8459" width="7.17994" height="7.17994" transform="rotate(45 137.077 21.8459)" fill="#D5E0F6"/>
</g>
<rect x="82.1816" y="290.711" width="28" height="3" fill="#2E4885"/>
</svg>
