<svg width="1074" height="420" viewBox="0 0 1074 420" fill="none" xmlns="http://www.w3.org/2000/svg">
<rect width="1074" height="420" fill="#F5F7FB"/>
<mask id="mask0" mask-type="alpha" maskUnits="userSpaceOnUse" x="0" y="0" width="1074" height="420">
<rect width="1074" height="420" fill="#F5F7FB"/>
</mask>
<g mask="url(#mask0)">
<path d="M1001 345L1001 315.361L1001 0" stroke="#D5E0F6" stroke-width="1.5"/>
<path d="M615 351L615 251" stroke="#D5E0F6" stroke-width="1.5"/>
<path d="M615 99L615 90.1512L615 -4" stroke="#D5E0F6" stroke-width="1.5"/>
<path d="M228 99L228 90.1512L228 -4" stroke="#D5E0F6" stroke-width="1.5"/>
<path d="M229 350L229 341.581L229 252" stroke="#D5E0F6" stroke-width="1.5"/>
<path d="M1074 376H1001.5M688 376H1001.5M1001.5 376V547" stroke="#D5E0F6" stroke-width="2"/>
<path d="M688 376H615.5M302 376H615.5M615.5 376V547" stroke="#D5E0F6" stroke-width="2"/>
<path d="M302 376H229.5M-84 376H229.5M229.5 376V547" stroke="#D5E0F6" stroke-width="2"/>
<path d="M1001 277C1043.22 277 1078.5 308.28 1087 350" stroke="#D5E0F6"/>
<path d="M1001 277C958.777 277 923.503 308.28 915 350" stroke="#D5E0F6"/>
<path d="M1074 27.9999L0 28" stroke="#D5E0F6" stroke-width="2" stroke-dasharray="8 8"/>
<path d="M1074 350L0 350" stroke="#D5E0F6" stroke-width="2" stroke-dasharray="8 8"/>
<path d="M1002 449C959.286 449 923.602 417.72 915 376" stroke="#D5E0F6"/>
<path d="M1002 449C1044.71 449 1080.4 417.72 1089 376" stroke="#D5E0F6"/>
<path d="M19.5627 180.592L-0.674271 180.592L-0.67427 200.829L19.5627 200.829L19.5627 180.592Z" fill="#D5E0F6"/>
<path d="M40.5627 159.461L20.3257 159.461L20.3257 179.698L40.5627 179.698L40.5627 159.461Z" fill="#D5E0F6"/>
<path d="M919.118 -0.644588L939.355 -0.64459L939.355 -20.8815L919.118 -20.8815L919.118 -0.644588Z" fill="#D5E0F6"/>
<path d="M19.5627 221.592L-0.674271 221.592L-0.67427 241.829L19.5627 241.829L19.5627 221.592Z" fill="#D5E0F6"/>
<path d="M40.5627 201.461L20.3257 201.461L20.3257 221.698L40.5627 221.698L40.5627 201.461Z" fill="#D5E0F6"/>
<path d="M779.992 142.14L779.992 116.334L754.186 116.334L754.186 142.14L779.992 142.14Z" fill="#D5E0F6"/>
<path d="M806.049 168.198L806.049 142.392L780.243 142.392L780.243 168.198L806.049 168.198Z" fill="#D5E0F6"/>
<path d="M832.107 194.255L832.107 168.449L806.301 168.449L806.301 194.255L832.107 194.255Z" fill="#D5E0F6"/>
<path d="M859.053 221.034L859.053 195.228L833.247 195.228L833.247 221.034L859.053 221.034Z" fill="#D5E0F6"/>
<path d="M1000.99 142.14L1000.99 116.334L975.185 116.334L975.185 142.14L1000.99 142.14Z" fill="#D5E0F6"/>
<path d="M1027.05 168.198L1027.05 142.392L1001.24 142.392L1001.24 168.198L1027.05 168.198Z" fill="#D5E0F6"/>
<path d="M1053.11 194.255L1053.11 168.449L1027.3 168.449L1027.3 194.255L1053.11 194.255Z" fill="#D5E0F6"/>
<path d="M1080.05 221.034L1080.05 195.228L1054.25 195.228L1054.25 221.034L1080.05 221.034Z" fill="#D5E0F6"/>
<path d="M727.71 142.14L727.71 116.334L701.904 116.334L701.904 142.14L727.71 142.14Z" fill="#D5E0F6"/>
<path d="M753.767 168.198L753.767 142.392L727.962 142.392L727.962 168.198L753.767 168.198Z" fill="#D5E0F6"/>
<path d="M779.825 194.255L779.825 168.449L754.019 168.449L754.019 194.255L779.825 194.255Z" fill="#D5E0F6"/>
<path d="M805.495 221.034L805.495 195.228L779.69 195.228L779.69 221.034L805.495 221.034Z" fill="#D5E0F6"/>
<path d="M948.708 142.14L948.708 116.334L922.903 116.334L922.903 142.14L948.708 142.14Z" fill="#D5E0F6"/>
<path d="M974.766 168.198L974.766 142.392L948.96 142.392L948.96 168.198L974.766 168.198Z" fill="#D5E0F6"/>
<path d="M1000.82 194.255L1000.82 168.449L975.018 168.449L975.018 194.255L1000.82 194.255Z" fill="#D5E0F6"/>
<path d="M1026.49 221.034L1026.49 195.228L1000.69 195.228L1000.69 221.034L1026.49 221.034Z" fill="#D5E0F6"/>
<path d="M833.549 141.708L833.549 115.903L807.744 115.903L807.744 141.708L833.549 141.708Z" fill="#D5E0F6"/>
<path d="M859.606 167.766L859.606 141.961L833.801 141.961L833.801 167.766L859.606 167.766Z" fill="#D5E0F6"/>
<path d="M883.114 193.824L883.114 168.018L857.308 168.018L857.308 193.824L883.114 193.824Z" fill="#D5E0F6"/>
<path d="M909.222 219.758L909.222 193.953L883.416 193.953L883.416 219.758L909.222 219.758Z" fill="#D5E0F6"/>
<path d="M1053.27 141.708L1053.27 115.903L1027.47 115.903L1027.47 141.708L1053.27 141.708Z" fill="#D5E0F6"/>
<path d="M1080.61 167.766L1080.61 141.961L1054.8 141.961L1054.8 167.766L1080.61 167.766Z" fill="#D5E0F6"/>
<path d="M1104.28 193.991L1104.28 168.185L1078.47 168.185L1078.47 193.991L1104.28 193.991Z" fill="#D5E0F6"/>
<path d="M19.3554 140.461L-0.881547 140.461L-0.881545 160.698L19.3554 160.698L19.3554 140.461Z" fill="#D5E0F6"/>
<path d="M39.5627 119.118L19.3257 119.118L19.3257 139.355L39.5627 139.355L39.5627 119.118Z" fill="#D5E0F6"/>
<path d="M687.783 350C683.124 313.895 652.265 286 614.892 286C577.518 286 546.659 313.895 542 350" stroke="#D5E0F6"/>
<path d="M315 376C309.471 418.875 272.851 452 228.5 452C184.149 452 147.529 418.875 142 376" stroke="#D5E0F6"/>
<path d="M687.783 376C683.124 412.105 652.265 440 614.892 440C577.518 440 546.659 412.105 542 376" stroke="#D5E0F6"/>
</g>
<path d="M315 350C309.471 307.125 272.851 274 228.5 274C184.149 274 147.529 307.125 142 350" stroke="#D5E0F6"/>
</svg>
