<svg width="37" height="36" viewBox="0 0 37 36" fill="none" xmlns="http://www.w3.org/2000/svg">
<rect x="0.774414" width="36" height="36" rx="6" fill="#F5F7FB"/>
<path d="M18.8992 16.4041L20.4577 17.9627C21.2387 18.7437 21.2387 20.01 20.4577 20.7911L16.6288 24.62C15.8478 25.401 14.5814 25.401 13.8004 24.62L12.532 23.3516C11.751 22.5705 11.751 21.3042 12.532 20.5232L14.4464 18.6087" stroke="#13133A" stroke-width="2"/>
<path d="M18.0041 19.5109L16.5308 18.0376C15.7497 17.2565 15.7497 15.9902 16.5308 15.2091L20.3597 11.3803C21.1407 10.5992 22.407 10.5992 23.1881 11.3803L24.4565 12.6486C25.2375 13.4297 25.2375 14.696 24.4565 15.4771L22.542 17.3915" stroke="#13133A" stroke-width="2"/>
</svg>
