<svg width="13" height="14" viewBox="0 0 13 14" fill="none" xmlns="http://www.w3.org/2000/svg">
<path fill-rule="evenodd" clip-rule="evenodd" d="M5.59814 1.28304C5.20801 0.892471 4.57471 0.892471 4.18408 1.28304L3.28906 2.17793L2.4126 1.30141C2.02246 0.910904 1.38916 0.910904 0.998535 1.30141L0.892578 1.40712C0.502441 1.79768 0.502441 2.43086 0.892578 2.82137L1.76904 3.69789L0.874023 4.59297C0.483398 4.98347 0.483398 5.61665 0.874023 6.00716L1.01709 6.14998C1.40723 6.54048 2.04053 6.54048 2.43115 6.14998L3.32617 5.2549L4.20264 6.1313C4.59326 6.52187 5.22656 6.52187 5.61719 6.1313L5.72266 6.02559C6.11328 5.63503 6.11328 5.00191 5.72266 4.61134L4.84619 3.73494L5.74121 2.83998C6.13184 2.44948 6.13184 1.8163 5.74121 1.4258L5.59814 1.28304ZM1.53271 7.54616C0.980469 7.54616 0.532715 7.99385 0.532715 8.54616V12.0954C0.532715 12.6477 0.980469 13.0954 1.53271 13.0954H5.08203C5.63428 13.0954 6.08203 12.6477 6.08203 12.0954V8.54616C6.08203 7.99385 5.63428 7.54616 5.08203 7.54616H1.53271ZM9.68506 13.1131C11.2222 13.1131 12.4683 11.8669 12.4683 10.3297C12.4683 8.79237 11.2222 7.54616 9.68506 7.54616C8.14746 7.54616 6.90137 8.79237 6.90137 10.3297C6.90137 11.8669 8.14746 13.1131 9.68506 13.1131ZM11.4956 1.35719C11.9424 1.35719 12.3042 1.71925 12.3042 2.16585C12.3042 2.61244 11.9424 2.97444 11.4956 2.97444H7.87549C7.42871 2.97444 7.06641 2.61244 7.06641 2.16585C7.06641 1.71925 7.42871 1.35719 7.87549 1.35719H11.4956ZM12.3037 5.26729C12.3037 4.82069 11.9419 4.45863 11.4951 4.45863H7.875C7.42822 4.45863 7.06592 4.82069 7.06592 5.26729C7.06592 5.71388 7.42822 6.07588 7.875 6.07588H11.4951C11.9419 6.07588 12.3037 5.71388 12.3037 5.26729Z" fill="white"/>
</svg>
