<svg width="37" height="36" viewBox="0 0 37 36" fill="none" xmlns="http://www.w3.org/2000/svg">
<rect x="0.67041" width="36" height="36" fill="white"/>
<rect x="3.54736" y="19.7773" width="14" height="14" rx="3" fill="#2364FA"/>
<path d="M14.1066 1.81706C14.4971 1.42654 15.1303 1.42654 15.5208 1.81706L18.3015 4.59773C18.692 4.98825 18.692 5.62142 18.3015 6.01194L6.98777 17.3257C6.59725 17.7162 5.96408 17.7162 5.57356 17.3257L2.79289 14.545C2.40237 14.1545 2.40237 13.5213 2.79289 13.1308L14.1066 1.81706Z" fill="#E92230"/>
<path d="M18.2518 13.1805C18.6424 13.5711 18.6424 14.2042 18.2518 14.5947L15.571 17.2756C15.1804 17.6661 14.5473 17.6661 14.1567 17.2756L2.84304 5.96189C2.45252 5.57137 2.45252 4.93821 2.84304 4.54768L5.52391 1.86682C5.91443 1.47629 6.5476 1.47629 6.93812 1.86682L18.2518 13.1805Z" fill="#E92230"/>
<circle cx="27.6822" cy="26.7501" r="7.50009" fill="#2364FA"/>
<path d="M33.6231 3.04077C34.1753 3.04077 34.6231 3.48849 34.6231 4.04077V6.91052C34.6231 7.4628 34.1753 7.91052 33.6231 7.91052L21.6245 7.91052C21.0722 7.91052 20.6245 7.4628 20.6245 6.91052L20.6245 4.04077C20.6245 3.48849 21.0722 3.04077 21.6245 3.04077L33.6231 3.04077Z" fill="#FF7743"/>
<path d="M33.6231 12.015C34.1753 12.015 34.6231 12.4627 34.6231 13.015V15.8296C34.6231 16.3819 34.1753 16.8296 33.6231 16.8296H21.6245C21.0722 16.8296 20.6245 16.3819 20.6245 15.8296L20.6245 13.015C20.6245 12.4627 21.0722 12.015 21.6245 12.015L33.6231 12.015Z" fill="#FF7743"/>
</svg>
