<svg width="1158" height="376" viewBox="0 0 1158 376" fill="none" xmlns="http://www.w3.org/2000/svg">
<path d="M0.503784 198.476H122.805" stroke="#2E4885" stroke-width="36"/>
<path fill-rule="evenodd" clip-rule="evenodd" d="M165.046 250.421C136.357 250.421 113.101 227.164 113.101 198.476C113.101 169.788 136.357 146.531 165.046 146.531C188.015 146.531 207.502 161.44 214.359 182.108H161.498V214.323H214.529C207.829 235.261 188.208 250.421 165.046 250.421Z" fill="#2E4885"/>
<path d="M182.864 197.959C182.864 207.806 174.881 215.789 165.035 215.789C155.188 215.789 147.206 207.806 147.206 197.959C152.424 197.96 155.188 197.959 165.035 197.959C174.881 197.959 177.573 197.959 182.864 197.959Z" fill="#A7D2FB"/>
<path d="M182.864 197.959C182.864 188.113 174.881 180.13 165.035 180.13C155.188 180.13 147.206 188.113 147.206 197.959C152.424 197.959 155.188 197.959 165.035 197.959C174.881 197.959 177.573 197.959 182.864 197.959Z" fill="#5F8DF7"/>
<path d="M157.652 198.188L171.915 198.188" stroke="#2E4885" stroke-width="6"/>
<path d="M164.783 205.341L164.783 191.078" stroke="#2E4885" stroke-width="6"/>
<path d="M1174.9 190.657C1174.9 176.85 1163.7 165.657 1149.9 165.657L897.487 165.657V165.657C910.255 165.657 920.606 176.008 920.606 188.777V293.657V312.065C920.606 324.833 910.255 335.184 897.487 335.184V335.184H1149.9C1163.7 335.184 1174.9 323.991 1174.9 310.184V293.657V190.657Z" fill="#5F8DF7"/>
<path d="M1046.83 25C1046.83 11.1929 1035.64 2.28964e-06 1021.83 2.18335e-06L738.225 0V0C751.543 1.31212e-06 762.338 10.7958 762.338 24.1132V40.5728V141.081C762.338 154.888 773.531 166.081 787.338 166.081H1094.35H1071.83C1058.02 166.081 1046.83 154.888 1046.83 141.081V125.232V25Z" fill="#A7D2FB"/>
<path d="M703.3 230.925L736.394 230.925" stroke="#2E4885" stroke-width="14"/>
<path d="M708.243 213.096C698.396 213.096 690.414 221.078 690.414 230.925C690.414 240.772 698.396 248.754 708.243 248.754C708.243 243.536 708.243 240.772 708.243 230.925C708.243 221.078 708.243 218.386 708.243 213.096Z" fill="#5F8DF7"/>
<path d="M798.98 230.925L765.886 230.925" stroke="#2E4885" stroke-width="14"/>
<path d="M794.037 213.096C803.884 213.096 811.866 221.078 811.866 230.925C811.866 240.772 803.884 248.754 794.037 248.754C794.037 243.536 794.037 240.772 794.037 230.925C794.037 221.078 794.037 218.386 794.037 213.096Z" fill="#5F8DF7"/>
<circle cx="819.248" cy="117.251" r="14.2446" fill="#2E4885"/>
<path d="M813.019 125.973H825.478V139.678L819.249 135.317L813.019 139.678V125.973Z" fill="#2E4885"/>
<path d="M1004.54 254.952H1042.91" stroke="black" stroke-width="5"/>
<path d="M1037.71 220.925L1089.19 220.925" stroke="black" stroke-width="5"/>
<path d="M1056.77 254.952H1062.72" stroke="black" stroke-width="5"/>
<path d="M986.292 254.952H992.243" stroke="black" stroke-width="5"/>
<path d="M969.973 254.952H975.923" stroke="black" stroke-width="5"/>
<path d="M954.375 254.952H960.325" stroke="black" stroke-width="5"/>
<path d="M994.938 220.925H1000.89" stroke="black" stroke-width="5"/>
<path d="M954.374 220.925H976.696" stroke="black" stroke-width="5"/>
<path d="M1068.48 254.952H1074.43" stroke="black" stroke-width="5"/>
<path d="M1006.65 220.925H1012.6" stroke="black" stroke-width="5"/>
<path d="M1092.92 254.952H1098.87" stroke="black" stroke-width="5"/>
<path d="M1019.04 220.925H1024.99" stroke="black" stroke-width="5"/>
<path d="M1116.96 254.952H1122.91" stroke="black" stroke-width="5"/>
<path d="M1129.98 254.952H1135.93" stroke="black" stroke-width="5"/>
<path d="M1116.96 220.925H1122.91" stroke="black" stroke-width="5"/>
<path d="M1104.63 254.952H1110.58" stroke="black" stroke-width="5"/>
<path d="M1104.63 220.925H1110.58" stroke="black" stroke-width="5"/>
<path d="M1128.66 220.925H1134.61" stroke="black" stroke-width="5"/>
<path d="M1141.69 220.925H1147.64" stroke="black" stroke-width="5"/>
<path d="M1141.69 254.952H1147.64" stroke="black" stroke-width="5"/>
<path d="M806.176 77.7264H844.551" stroke="#2E4885" stroke-width="5"/>
<path d="M949.278 42.2141H910.902" stroke="#2E4885" stroke-width="5"/>
<path d="M861.894 77.7266H867.844" stroke="#2E4885" stroke-width="5"/>
<path d="M897.042 42.2141H891.092" stroke="#2E4885" stroke-width="5"/>
<path d="M967.524 42.2141H961.574" stroke="#2E4885" stroke-width="5"/>
<path d="M983.844 42.2141H977.894" stroke="#2E4885" stroke-width="5"/>
<path d="M999.442 42.2141H993.492" stroke="#2E4885" stroke-width="5"/>
<path d="M873.601 77.7266H879.551" stroke="#2E4885" stroke-width="5"/>
<path d="M885.335 42.2141H879.385" stroke="#2E4885" stroke-width="5"/>
<path d="M898.039 77.7266H903.989" stroke="#2E4885" stroke-width="5"/>
<path d="M860.897 42.2141H854.947" stroke="#2E4885" stroke-width="5"/>
<path d="M922.075 77.7266H928.025" stroke="#2E4885" stroke-width="5"/>
<path d="M836.862 42.2141H830.912" stroke="#2E4885" stroke-width="5"/>
<path d="M823.833 42.2141H817.882" stroke="#2E4885" stroke-width="5"/>
<path d="M909.746 77.7266H915.696" stroke="#2E4885" stroke-width="5"/>
<path d="M849.19 42.2141H843.24" stroke="#2E4885" stroke-width="5"/>
<path d="M933.782 77.7266H939.732" stroke="#2E4885" stroke-width="5"/>
<path d="M959.541 77.7266H965.491" stroke="#2E4885" stroke-width="5"/>
<path d="M977.121 77.7266H983.071" stroke="#2E4885" stroke-width="5"/>
<path d="M993.492 77.7266H999.442" stroke="#2E4885" stroke-width="5"/>
<path d="M812.125 42.2141H806.175" stroke="#2E4885" stroke-width="5"/>
<rect x="920.606" y="250.421" width="254.291" height="84.7635" fill="#2E4885"/>
<rect x="88" y="250.421" width="832.606" height="84.7635" fill="#5F8DF7"/>
<path d="M645.223 231.558C645.223 241.405 653.206 249.387 663.052 249.387C672.899 249.387 680.881 241.405 680.881 231.558C675.663 231.558 672.899 231.558 663.052 231.558C653.206 231.558 650.514 231.558 645.223 231.558Z" fill="#2E4885"/>
<path d="M645.223 231.558C645.223 221.711 653.206 213.729 663.052 213.729C672.899 213.729 680.881 221.711 680.881 231.558C675.663 231.558 672.899 231.558 663.052 231.558C653.206 231.558 650.514 231.558 645.223 231.558Z" fill="#5F8DF7"/>
<path d="M670.435 231.786L656.172 231.786" stroke="#A7D2FB" stroke-width="6"/>
<path d="M663.304 238.94L663.304 224.676" stroke="#A7D2FB" stroke-width="6"/>
<path d="M282.687 230.558C282.687 240.405 290.669 248.387 300.516 248.387C310.362 248.387 318.345 240.405 318.345 230.558C313.126 230.558 310.362 230.558 300.516 230.558C290.669 230.558 287.977 230.558 282.687 230.558Z" fill="#2E4885"/>
<path d="M282.687 230.558C282.687 220.711 290.669 212.729 300.516 212.729C310.362 212.729 318.345 220.711 318.345 230.558C313.126 230.558 310.362 230.558 300.516 230.558C290.669 230.558 287.977 230.558 282.687 230.558Z" fill="#5F8DF7"/>
<path d="M307.898 230.786L293.635 230.786" stroke="#A7D2FB" stroke-width="6"/>
<path d="M300.767 237.94L300.767 223.676" stroke="#A7D2FB" stroke-width="6"/>
<rect width="169.527" height="84.7635" transform="matrix(-1 0 0 1 593.856 163.657)" fill="#2E4885"/>
<path d="M593.856 120.22C593.856 97.3962 575.354 78.8938 552.53 78.8938V78.8938L381.742 78.8938V78.8938C405.149 78.8938 424.329 97.8688 424.329 121.276V121.276V163.657H593.856V120.22Z" fill="#5F8DF7"/>
<path d="M424.329 121.276C424.329 97.8688 405.354 78.8938 381.947 78.8938V78.8938C358.54 78.8938 339.565 97.8688 339.565 121.276V163.657H424.329V121.276Z" fill="#A7D2FB"/>
<path d="M424.329 163.657H339.565V248.421H424.329V163.657Z" fill="#A7D2FB"/>
<rect width="42.6905" height="26.1526" transform="matrix(-1 0 0 1 531.071 148.885)" fill="#A7D2FB"/>
<path d="M626.525 244.165C633.488 237.202 633.488 225.913 626.525 218.951C619.562 211.988 608.274 211.988 601.311 218.951C605.001 222.641 606.955 224.595 613.918 231.558C620.881 238.52 622.784 240.424 626.525 244.165Z" fill="#2E4885"/>
<path d="M626.525 244.165C619.562 251.127 608.274 251.127 601.311 244.165C594.348 237.202 594.348 225.913 601.311 218.951C605.001 222.641 606.955 224.595 613.918 231.558C620.881 238.52 622.784 240.424 626.525 244.165Z" fill="#5F8DF7"/>
<path d="M608.859 226.175L618.945 236.261" stroke="#A7D2FB" stroke-width="6"/>
<path d="M618.96 226.16L608.874 236.246" stroke="#A7D2FB" stroke-width="6"/>
<rect x="134.718" y="332" width="80.3875" height="44" fill="#2E4885"/>
<rect x="713.797" y="332" width="80.3875" height="44" fill="#2E4885"/>
<rect x="713.797" y="332" width="42.6759" height="44" fill="#5F8DF7"/>
<rect x="134.039" y="332" width="45.3507" height="44" fill="#5F8DF7"/>
<rect x="1042.52" y="332" width="80.3875" height="44" fill="#2E4885"/>
<rect x="1042.52" y="332" width="40.8365" height="44" fill="#5F8DF7"/>
</svg>
