<svg width="603" height="389" viewBox="0 0 603 389" fill="none" xmlns="http://www.w3.org/2000/svg">
<path d="M331.629 220.551C331.629 206.744 320.436 195.551 306.629 195.551L0.139648 195.551V195.551C12.9081 195.551 23.259 205.902 23.259 218.67V346.153V363.524C23.259 377.331 34.4519 388.524 48.259 388.524H67.141H306.629C320.436 388.524 331.629 377.331 331.629 363.524V346.153V220.551Z" fill="url(#paint0_linear)"/>
<path d="M108.364 231.561V243.936C108.355 245.947 107.418 247.021 105.747 247.021C104.205 247.021 103.131 246.1 103.122 244.652H100.506C100.506 247.6 102.722 249.254 105.679 249.254C108.884 249.254 110.98 247.294 110.989 243.936V231.561H108.364ZM120.132 249.279C123.822 249.279 126.234 246.578 126.234 242.529C126.234 238.455 123.822 235.754 120.132 235.754C116.441 235.754 114.029 238.455 114.029 242.529C114.029 246.578 116.441 249.279 120.132 249.279ZM120.14 247.14C117.728 247.14 116.603 245.035 116.603 242.521C116.603 240.015 117.728 237.884 120.14 237.884C122.535 237.884 123.66 240.015 123.66 242.521C123.66 245.035 122.535 247.14 120.14 247.14ZM131.627 241.242C131.627 239.154 132.948 237.961 134.763 237.961C136.519 237.961 137.567 239.078 137.567 240.995V249.015H140.115V240.688C140.115 237.424 138.325 235.754 135.632 235.754C133.595 235.754 132.368 236.64 131.754 238.055H131.593V231.561H129.078V249.015H131.627V241.242ZM146.064 241.242C146.064 239.154 147.343 237.961 149.115 237.961C150.845 237.961 151.894 239.095 151.894 240.995V249.015H154.442V240.688C154.442 237.45 152.661 235.754 149.985 235.754C148.016 235.754 146.729 236.666 146.124 238.055H145.962V235.924H143.516V249.015H146.064V241.242Z" fill="white"/>
<path d="M501.701 101.804C501.701 157.629 501.701 169.879 501.701 202.885C557.526 202.885 602.782 157.629 602.782 101.804C602.782 45.9783 557.526 0.722778 501.701 0.722778C501.701 35.0266 501.701 45.9783 501.701 101.804Z" fill="#2E4885"/>
<path d="M501.701 101.804C501.701 157.629 501.701 169.879 501.701 202.885C445.876 202.885 400.62 157.629 400.62 101.804C400.62 45.9782 445.876 0.722656 501.701 0.722656C501.701 35.0265 501.701 45.9782 501.701 101.804Z" fill="#A7C3FB"/>
<circle r="71.5398" transform="matrix(-1 0 0 1 501.701 101.804)" fill="#F5F7FB"/>
<path d="M501.701 101.804C501.701 141.314 501.701 158.46 501.701 173.344C541.211 173.344 573.241 141.314 573.241 101.804C573.241 62.2934 541.211 30.264 501.701 30.264C501.701 42.966 501.701 62.2934 501.701 101.804Z" fill="#A7C3FB"/>
<rect width="10.5135" height="63.938" transform="matrix(-1 0 0 1 507.295 40.5488)" fill="#2E4885"/>
<rect width="10.1081" height="10.1081" transform="matrix(1 8.74228e-08 8.74228e-08 -1 496.781 158.317)" fill="#2E4885"/>
<rect width="10.1081" height="10.1081" transform="matrix(4.37114e-08 -1 -1 -4.37114e-08 560.719 104.487)" fill="#2E4885"/>
<rect width="10.1081" height="10.1081" transform="matrix(4.37114e-08 -1 -1 -4.37114e-08 453.06 104.487)" fill="#F08D67"/>
<rect width="10.1081" height="10.1081" transform="matrix(0.707107 -0.707107 -0.707107 -0.707107 539.898 144.644)" fill="#2E4885"/>
<rect width="10.1081" height="10.1081" transform="matrix(0.707107 -0.707107 -0.707107 -0.707107 463.772 68.5166)" fill="#F08D67"/>
<rect width="10.1081" height="10.1081" transform="matrix(-0.707107 -0.707107 -0.707107 0.707107 547.046 61.3693)" fill="#2E4885"/>
<path d="M481.185 127.23L474.038 120.082L456.624 137.496L463.771 144.643L481.185 127.23Z" fill="#F08D67"/>
<path d="M61.0475 276.364H59.2918V288H61.0475V276.364ZM71.3785 288.176C73.441 288.176 74.7762 286.938 74.9637 285.239H73.3103C73.0944 286.182 72.3614 286.739 71.3898 286.739C69.9523 286.739 69.0262 285.54 69.0262 283.636C69.0262 281.767 69.9694 280.591 71.3898 280.591C72.4694 280.591 73.1285 281.273 73.3103 282.091H74.9637C74.7819 280.33 73.3444 279.159 71.3614 279.159C68.9012 279.159 67.3103 281.011 67.3103 283.676C67.3103 286.307 68.8444 288.176 71.3785 288.176ZM79.3202 288.193C80.7634 288.193 81.5759 287.46 81.8998 286.807H81.968V288H83.6271V282.205C83.6271 279.665 81.6271 279.159 80.2407 279.159C78.6612 279.159 77.2066 279.795 76.6384 281.386L78.235 281.75C78.485 281.131 79.1214 280.534 80.2634 280.534C81.36 280.534 81.9225 281.108 81.9225 282.097V282.136C81.9225 282.756 81.2862 282.744 79.718 282.926C78.0646 283.119 76.3714 283.551 76.3714 285.534C76.3714 287.25 77.6612 288.193 79.3202 288.193ZM79.6896 286.83C78.7293 286.83 78.0362 286.398 78.0362 285.557C78.0362 284.648 78.843 284.324 79.8259 284.193C80.3771 284.119 81.6839 283.972 81.9282 283.727V284.852C81.9282 285.886 81.1043 286.83 79.6896 286.83ZM87.5887 282.818C87.5887 281.426 88.441 280.631 89.6228 280.631C90.7762 280.631 91.4751 281.386 91.4751 282.653V288H93.1739V282.449C93.1739 280.29 91.9864 279.159 90.2023 279.159C88.8898 279.159 88.0319 279.767 87.6285 280.693H87.5205V279.273H85.8898V288H87.5887V282.818ZM99.6867 288H101.386V279.273H99.6867V288ZM100.545 277.926C101.13 277.926 101.619 277.472 101.619 276.915C101.619 276.358 101.13 275.898 100.545 275.898C99.9538 275.898 99.4708 276.358 99.4708 276.915C99.4708 277.472 99.9538 277.926 100.545 277.926ZM105.37 282.818C105.37 281.426 106.222 280.631 107.404 280.631C108.557 280.631 109.256 281.386 109.256 282.653V288H110.955V282.449C110.955 280.29 109.768 279.159 107.984 279.159C106.671 279.159 105.813 279.767 105.41 280.693H105.302V279.273H103.671V288H105.37V282.818ZM117.307 279.273H115.518V277.182H113.819V279.273H112.54V280.636H113.819V285.79C113.813 287.375 115.023 288.142 116.364 288.114C116.904 288.108 117.268 288.006 117.467 287.932L117.16 286.528C117.046 286.551 116.836 286.602 116.563 286.602C116.012 286.602 115.518 286.42 115.518 285.438V280.636H117.307V279.273ZM119.187 288H120.886V282.67C120.886 281.528 121.766 280.705 122.971 280.705C123.323 280.705 123.721 280.767 123.857 280.807V279.182C123.687 279.159 123.351 279.142 123.136 279.142C122.113 279.142 121.238 279.722 120.92 280.659H120.829V279.273H119.187V288ZM128.691 288.176C131.151 288.176 132.759 286.375 132.759 283.676C132.759 280.96 131.151 279.159 128.691 279.159C126.231 279.159 124.623 280.96 124.623 283.676C124.623 286.375 126.231 288.176 128.691 288.176ZM128.697 286.75C127.089 286.75 126.339 285.347 126.339 283.67C126.339 282 127.089 280.58 128.697 280.58C130.293 280.58 131.043 282 131.043 283.67C131.043 285.347 130.293 286.75 128.697 286.75ZM137.923 288.17C139.513 288.17 140.138 287.199 140.445 286.642H140.587V288H142.246V276.364H140.548V280.688H140.445C140.138 280.148 139.559 279.159 137.934 279.159C135.826 279.159 134.275 280.824 134.275 283.653C134.275 286.477 135.803 288.17 137.923 288.17ZM138.298 286.722C136.78 286.722 135.991 285.386 135.991 283.636C135.991 281.903 136.763 280.602 138.298 280.602C139.78 280.602 140.576 281.812 140.576 283.636C140.576 285.472 139.763 286.722 138.298 286.722ZM150.2 284.381C150.205 285.864 149.103 286.568 148.148 286.568C147.097 286.568 146.37 285.807 146.37 284.619V279.273H144.671V284.824C144.671 286.989 145.859 288.114 147.535 288.114C148.847 288.114 149.739 287.42 150.143 286.489H150.234V288H151.904V279.273H150.2V284.381ZM157.863 288.176C159.925 288.176 161.261 286.938 161.448 285.239H159.795C159.579 286.182 158.846 286.739 157.874 286.739C156.437 286.739 155.511 285.54 155.511 283.636C155.511 281.767 156.454 280.591 157.874 280.591C158.954 280.591 159.613 281.273 159.795 282.091H161.448C161.266 280.33 159.829 279.159 157.846 279.159C155.386 279.159 153.795 281.011 153.795 283.676C153.795 286.307 155.329 288.176 157.863 288.176ZM167.026 288.176C168.93 288.176 170.276 287.239 170.663 285.818L169.055 285.528C168.748 286.352 168.009 286.773 167.043 286.773C165.589 286.773 164.611 285.83 164.566 284.148H170.771V283.545C170.771 280.392 168.884 279.159 166.907 279.159C164.475 279.159 162.873 281.011 162.873 283.693C162.873 286.403 164.452 288.176 167.026 288.176ZM164.572 282.875C164.64 281.636 165.538 280.562 166.918 280.562C168.236 280.562 169.1 281.54 169.106 282.875H164.572ZM177.964 291.25C179.367 291.25 180.259 290.517 180.759 289.165L184.367 279.29L182.532 279.273L180.322 286.045H180.231L178.021 279.273H176.202L179.396 288.114L179.185 288.693C178.753 289.824 178.146 289.926 177.214 289.67L176.805 291.062C177.009 291.159 177.452 291.25 177.964 291.25ZM189.332 288.176C191.792 288.176 193.4 286.375 193.4 283.676C193.4 280.96 191.792 279.159 189.332 279.159C186.871 279.159 185.263 280.96 185.263 283.676C185.263 286.375 186.871 288.176 189.332 288.176ZM189.337 286.75C187.729 286.75 186.979 285.347 186.979 283.67C186.979 282 187.729 280.58 189.337 280.58C190.934 280.58 191.684 282 191.684 283.67C191.684 285.347 190.934 286.75 189.337 286.75ZM200.825 284.381C200.83 285.864 199.728 286.568 198.773 286.568C197.722 286.568 196.995 285.807 196.995 284.619V279.273H195.296V284.824C195.296 286.989 196.484 288.114 198.16 288.114C199.472 288.114 200.364 287.42 200.768 286.489H200.859V288H202.529V279.273H200.825V284.381ZM213.12 279.273H211.33V277.182H209.631V279.273H208.353V280.636H209.631V285.79C209.626 287.375 210.836 288.142 212.177 288.114C212.717 288.108 213.08 288.006 213.279 287.932L212.972 286.528C212.859 286.551 212.648 286.602 212.376 286.602C211.825 286.602 211.33 286.42 211.33 285.438V280.636H213.12V279.273ZM218.582 288.176C221.042 288.176 222.65 286.375 222.65 283.676C222.65 280.96 221.042 279.159 218.582 279.159C216.121 279.159 214.513 280.96 214.513 283.676C214.513 286.375 216.121 288.176 218.582 288.176ZM218.587 286.75C216.979 286.75 216.229 285.347 216.229 283.67C216.229 282 216.979 280.58 218.587 280.58C220.184 280.58 220.934 282 220.934 283.67C220.934 285.347 220.184 286.75 218.587 286.75ZM228.78 291.273H230.479V286.642H230.582C230.888 287.199 231.513 288.17 233.104 288.17C235.218 288.17 236.752 286.477 236.752 283.653C236.752 280.824 235.195 279.159 233.087 279.159C231.468 279.159 230.883 280.148 230.582 280.688H230.44V279.273H228.78V291.273ZM230.445 283.636C230.445 281.812 231.241 280.602 232.724 280.602C234.263 280.602 235.036 281.903 235.036 283.636C235.036 285.386 234.241 286.722 232.724 286.722C231.263 286.722 230.445 285.472 230.445 283.636ZM242.417 288.176C244.32 288.176 245.667 287.239 246.053 285.818L244.445 285.528C244.138 286.352 243.4 286.773 242.434 286.773C240.979 286.773 240.002 285.83 239.957 284.148H246.161V283.545C246.161 280.392 244.275 279.159 242.298 279.159C239.866 279.159 238.263 281.011 238.263 283.693C238.263 286.403 239.843 288.176 242.417 288.176ZM239.962 282.875C240.03 281.636 240.928 280.562 242.309 280.562C243.627 280.562 244.491 281.54 244.496 282.875H239.962ZM251.722 288.176C254.182 288.176 255.79 286.375 255.79 283.676C255.79 280.96 254.182 279.159 251.722 279.159C249.262 279.159 247.654 280.96 247.654 283.676C247.654 286.375 249.262 288.176 251.722 288.176ZM251.728 286.75C250.12 286.75 249.37 285.347 249.37 283.67C249.37 282 250.12 280.58 251.728 280.58C253.325 280.58 254.075 282 254.075 283.67C254.075 285.347 253.325 286.75 251.728 286.75ZM257.687 291.273H259.386V286.642H259.488C259.795 287.199 260.42 288.17 262.011 288.17C264.124 288.17 265.658 286.477 265.658 283.653C265.658 280.824 264.101 279.159 261.994 279.159C260.374 279.159 259.789 280.148 259.488 280.688H259.346V279.273H257.687V291.273ZM259.351 283.636C259.351 281.812 260.147 280.602 261.63 280.602C263.17 280.602 263.942 281.903 263.942 283.636C263.942 285.386 263.147 286.722 261.63 286.722C260.17 286.722 259.351 285.472 259.351 283.636ZM269.261 276.364H267.562V288H269.261V276.364ZM275.307 288.176C277.211 288.176 278.557 287.239 278.944 285.818L277.336 285.528C277.029 286.352 276.29 286.773 275.325 286.773C273.87 286.773 272.893 285.83 272.847 284.148H279.052V283.545C279.052 280.392 277.165 279.159 275.188 279.159C272.756 279.159 271.154 281.011 271.154 283.693C271.154 286.403 272.734 288.176 275.307 288.176ZM272.853 282.875C272.921 281.636 273.819 280.562 275.2 280.562C276.518 280.562 277.381 281.54 277.387 282.875H272.853ZM285.171 288H286.87V279.273H285.171V288ZM286.029 277.926C286.614 277.926 287.103 277.472 287.103 276.915C287.103 276.358 286.614 275.898 286.029 275.898C285.438 275.898 284.955 276.358 284.955 276.915C284.955 277.472 285.438 277.926 286.029 277.926ZM290.854 282.818C290.854 281.426 291.707 280.631 292.888 280.631C294.042 280.631 294.741 281.386 294.741 282.653V288H296.44V282.449C296.44 280.29 295.252 279.159 293.468 279.159C292.155 279.159 291.298 279.767 290.894 280.693H290.786V279.273H289.155V288H290.854V282.818ZM63.2293 311.273H61.4396V309.182H59.7407V311.273H58.4623V312.636H59.7407V317.79C59.735 319.375 60.9452 320.142 62.2862 320.114C62.8259 320.108 63.1896 320.006 63.3884 319.932L63.0816 318.528C62.968 318.551 62.7577 318.602 62.485 318.602C61.9339 318.602 61.4396 318.42 61.4396 317.438V312.636H63.2293V311.273ZM66.995 314.818C66.995 313.426 67.8756 312.631 69.0859 312.631C70.2563 312.631 70.9552 313.375 70.9552 314.653V320H72.6541V314.449C72.6541 312.273 71.4609 311.159 69.6654 311.159C68.3075 311.159 67.4893 311.75 67.0802 312.693H66.9722V308.364H65.2961V320H66.995V314.818ZM78.6825 320.176C80.5859 320.176 81.9325 319.239 82.3188 317.818L80.7109 317.528C80.4041 318.352 79.6654 318.773 78.6995 318.773C77.245 318.773 76.2677 317.83 76.2222 316.148H82.4268V315.545C82.4268 312.392 80.5404 311.159 78.5631 311.159C76.1313 311.159 74.5291 313.011 74.5291 315.693C74.5291 318.403 76.1086 320.176 78.6825 320.176ZM76.2279 314.875C76.2961 313.636 77.1938 312.562 78.5745 312.562C79.8927 312.562 80.7563 313.54 80.762 314.875H76.2279ZM92.6995 311.273H90.8188V310.489C90.8188 309.716 91.137 309.295 91.9666 309.295C92.3188 309.295 92.5688 309.375 92.7279 309.426L93.1256 308.051C92.887 307.96 92.3927 307.818 91.7052 307.818C90.3245 307.818 89.1143 308.625 89.1143 310.261V311.273H87.7677V312.636H89.1143V320H90.8188V312.636H92.6995V311.273ZM94.4523 320H96.1512V311.273H94.4523V320ZM95.3103 309.926C95.8955 309.926 96.3842 309.472 96.3842 308.915C96.3842 308.358 95.8955 307.898 95.3103 307.898C94.7194 307.898 94.2364 308.358 94.2364 308.915C94.2364 309.472 94.7194 309.926 95.3103 309.926ZM102.198 320.176C104.101 320.176 105.448 319.239 105.834 317.818L104.226 317.528C103.92 318.352 103.181 318.773 102.215 318.773C100.761 318.773 99.7833 317.83 99.7379 316.148H105.942V315.545C105.942 312.392 104.056 311.159 102.079 311.159C99.647 311.159 98.0447 313.011 98.0447 315.693C98.0447 318.403 99.6242 320.176 102.198 320.176ZM99.7435 314.875C99.8117 313.636 100.709 312.562 102.09 312.562C103.408 312.562 104.272 313.54 104.278 314.875H99.7435ZM109.526 308.364H107.827V320H109.526V308.364ZM115.079 320.17C116.67 320.17 117.295 319.199 117.601 318.642H117.744V320H119.403V308.364H117.704V312.688H117.601C117.295 312.148 116.715 311.159 115.09 311.159C112.982 311.159 111.431 312.824 111.431 315.653C111.431 318.477 112.959 320.17 115.079 320.17ZM115.454 318.722C113.937 318.722 113.147 317.386 113.147 315.636C113.147 313.903 113.92 312.602 115.454 312.602C116.937 312.602 117.732 313.812 117.732 315.636C117.732 317.472 116.92 318.722 115.454 318.722ZM130.136 311.273H128.346V309.182H126.647V311.273H125.369V312.636H126.647V317.79C126.641 319.375 127.851 320.142 129.192 320.114C129.732 320.108 130.096 320.006 130.295 319.932L129.988 318.528C129.874 318.551 129.664 318.602 129.391 318.602C128.84 318.602 128.346 318.42 128.346 317.438V312.636H130.136V311.273ZM133.901 314.818C133.901 313.426 134.782 312.631 135.992 312.631C137.163 312.631 137.861 313.375 137.861 314.653V320H139.56V314.449C139.56 312.273 138.367 311.159 136.572 311.159C135.214 311.159 134.396 311.75 133.986 312.693H133.878V308.364H132.202V320H133.901V314.818ZM144.367 320.193C145.81 320.193 146.623 319.46 146.947 318.807H147.015V320H148.674V314.205C148.674 311.665 146.674 311.159 145.288 311.159C143.708 311.159 142.253 311.795 141.685 313.386L143.282 313.75C143.532 313.131 144.168 312.534 145.31 312.534C146.407 312.534 146.969 313.108 146.969 314.097V314.136C146.969 314.756 146.333 314.744 144.765 314.926C143.111 315.119 141.418 315.551 141.418 317.534C141.418 319.25 142.708 320.193 144.367 320.193ZM144.736 318.83C143.776 318.83 143.083 318.398 143.083 317.557C143.083 316.648 143.89 316.324 144.873 316.193C145.424 316.119 146.731 315.972 146.975 315.727V316.852C146.975 317.886 146.151 318.83 144.736 318.83ZM155.011 311.273H153.221V309.182H151.522V311.273H150.244V312.636H151.522V317.79C151.516 319.375 152.726 320.142 154.067 320.114C154.607 320.108 154.971 320.006 155.17 319.932L154.863 318.528C154.749 318.551 154.539 318.602 154.266 318.602C153.715 318.602 153.221 318.42 153.221 317.438V312.636H155.011V311.273ZM164.8 320.176C166.863 320.176 168.198 318.938 168.386 317.239H166.732C166.516 318.182 165.783 318.739 164.812 318.739C163.374 318.739 162.448 317.54 162.448 315.636C162.448 313.767 163.391 312.591 164.812 312.591C165.891 312.591 166.55 313.273 166.732 314.091H168.386C168.204 312.33 166.766 311.159 164.783 311.159C162.323 311.159 160.732 313.011 160.732 315.676C160.732 318.307 162.266 320.176 164.8 320.176ZM173.878 320.176C176.339 320.176 177.947 318.375 177.947 315.676C177.947 312.96 176.339 311.159 173.878 311.159C171.418 311.159 169.81 312.96 169.81 315.676C169.81 318.375 171.418 320.176 173.878 320.176ZM173.884 318.75C172.276 318.75 171.526 317.347 171.526 315.67C171.526 314 172.276 312.58 173.884 312.58C175.481 312.58 176.231 314 176.231 315.67C176.231 317.347 175.481 318.75 173.884 318.75ZM185.371 316.381C185.377 317.864 184.275 318.568 183.32 318.568C182.269 318.568 181.542 317.807 181.542 316.619V311.273H179.843V316.824C179.843 318.989 181.03 320.114 182.707 320.114C184.019 320.114 184.911 319.42 185.315 318.489H185.405V320H187.076V311.273H185.371V316.381ZM191.057 308.364H189.359V320H191.057V308.364ZM196.61 320.17C198.201 320.17 198.826 319.199 199.133 318.642H199.275V320H200.934V308.364H199.235V312.688H199.133C198.826 312.148 198.246 311.159 196.621 311.159C194.513 311.159 192.962 312.824 192.962 315.653C192.962 318.477 194.491 320.17 196.61 320.17ZM196.985 318.722C195.468 318.722 194.678 317.386 194.678 315.636C194.678 313.903 195.451 312.602 196.985 312.602C198.468 312.602 199.263 313.812 199.263 315.636C199.263 317.472 198.451 318.722 196.985 318.722ZM209.292 314.818C209.292 313.426 210.173 312.631 211.383 312.631C212.553 312.631 213.252 313.375 213.252 314.653V320H214.951V314.449C214.951 312.273 213.758 311.159 211.962 311.159C210.604 311.159 209.786 311.75 209.377 312.693H209.269V308.364H207.593V320H209.292V314.818ZM220.979 320.176C222.883 320.176 224.229 319.239 224.616 317.818L223.008 317.528C222.701 318.352 221.962 318.773 220.996 318.773C219.542 318.773 218.565 317.83 218.519 316.148H224.724V315.545C224.724 312.392 222.837 311.159 220.86 311.159C218.428 311.159 216.826 313.011 216.826 315.693C216.826 318.403 218.405 320.176 220.979 320.176ZM218.525 314.875C218.593 313.636 219.491 312.562 220.871 312.562C222.19 312.562 223.053 313.54 223.059 314.875H218.525ZM228.307 308.364H226.609V320H228.307V308.364ZM230.593 323.273H232.292V318.642H232.394C232.701 319.199 233.326 320.17 234.917 320.17C237.03 320.17 238.565 318.477 238.565 315.653C238.565 312.824 237.008 311.159 234.9 311.159C233.28 311.159 232.695 312.148 232.394 312.688H232.252V311.273H230.593V323.273ZM232.258 315.636C232.258 313.812 233.053 312.602 234.536 312.602C236.076 312.602 236.849 313.903 236.849 315.636C236.849 317.386 236.053 318.722 234.536 318.722C233.076 318.722 232.258 317.472 232.258 315.636ZM247.969 320.17C249.56 320.17 250.185 319.199 250.492 318.642H250.634V320H252.293V308.364H250.594V312.688H250.492C250.185 312.148 249.606 311.159 247.981 311.159C245.873 311.159 244.322 312.824 244.322 315.653C244.322 318.477 245.85 320.17 247.969 320.17ZM248.344 318.722C246.827 318.722 246.038 317.386 246.038 315.636C246.038 313.903 246.81 312.602 248.344 312.602C249.827 312.602 250.623 313.812 250.623 315.636C250.623 317.472 249.81 318.722 248.344 318.722ZM258.479 320.176C260.383 320.176 261.729 319.239 262.116 317.818L260.508 317.528C260.201 318.352 259.462 318.773 258.496 318.773C257.042 318.773 256.065 317.83 256.019 316.148H262.224V315.545C262.224 312.392 260.337 311.159 258.36 311.159C255.928 311.159 254.326 313.011 254.326 315.693C254.326 318.403 255.905 320.176 258.479 320.176ZM256.025 314.875C256.093 313.636 256.991 312.562 258.371 312.562C259.69 312.562 260.553 313.54 260.559 314.875H256.025ZM267.785 320.176C269.847 320.176 271.182 318.938 271.37 317.239H269.717C269.501 318.182 268.768 318.739 267.796 318.739C266.359 318.739 265.432 317.54 265.432 315.636C265.432 313.767 266.376 312.591 267.796 312.591C268.876 312.591 269.535 313.273 269.717 314.091H271.37C271.188 312.33 269.751 311.159 267.768 311.159C265.307 311.159 263.717 313.011 263.717 315.676C263.717 318.307 265.251 320.176 267.785 320.176ZM273.187 320H274.886V311.273H273.187V320ZM274.045 309.926C274.63 309.926 275.119 309.472 275.119 308.915C275.119 308.358 274.63 307.898 274.045 307.898C273.454 307.898 272.971 308.358 272.971 308.915C272.971 309.472 273.454 309.926 274.045 309.926ZM280.438 320.17C282.029 320.17 282.654 319.199 282.961 318.642H283.103V320H284.762V308.364H283.063V312.688H282.961C282.654 312.148 282.075 311.159 280.45 311.159C278.342 311.159 276.79 312.824 276.79 315.653C276.79 318.477 278.319 320.17 280.438 320.17ZM280.813 318.722C279.296 318.722 278.506 317.386 278.506 315.636C278.506 313.903 279.279 312.602 280.813 312.602C282.296 312.602 283.092 313.812 283.092 315.636C283.092 317.472 282.279 318.722 280.813 318.722ZM290.948 320.176C292.851 320.176 294.198 319.239 294.584 317.818L292.976 317.528C292.67 318.352 291.931 318.773 290.965 318.773C289.511 318.773 288.533 317.83 288.488 316.148H294.692V315.545C294.692 312.392 292.806 311.159 290.829 311.159C288.397 311.159 286.795 313.011 286.795 315.693C286.795 318.403 288.374 320.176 290.948 320.176ZM288.494 314.875C288.562 313.636 289.459 312.562 290.84 312.562C292.158 312.562 293.022 313.54 293.028 314.875H288.494ZM63.2293 343.273H61.4396V341.182H59.7407V343.273H58.4623V344.636H59.7407V349.79C59.735 351.375 60.9452 352.142 62.2862 352.114C62.8259 352.108 63.1896 352.006 63.3884 351.932L63.0816 350.528C62.968 350.551 62.7577 350.602 62.485 350.602C61.9339 350.602 61.4396 350.42 61.4396 349.438V344.636H63.2293V343.273ZM66.995 346.818C66.995 345.426 67.8756 344.631 69.0859 344.631C70.2563 344.631 70.9552 345.375 70.9552 346.653V352H72.6541V346.449C72.6541 344.273 71.4609 343.159 69.6654 343.159C68.3075 343.159 67.4893 343.75 67.0802 344.693H66.9722V340.364H65.2961V352H66.995V346.818ZM78.6825 352.176C80.5859 352.176 81.9325 351.239 82.3188 349.818L80.7109 349.528C80.4041 350.352 79.6654 350.773 78.6995 350.773C77.245 350.773 76.2677 349.83 76.2222 348.148H82.4268V347.545C82.4268 344.392 80.5404 343.159 78.5631 343.159C76.1313 343.159 74.5291 345.011 74.5291 347.693C74.5291 350.403 76.1086 352.176 78.6825 352.176ZM76.2279 346.875C76.2961 345.636 77.1938 344.562 78.5745 344.562C79.8927 344.562 80.7563 345.54 80.762 346.875H76.2279ZM88.5461 352H90.245V346.619C90.245 345.443 91.0688 344.625 92.0347 344.625C92.9779 344.625 93.6313 345.25 93.6313 346.199V352H95.3245V346.438C95.3245 345.386 95.9666 344.625 97.0745 344.625C97.9722 344.625 98.7109 345.125 98.7109 346.307V352H100.41V346.148C100.41 344.153 99.2961 343.159 97.7166 343.159C96.4609 343.159 95.5177 343.761 95.0972 344.693H95.0063C94.6256 343.739 93.8245 343.159 92.6597 343.159C91.5063 343.159 90.6484 343.733 90.2847 344.693H90.1768V343.273H88.5461V352ZM106.363 352.176C108.823 352.176 110.431 350.375 110.431 347.676C110.431 344.96 108.823 343.159 106.363 343.159C103.903 343.159 102.295 344.96 102.295 347.676C102.295 350.375 103.903 352.176 106.363 352.176ZM106.369 350.75C104.761 350.75 104.011 349.347 104.011 347.67C104.011 346 104.761 344.58 106.369 344.58C107.965 344.58 108.715 346 108.715 347.67C108.715 349.347 107.965 350.75 106.369 350.75ZM118.867 345.403C118.515 344.045 117.452 343.159 115.566 343.159C113.594 343.159 112.197 344.199 112.197 345.744C112.197 346.983 112.947 347.807 114.583 348.17L116.06 348.494C116.901 348.682 117.293 349.057 117.293 349.602C117.293 350.278 116.572 350.807 115.458 350.807C114.441 350.807 113.788 350.369 113.583 349.511L111.941 349.761C112.225 351.307 113.509 352.176 115.469 352.176C117.577 352.176 119.038 351.057 119.038 349.477C119.038 348.244 118.253 347.483 116.651 347.114L115.265 346.795C114.305 346.568 113.89 346.244 113.896 345.653C113.89 344.983 114.617 344.506 115.583 344.506C116.64 344.506 117.128 345.091 117.327 345.676L118.867 345.403ZM124.979 343.273H123.19V341.182H121.491V343.273H120.212V344.636H121.491V349.79C121.485 351.375 122.695 352.142 124.036 352.114C124.576 352.108 124.94 352.006 125.138 351.932L124.832 350.528C124.718 350.551 124.508 350.602 124.235 350.602C123.684 350.602 123.19 350.42 123.19 349.438V344.636H124.979V343.273ZM136.621 348.381C136.627 349.864 135.525 350.568 134.57 350.568C133.519 350.568 132.792 349.807 132.792 348.619V343.273H131.093V348.824C131.093 350.989 132.28 352.114 133.957 352.114C135.269 352.114 136.161 351.42 136.565 350.489H136.655V352H138.326V343.273H136.621V348.381ZM147.148 345.403C146.796 344.045 145.734 343.159 143.847 343.159C141.876 343.159 140.478 344.199 140.478 345.744C140.478 346.983 141.228 347.807 142.864 348.17L144.342 348.494C145.182 348.682 145.575 349.057 145.575 349.602C145.575 350.278 144.853 350.807 143.739 350.807C142.722 350.807 142.069 350.369 141.864 349.511L140.222 349.761C140.506 351.307 141.79 352.176 143.751 352.176C145.859 352.176 147.319 351.057 147.319 349.477C147.319 348.244 146.535 347.483 144.932 347.114L143.546 346.795C142.586 346.568 142.171 346.244 142.177 345.653C142.171 344.983 142.898 344.506 143.864 344.506C144.921 344.506 145.41 345.091 145.609 345.676L147.148 345.403ZM152.948 352.176C154.851 352.176 156.198 351.239 156.584 349.818L154.976 349.528C154.67 350.352 153.931 350.773 152.965 350.773C151.511 350.773 150.533 349.83 150.488 348.148H156.692V347.545C156.692 344.392 154.806 343.159 152.829 343.159C150.397 343.159 148.795 345.011 148.795 347.693C148.795 350.403 150.374 352.176 152.948 352.176ZM150.494 346.875C150.562 345.636 151.459 344.562 152.84 344.562C154.158 344.562 155.022 345.54 155.028 346.875H150.494ZM162.731 343.273H160.85V342.489C160.85 341.716 161.168 341.295 161.998 341.295C162.35 341.295 162.6 341.375 162.759 341.426L163.157 340.051C162.918 339.96 162.424 339.818 161.736 339.818C160.356 339.818 159.146 340.625 159.146 342.261V343.273H157.799V344.636H159.146V352H160.85V344.636H162.731V343.273ZM170.012 348.381C170.018 349.864 168.915 350.568 167.961 350.568C166.91 350.568 166.182 349.807 166.182 348.619V343.273H164.484V348.824C164.484 350.989 165.671 352.114 167.347 352.114C168.66 352.114 169.552 351.42 169.955 350.489H170.046V352H171.717V343.273H170.012V348.381ZM175.698 340.364H173.999V352H175.698V340.364ZM185.485 352.17C187.076 352.17 187.701 351.199 188.008 350.642H188.15V352H189.809V340.364H188.11V344.688H188.008C187.701 344.148 187.121 343.159 185.496 343.159C183.388 343.159 181.837 344.824 181.837 347.653C181.837 350.477 183.366 352.17 185.485 352.17ZM185.86 350.722C184.343 350.722 183.553 349.386 183.553 347.636C183.553 345.903 184.326 344.602 185.86 344.602C187.343 344.602 188.138 345.812 188.138 347.636C188.138 349.472 187.326 350.722 185.86 350.722ZM194.773 352.193C196.217 352.193 197.029 351.46 197.353 350.807H197.421V352H199.08V346.205C199.08 343.665 197.08 343.159 195.694 343.159C194.114 343.159 192.66 343.795 192.092 345.386L193.688 345.75C193.938 345.131 194.575 344.534 195.717 344.534C196.813 344.534 197.376 345.108 197.376 346.097V346.136C197.376 346.756 196.739 346.744 195.171 346.926C193.518 347.119 191.825 347.551 191.825 349.534C191.825 351.25 193.114 352.193 194.773 352.193ZM195.143 350.83C194.182 350.83 193.489 350.398 193.489 349.557C193.489 348.648 194.296 348.324 195.279 348.193C195.83 348.119 197.137 347.972 197.381 347.727V348.852C197.381 349.886 196.557 350.83 195.143 350.83ZM205.417 343.273H203.627V341.182H201.928V343.273H200.65V344.636H201.928V349.79C201.923 351.375 203.133 352.142 204.474 352.114C205.013 352.108 205.377 352.006 205.576 351.932L205.269 350.528C205.155 350.551 204.945 350.602 204.673 350.602C204.121 350.602 203.627 350.42 203.627 349.438V344.636H205.417V343.273ZM209.836 352.193C211.279 352.193 212.092 351.46 212.415 350.807H212.484V352H214.143V346.205C214.143 343.665 212.143 343.159 210.756 343.159C209.177 343.159 207.722 343.795 207.154 345.386L208.751 345.75C209.001 345.131 209.637 344.534 210.779 344.534C211.876 344.534 212.438 345.108 212.438 346.097V346.136C212.438 346.756 211.802 346.744 210.234 346.926C208.58 347.119 206.887 347.551 206.887 349.534C206.887 351.25 208.177 352.193 209.836 352.193ZM210.205 350.83C209.245 350.83 208.552 350.398 208.552 349.557C208.552 348.648 209.359 348.324 210.342 348.193C210.893 348.119 212.2 347.972 212.444 347.727V348.852C212.444 349.886 211.62 350.83 210.205 350.83ZM222.945 345.403C222.593 344.045 221.53 343.159 219.644 343.159C217.673 343.159 216.275 344.199 216.275 345.744C216.275 346.983 217.025 347.807 218.661 348.17L220.138 348.494C220.979 348.682 221.371 349.057 221.371 349.602C221.371 350.278 220.65 350.807 219.536 350.807C218.519 350.807 217.866 350.369 217.661 349.511L216.019 349.761C216.303 351.307 217.587 352.176 219.548 352.176C221.655 352.176 223.116 351.057 223.116 349.477C223.116 348.244 222.332 347.483 220.729 347.114L219.343 346.795C218.383 346.568 217.968 346.244 217.974 345.653C217.968 344.983 218.695 344.506 219.661 344.506C220.718 344.506 221.207 345.091 221.405 345.676L222.945 345.403ZM228.745 352.176C230.648 352.176 231.995 351.239 232.381 349.818L230.773 349.528C230.467 350.352 229.728 350.773 228.762 350.773C227.307 350.773 226.33 349.83 226.285 348.148H232.489V347.545C232.489 344.392 230.603 343.159 228.626 343.159C226.194 343.159 224.592 345.011 224.592 347.693C224.592 350.403 226.171 352.176 228.745 352.176ZM226.29 346.875C226.359 345.636 227.256 344.562 228.637 344.562C229.955 344.562 230.819 345.54 230.825 346.875H226.29ZM238.448 343.273H236.658V341.182H234.959V343.273H233.681V344.636H234.959V349.79C234.954 351.375 236.164 352.142 237.505 352.114C238.045 352.108 238.408 352.006 238.607 351.932L238.3 350.528C238.187 350.551 237.976 350.602 237.704 350.602C237.153 350.602 236.658 350.42 236.658 349.438V344.636H238.448V343.273Z" fill="white"/>
<circle cx="71.8732" cy="234.574" r="14.2446" fill="white"/>
<circle cx="71.8733" cy="234.574" r="6.78273" stroke="#4475E6" stroke-width="4"/>
<path d="M65.6438 243.295H78.1028V257L71.8733 252.639L65.6438 257V243.295Z" fill="white"/>
<defs>
<linearGradient id="paint0_linear" x1="179.275" y1="215.551" x2="179.275" y2="388.524" gradientUnits="userSpaceOnUse">
<stop stop-color="#4172E4"/>
<stop offset="1" stop-color="#5F8DF7"/>
</linearGradient>
</defs>
</svg>
