<svg width="37" height="36" viewBox="0 0 37 36" fill="none" xmlns="http://www.w3.org/2000/svg">
<path d="M13.4091 10.3724V22.6545L11.1218 18.1431C10.6203 17.1538 9.45559 16.6992 8.41653 17.0872C7.5647 17.4053 7 18.2309 7 19.1401C7 19.4092 7.04934 19.6791 7.14557 19.9304L9.92961 27.199C10.2658 28.0768 10.7831 28.874 11.4479 29.5388C12.7036 30.7945 14.4068 31.5 16.1827 31.5H21.6798C23.1524 31.5 24.5647 30.915 25.6059 29.8738C26.6472 28.8325 27.2322 27.4202 27.2322 25.9477V12.5407C27.2322 10.7444 25.776 9.28826 23.9797 9.28826C23.9797 7.89114 22.8471 6.75855 21.45 6.75855H20.4562V6.21659C20.4562 5.26854 19.6876 4.5 18.7396 4.5C17.7915 4.5 17.023 5.26854 17.023 6.21659V6.75855C15.0271 6.75855 13.4091 8.37653 13.4091 10.3724Z" fill="#13133A"/>
<path d="M20.4562 17.4134V6.75855M20.4562 6.75855V6.21659C20.4562 5.26854 19.6876 4.5 18.7396 4.5V4.5C17.7915 4.5 17.023 5.26854 17.023 6.21659V17.4134V6.75855V6.75855C15.0271 6.75855 13.4091 8.37653 13.4091 10.3724V22.6545L11.1218 18.1431C10.6203 17.1538 9.45559 16.6992 8.41653 17.0872V17.0872C7.5647 17.4053 7 18.2309 7 19.1401V19.1401C7 19.4092 7.04934 19.6791 7.14557 19.9304L9.92961 27.199C10.2658 28.0768 10.7831 28.874 11.4479 29.5388V29.5388C12.7036 30.7945 14.4068 31.5 16.1827 31.5H21.6798C23.1524 31.5 24.5647 30.915 25.6059 29.8738V29.8738C26.6472 28.8325 27.2322 27.4202 27.2322 25.9477V12.5407C27.2322 10.7444 25.776 9.28826 23.9797 9.28826V9.28826M20.4562 6.75855H21.45C22.8471 6.75855 23.9797 7.89114 23.9797 9.28826V9.28826M23.9797 17.4134V9.28826" stroke="#F5F7FB"/>
</svg>
