<svg width="464" height="264" viewBox="0 0 464 264" fill="none" xmlns="http://www.w3.org/2000/svg">
<rect width="464" height="264" rx="6" fill="#F5F7FB"/>
<path d="M230.212 14V248" stroke="#E5EBF7"/>
<path d="M344.461 14V248" stroke="#E5EBF7"/>
<path d="M86.7139 14V248" stroke="#E5EBF7"/>
<path d="M449.22 147.005L11.7794 147.005" stroke="#E5EBF7"/>
<path d="M449.22 234.517L11.7794 234.517" stroke="#E5EBF7"/>
<path d="M201.2 14V248" stroke="#E5EBF7"/>
<path d="M315.449 14V248" stroke="#E5EBF7"/>
<path d="M57.7019 14V248" stroke="#E5EBF7"/>
<path d="M287.449 14L287.449 248" stroke="#E5EBF7"/>
<path d="M401.698 14L401.698 248" stroke="#E5EBF7"/>
<path d="M431.063 14L431.063 248" stroke="#E5EBF7"/>
<path d="M143.951 14V248" stroke="#E5EBF7"/>
<path d="M449.221 117.993L11.7798 117.993" stroke="#E5EBF7"/>
<path d="M449.221 58.5416L11.7798 58.5416" stroke="#E5EBF7"/>
<path d="M449.221 205.505L11.7798 205.505" stroke="#E5EBF7"/>
<path d="M172.2 14V248" stroke="#E5EBF7"/>
<path d="M28.7019 14V248" stroke="#E5EBF7"/>
<path d="M258.449 14V248" stroke="#E5EBF7"/>
<path d="M372.698 14V248" stroke="#E5EBF7"/>
<path d="M114.951 14V248" stroke="#E5EBF7"/>
<path d="M449.221 88.9927L11.7798 88.9927" stroke="#E5EBF7"/>
<path d="M449.221 29.5416L11.7798 29.5416" stroke="#E5EBF7"/>
<path d="M449.221 176.505L11.7798 176.505" stroke="#E5EBF7"/>
<circle cx="201.212" cy="88.7427" r="14.5" stroke="#E5EBF6"/>
<circle cx="201.212" cy="117.743" r="14.5" stroke="#E5EBF6"/>
<circle cx="201.212" cy="147.243" r="14.5" stroke="#E5EBF6"/>
<circle cx="230.212" cy="88.7427" r="14.5" stroke="#E5EBF6"/>
<circle cx="230.212" cy="117.743" r="14.5" stroke="#E5EBF6"/>
<circle cx="230.212" cy="147.243" r="14.5" stroke="#E5EBF6"/>
<circle cx="259.212" cy="88.7427" r="14.5" stroke="#E5EBF6"/>
<circle cx="259.212" cy="117.743" r="14.5" stroke="#E5EBF6"/>
<circle cx="259.212" cy="147.243" r="14.5" stroke="#E5EBF6"/>
</svg>
