<svg width="1024" height="487" viewBox="0 0 1024 487" fill="none" xmlns="http://www.w3.org/2000/svg">
<path d="M222.953 302.251C222.953 295.624 228.326 290.251 234.953 290.251H987.097V439H222.953V302.251Z" fill="#5F8DF7"/>
<path d="M0.717773 451C0.717773 444.373 6.09036 439 12.7178 439H458V487H0.717773V451Z" fill="#A7D2FB"/>
<path d="M421.021 157.656C421.021 151.029 426.394 145.656 433.021 145.656H987.097V291H421.021V157.656Z" fill="#5F8DF7"/>
<path d="M637.659 12.5C637.659 5.87259 643.031 0.5 649.659 0.5H987.098V147.613H637.659V12.5Z" fill="#5F8DF7"/>
<path d="M587.098 296.251C587.098 292.938 589.784 290.251 593.098 290.251H1024V439H587.098V296.251Z" fill="#2E4885"/>
<path d="M745.385 151.656C745.385 148.343 748.072 145.656 751.385 145.656H1024.57V291H745.385V151.656Z" fill="#2E4885"/>
<path d="M865.442 6.50001C865.442 3.1863 868.129 0.5 871.442 0.5H1024V147.613H865.442V6.50001Z" fill="#2E4885"/>
<rect x="318.217" y="167.99" width="12.735" height="12.735" transform="rotate(45 318.217 167.99)" fill="#F7CD98"/>
<path d="M318.303 168.076L309.383 176.995L318.303 185.914V176.995V168.076Z" fill="#F08D67"/>
<rect x="490.931" y="127" width="38.8357" height="18.6562" fill="#A7D2FB"/>
<rect x="529.766" y="127" width="39.4773" height="18.6562" fill="#5F8DF7"/>
<rect width="25" height="34" transform="matrix(-1 0 0 1 542.266 102.537)" fill="#A7D2FB"/>
<rect width="12.5" height="34" transform="matrix(-1 0 0 1 542.266 104.5)" fill="#5F8DF7"/>
<path d="M437.098 29.8023C437.098 46.4888 450.625 60.0159 467.311 60.0159L472.266 60.0159L472.266 29.8023L437.098 29.8023V29.8023Z" fill="#5F8DF7"/>
<path d="M587.266 58C587.266 89.7564 561.522 115.5 529.766 115.5V115.5C498.01 115.5 472.266 89.7564 472.266 58L472.266 0.500011L587.266 0.500021L587.266 58Z" fill="#A7D2FB"/>
<path d="M587.266 58C587.266 89.7564 561.522 115.5 529.766 115.5V115.5L529.766 0.500018L587.266 0.500023L587.266 58Z" fill="#5F8DF7"/>
<path d="M622.435 29.8023C622.435 46.4888 608.908 60.0159 592.221 60.0159L587.266 60.0159L570.295 60.0159L570.295 29.8023L622.435 29.8023V29.8023Z" fill="#2E4885"/>
<rect x="272.435" y="225.02" width="25.7059" height="11.6809" fill="#5F8DF7"/>
<path d="M293.628 279L318.44 279V291H293.628V279Z" fill="#A7D2FB"/>
<path d="M311.551 261.372L325.017 261.372V285H311.551V261.372Z" fill="#A7D2FB"/>
<path d="M318.284 261.372L325.395 261.372V285H318.284V261.372Z" fill="#5F8DF7"/>
<path d="M318.44 279L343.752 279V291H318.44V285V279Z" fill="#5F8DF7"/>
<path d="M351.145 236.444C351.145 254.63 336.402 269.373 318.217 269.373V269.373C300.031 269.373 285.288 254.63 285.288 236.444L285.288 198.701L351.145 198.701L351.145 236.444Z" fill="#A7D2FB"/>
<path d="M351.145 236.444C351.145 254.63 336.402 269.373 318.217 269.373V269.373L318.217 198.701L351.145 198.701L351.145 236.444Z" fill="#5F8DF7"/>
<rect x="338.713" y="225.02" width="25.7059" height="11.6809" fill="#2E4885"/>
<path d="M417.679 439H1024V487H417.679V439Z" fill="#2E4885"/>
</svg>
