<svg width="520" height="343" viewBox="0 0 520 343" fill="none" xmlns="http://www.w3.org/2000/svg">
<path d="M241.185 157.801V157.801C241.185 171.608 252.378 182.801 266.185 182.801L315.115 182.801L315.115 157.801L241.185 157.801Z" fill="#5F8DF7"/>
<rect x="332.519" y="302.5" width="50" height="40" fill="#A7D2FB"/>
<rect x="382.519" y="302.5" width="50" height="40" fill="#5F8DF7"/>
<rect width="25" height="34" transform="matrix(-1 0 0 1 395.019 268.537)" fill="#A7D2FB"/>
<rect width="12.5" height="34" transform="matrix(-1 0 0 1 395.019 268.537)" fill="#5F8DF7"/>
<rect width="35.8911" height="35.8911" transform="matrix(-0.707107 0.707107 0.707107 0.707107 197.819 0.277344)" fill="#F7CD98"/>
<path d="M197.819 0.277344L223.198 25.6562L197.819 51.035V25.6562V0.277344Z" fill="#F08D67"/>
<rect width="24" height="24" transform="matrix(-0.707107 0.707107 0.707107 0.707107 197.288 106.044)" fill="#F7CD98"/>
<rect width="32.2185" height="32.2185" transform="matrix(-0.707107 0.707107 0.707107 0.707107 156.176 55.7578)" fill="#F7CD98"/>
<rect width="12.735" height="12.735" transform="matrix(-0.707107 0.707107 0.707107 0.707107 187.964 182.802)" fill="#F7CD98"/>
<rect width="20.2771" height="20.2771" transform="matrix(-0.707107 0.707107 0.707107 0.707107 156.075 140.706)" fill="#F7CD98"/>
<path d="M156.019 55.6001L133.08 78.5396L156.019 101.479V78.5396V55.6001Z" fill="#F08D67"/>
<path d="M197.27 106.044L214.223 122.997L197.27 139.95V122.997V106.044Z" fill="#F08D67"/>
<path d="M156.019 140.762L141.737 155.044L156.019 169.326V155.044V140.762Z" fill="#F08D67"/>
<path d="M187.878 182.888L196.798 191.807L187.878 200.726V191.807V182.888Z" fill="#F08D67"/>
<rect x="17.8735" y="221.153" width="24" height="24" transform="rotate(45 17.8735 221.153)" fill="#F7CD98"/>
<rect x="27.1978" y="297.911" width="12.735" height="12.735" transform="rotate(45 27.1978 297.911)" fill="#F7CD98"/>
<rect x="59.0864" y="255.815" width="20.2771" height="20.2771" transform="rotate(45 59.0864 255.815)" fill="#F7CD98"/>
<path d="M17.8921 221.153L0.938718 238.106L17.8921 255.06V238.106V221.153Z" fill="#F08D67"/>
<path d="M59.1431 255.871L73.4249 270.153L59.1431 284.435V270.153V255.871Z" fill="#F08D67"/>
<path d="M27.2837 297.997L18.3643 306.916L27.2837 315.836V306.916V297.997Z" fill="#F08D67"/>
<path d="M265.585 182.802C265.585 201.547 280.781 216.743 299.526 216.743H300.754L300.754 182.802L265.585 182.802V182.802Z" fill="#5F8DF7"/>
<path d="M482.519 181.5C482.519 236.728 437.747 281.5 382.519 281.5V281.5C327.29 281.5 282.519 236.728 282.519 181.5L282.519 81.5L482.519 81.5L482.519 181.5Z" fill="#A7D2FB"/>
<path d="M482.519 181.5C482.519 236.728 437.747 281.5 382.519 281.5V281.5L382.519 81.5L482.519 81.5L482.519 181.5Z" fill="#5F8DF7"/>
<path d="M519.991 157.801V157.801C519.991 171.608 508.798 182.801 494.991 182.801L446.06 182.801L446.06 157.801L519.991 157.801Z" fill="#2E4885"/>
<path d="M481.23 182.802C481.23 201.547 466.034 216.743 447.288 216.743H446.061L446.061 182.802L481.23 182.802V182.802Z" fill="#2E4885"/>
</svg>
