<svg width="317" height="508" viewBox="0 0 317 508" fill="none" xmlns="http://www.w3.org/2000/svg">
<path d="M252.025 214.811V195.067H265.058C266.504 195.067 267.676 193.895 267.676 192.449C267.676 191.003 268.848 189.831 270.293 189.831H283.287V210.623H270.424C269.267 210.623 268.33 211.56 268.33 212.717C268.33 213.874 267.392 214.811 266.236 214.811H252.025Z" fill="#4BD89D"/>
<rect x="280.176" y="210.322" width="3.11094" height="21.3684" fill="#4BD89D"/>
<path d="M291.04 234.056L316.696 506.968H233.616L252.951 289.448C254.867 267.9 262.578 247.271 275.267 229.75C279.994 223.223 290.285 226.033 291.04 234.056Z" fill="#5F8DF7"/>
<path d="M298.976 316.75L316.696 506.968L224.667 506.968L298.976 316.75Z" fill="#2E4885"/>
<path d="M257.657 415.577L241.419 405.513C220.961 392.834 194.015 401.53 184.828 423.775L150.468 506.967H315.705L294.815 458.635C287.117 440.825 274.149 425.798 257.657 415.577Z" fill="#4BD89D"/>
<path d="M315.705 506.967L291.074 449.138C287.948 441.798 282.855 435.463 276.358 430.833L244.083 506.967L315.705 506.967Z" fill="#41A492"/>
<mask id="mask0" mask-type="alpha" maskUnits="userSpaceOnUse" x="233" y="226" width="84" height="281">
<path d="M291.211 234.056L316.867 506.968H233.787L253.122 289.448C255.038 267.9 262.749 247.271 275.438 229.75C280.165 223.223 290.456 226.033 291.211 234.056Z" fill="#5F8DF7"/>
</mask>
<g mask="url(#mask0)">
</g>
<mask id="mask1" mask-type="alpha" maskUnits="userSpaceOnUse" x="233" y="229" width="84" height="278">
<path d="M291.672 238.967L316.867 506.968H275.327H233.787L253.559 284.535C255.189 266.202 261.749 248.652 272.545 233.745C278.277 225.83 290.757 229.237 291.672 238.967Z" fill="#5F8DF7"/>
</mask>
<g mask="url(#mask1)">
<path d="M304.154 281.704C284.264 280.429 257.689 291.63 254.799 315.217C253.49 325.894 261.19 338.076 269.106 344.937C277.572 352.275 306.437 362.558 307.162 390.094" stroke="black" stroke-width="0.5"/>
<path d="M244.052 376.473C265.455 390.588 309.203 427.951 312.967 464.484" stroke="black" stroke-width="0.5"/>
<path d="M233.787 390.188C257.236 397.392 312.507 454.961 316.74 496.043" stroke="black" stroke-width="0.5"/>
<path d="M305.524 270.572C279.714 269.055 246.727 281.778 242.977 309.848C242.976 339.23 248.782 341.773 257.818 351.086C269.112 362.727 308.486 378.404 309.427 411.173" stroke="black" stroke-width="0.5"/>
<path d="M299.055 254.456C268.23 260.001 235.119 278.659 230.759 312.254C228.785 327.461 232.922 345.924 243.424 357.07C256.552 371.002 311.564 401.411 312.658 440.63" stroke="black" stroke-width="0.5"/>
<path d="M270.673 233.747C272.605 236.598 279.67 241.86 292.474 240.094M260.508 241.146C263.258 243.209 270.517 247.636 277.556 248.846C284.596 250.056 294.421 248.8 298.454 248.021" stroke="black" stroke-width="0.5"/>
<path d="M307.637 291.835C291.29 290.905 268.516 299.08 266.141 316.295C265.065 324.088 272.293 333.765 278.896 338.431C285.327 342.975 309.514 354.91 310.11 375.008" stroke="black" stroke-width="0.5"/>
<path d="M309.833 299.395C295.923 300.026 281.803 306.202 279.811 317.886C278.807 323.777 280.22 329.222 285.563 333.54C290.861 337.821 306.723 343.565 313.944 358.344" stroke="black" stroke-width="0.5"/>
<path d="M313.762 306.646C304.427 306.192 293.866 310.185 292.51 318.593C291.896 322.399 293.183 327.021 296.451 329.81C300.536 333.297 314.833 337.453 315.174 347.269" stroke="black" stroke-width="0.5"/>
</g>
<mask id="mask2" mask-type="alpha" maskUnits="userSpaceOnUse" x="151" y="399" width="166" height="108">
<path d="M258.639 415.109L242.402 405.045C221.944 392.366 194.998 401.062 185.81 423.307L151.45 506.499H316.687L295.797 458.167C288.099 440.357 275.132 425.33 258.639 415.109Z" fill="#4BD89D"/>
</mask>
<g mask="url(#mask2)">
<path d="M168.192 429.539L276.016 537.362" stroke="black" stroke-width="0.5"/>
<path d="M141.491 458.957L249.314 566.78" stroke="black" stroke-width="0.5"/>
<path d="M106.682 481.908L214.505 589.731" stroke="black" stroke-width="0.5"/>
<path d="M97.3882 492.176L205.211 599.999" stroke="black" stroke-width="0.5"/>
<path d="M178.002 419.73L285.825 527.553" stroke="black" stroke-width="0.5"/>
<path d="M151.3 449.148L259.123 556.971" stroke="black" stroke-width="0.5"/>
<path d="M116.491 472.099L224.314 579.922" stroke="black" stroke-width="0.5"/>
<path d="M187.806 409.926L295.629 517.749" stroke="black" stroke-width="0.5"/>
<path d="M161.104 439.343L268.928 547.166" stroke="black" stroke-width="0.5"/>
<path d="M126.295 462.294L234.119 570.117" stroke="black" stroke-width="0.5"/>
<path d="M366.718 373.476L258.895 481.299" stroke="black" stroke-width="0.5"/>
<path d="M336.603 343.036L228.78 450.859" stroke="black" stroke-width="0.5"/>
<path d="M307.511 313.746L199.688 421.569" stroke="black" stroke-width="0.5"/>
<path d="M297.799 304.452L189.976 412.275" stroke="black" stroke-width="0.5"/>
<path d="M376.527 383.285L268.704 491.108" stroke="black" stroke-width="0.5"/>
<path d="M346.412 352.845L238.588 460.668" stroke="black" stroke-width="0.5"/>
<path d="M317.32 323.555L209.497 431.378" stroke="black" stroke-width="0.5"/>
<path d="M386.332 393.09L278.508 500.913" stroke="black" stroke-width="0.5"/>
<path d="M398.178 401.438L290.355 509.261" stroke="black" stroke-width="0.5"/>
<path d="M356.216 362.649L248.393 470.473" stroke="black" stroke-width="0.5"/>
<path d="M327.125 333.36L219.302 441.183" stroke="black" stroke-width="0.5"/>
</g>
<path d="M240.5 506.968L160.352 506.968L160.352 410.098C160.356 423.902 171.547 435.091 185.352 435.091H188.678C195.931 435.091 202.615 439.017 206.147 445.352L240.5 506.968Z" fill="#F08D67"/>
<path d="M9.70557 506.968L89.8533 506.968L89.8533 410.098C89.8496 423.902 78.413 435.091 64.6081 435.091C55.5424 435.091 47.0432 439.999 42.6285 447.917L9.70557 506.968Z" fill="#F7CD98"/>
<path d="M160.353 162.382V506.968H89.8536V226.348C89.8536 189.216 119.955 159.115 157.086 159.115C158.89 159.115 160.353 160.578 160.353 162.382Z" fill="#A7C3FB"/>
<rect x="85.8608" y="466.96" width="78.4847" height="40.5504" rx="2" fill="#37559A"/>
<rect x="89.8545" y="375.889" width="70.4979" height="5.23232" rx="1" fill="#2E4885"/>
<circle cx="139.528" cy="407.599" r="3.92424" fill="#2E4885"/>
<circle cx="139.528" cy="425.912" r="3.92424" fill="#2E4885"/>
<circle cx="139.528" cy="444.225" r="3.92424" fill="#2E4885"/>
<path d="M128.685 165.802V226.115C128.685 234.4 121.97 241.115 113.685 241.115H90.4922" stroke="#2E4885"/>
<path d="M264.938 40.6794C256.987 40.6794 246.908 40.6794 224.666 40.6794C202.425 40.6794 200.327 40.6794 184.395 40.6794C184.395 18.4382 202.425 0.408081 224.666 0.408081C246.908 0.408081 264.938 18.4382 264.938 40.6794Z" fill="#A7C3FB"/>
<path d="M249.104 72.2302C244.279 72.2302 238.163 72.2302 224.666 72.2302C211.17 72.2302 209.897 72.2302 200.229 72.2302C200.229 58.7335 211.17 47.7922 224.666 47.7922C238.163 47.7922 249.104 58.7335 249.104 72.2302Z" fill="#A7C3FB"/>
<path d="M49.578 118.257C44.753 118.257 38.6368 118.257 25.1401 118.257C11.6434 118.257 10.3703 118.257 0.702148 118.257C0.702148 105.965 11.6434 96 25.1401 96C38.6368 96 49.578 105.965 49.578 118.257Z" fill="#A7C3FB"/>
<path d="M160.352 278.239C160.352 283.064 160.352 289.181 160.352 302.677C160.352 316.174 160.352 317.447 160.352 327.115C148.06 327.115 138.095 316.174 138.095 302.677C138.095 289.181 148.06 278.239 160.352 278.239Z" fill="#37559A"/>
<path d="M237.579 96C235.03 96 231.798 96 224.667 96C217.535 96 216.862 96 211.754 96C211.754 88.8685 217.535 83.0873 224.667 83.0873C231.798 83.0873 237.579 88.8685 237.579 96Z" fill="#A7C3FB"/>
<path d="M38.0529 139.905C35.5035 139.905 32.2717 139.905 25.1402 139.905C18.0087 139.905 17.336 139.905 12.2275 139.905C12.2275 133.41 18.0087 128.145 25.1402 128.145C32.2717 128.145 38.0529 133.41 38.0529 139.905Z" fill="#A7C3FB"/>
<path d="M85.8605 118.257C83.8418 118.257 81.2828 118.257 75.6358 118.257C69.9889 118.257 69.4562 118.257 65.4111 118.257C65.4111 113.114 69.9889 108.945 75.6358 108.945C81.2828 108.945 85.8605 113.114 85.8605 118.257Z" fill="#A7C3FB"/>
</svg>
