<svg width="608" height="392" viewBox="0 0 608 392" fill="none" xmlns="http://www.w3.org/2000/svg">
<rect x="2.81396" y="2" width="606.998" height="387.5" rx="26" fill="#F5F7FB" stroke="white" stroke-width="4"/>
<path d="M307.243 3.92664H599.812C604.231 3.92664 607.812 7.50836 607.812 11.9266V108H307.243V3.92664Z" fill="#F5F7FB"/>
<path d="M260.306 80.1425C260.306 84.2446 256.981 87.57 252.879 87.57V87.57C248.777 87.57 245.451 84.2446 245.451 80.1425V80.1425C245.451 76.0405 248.777 72.7151 252.879 72.7151V72.7151C256.981 72.7151 260.306 76.0405 260.306 80.1425V80.1425Z" fill="#2E4885"/>
<path d="M277.773 76.9878H279.136C279.074 75.2321 277.455 73.9196 275.205 73.9196C272.977 73.9196 271.227 75.2151 271.227 77.1696C271.227 78.7378 272.364 79.6696 274.182 80.1924L275.614 80.6015C276.841 80.9424 277.932 81.3742 277.932 82.5333C277.932 83.806 276.705 84.6469 275.091 84.6469C273.705 84.6469 272.477 84.0333 272.364 82.7151H270.909C271.045 84.6242 272.591 85.9196 275.091 85.9196C277.773 85.9196 279.295 84.4424 279.295 82.556C279.295 80.3742 277.227 79.6696 276.023 79.3515L274.841 79.0333C273.977 78.806 272.591 78.3515 272.591 77.1015C272.591 75.9878 273.614 75.1696 275.159 75.1696C276.568 75.1696 277.636 75.8401 277.773 76.9878ZM281.43 85.7151H282.771V76.9878H281.43V85.7151ZM282.112 75.5333C282.635 75.5333 283.067 75.1242 283.067 74.6242C283.067 74.1242 282.635 73.7151 282.112 73.7151C281.589 73.7151 281.158 74.1242 281.158 74.6242C281.158 75.1242 281.589 75.5333 282.112 75.5333ZM289.023 76.9878H287.159V74.8969H285.818V76.9878H284.5V78.1242H285.818V83.5787C285.818 85.1015 287.045 85.8287 288.182 85.8287C288.682 85.8287 289 85.7378 289.182 85.6696L288.909 84.4651C288.795 84.4878 288.614 84.5333 288.318 84.5333C287.727 84.5333 287.159 84.3515 287.159 83.2151V78.1242H289.023V76.9878ZM294.605 85.8969C296.378 85.8969 297.673 85.0105 298.082 83.6924L296.787 83.3287C296.446 84.2378 295.656 84.6924 294.605 84.6924C293.031 84.6924 291.946 83.6753 291.884 81.806H298.219V81.2378C298.219 77.9878 296.287 76.8742 294.469 76.8742C292.105 76.8742 290.537 78.7378 290.537 81.4196C290.537 84.1015 292.082 85.8969 294.605 85.8969ZM291.884 80.6469C291.974 79.289 292.935 78.0787 294.469 78.0787C295.923 78.0787 296.855 79.1696 296.855 80.6469H291.884ZM304.94 85.7151H306.349V80.5105H312.554V85.7151H313.963V74.0787H312.554V79.2605H306.349V74.0787H304.94V85.7151ZM320.148 85.8969C322.511 85.8969 324.102 84.1015 324.102 81.3969C324.102 78.6696 322.511 76.8742 320.148 76.8742C317.784 76.8742 316.193 78.6696 316.193 81.3969C316.193 84.1015 317.784 85.8969 320.148 85.8969ZM320.148 84.6924C318.352 84.6924 317.534 83.1469 317.534 81.3969C317.534 79.6469 318.352 78.0787 320.148 78.0787C321.943 78.0787 322.761 79.6469 322.761 81.3969C322.761 83.1469 321.943 84.6924 320.148 84.6924ZM332.331 78.9424C331.911 77.7037 330.967 76.8742 329.24 76.8742C327.399 76.8742 326.036 77.9196 326.036 79.3969C326.036 80.6015 326.751 81.4083 328.354 81.7833L329.808 82.1242C330.689 82.3287 331.104 82.7492 331.104 83.3515C331.104 84.1015 330.308 84.7151 329.058 84.7151C327.962 84.7151 327.274 84.2435 327.036 83.306L325.763 83.6242C326.075 85.1071 327.297 85.8969 329.081 85.8969C331.109 85.8969 332.49 84.789 332.49 83.2833C332.49 82.0674 331.729 81.3003 330.172 80.9196L328.876 80.6015C327.842 80.3458 327.376 79.9992 327.376 79.3287C327.376 78.5787 328.172 78.0333 329.24 78.0333C330.411 78.0333 330.893 78.681 331.126 79.2833L332.331 78.9424ZM338.304 76.9878H336.44V74.8969H335.099V76.9878H333.781V78.1242H335.099V83.5787C335.099 85.1015 336.327 85.8287 337.463 85.8287C337.963 85.8287 338.281 85.7378 338.463 85.6696L338.19 84.4651C338.077 84.4878 337.895 84.5333 337.599 84.5333C337.009 84.5333 336.44 84.3515 336.44 83.2151V78.1242H338.304V76.9878ZM343.886 85.8969C345.659 85.8969 346.955 85.0105 347.364 83.6924L346.068 83.3287C345.727 84.2378 344.938 84.6924 343.886 84.6924C342.312 84.6924 341.227 83.6753 341.165 81.806H347.5V81.2378C347.5 77.9878 345.568 76.8742 343.75 76.8742C341.386 76.8742 339.818 78.7378 339.818 81.4196C339.818 84.1015 341.364 85.8969 343.886 85.8969ZM341.165 80.6469C341.256 79.289 342.216 78.0787 343.75 78.0787C345.205 78.0787 346.136 79.1696 346.136 80.6469H341.165ZM352.835 85.8969C354.517 85.8969 355.085 84.8515 355.381 84.3742H355.54V85.7151H356.835V74.0787H355.494V78.3742H355.381C355.085 77.9196 354.562 76.8742 352.858 76.8742C350.653 76.8742 349.131 78.6242 349.131 81.3742C349.131 84.1469 350.653 85.8969 352.835 85.8969ZM353.017 84.6924C351.335 84.6924 350.472 83.2151 350.472 81.3515C350.472 79.5105 351.312 78.0787 353.017 78.0787C354.653 78.0787 355.517 79.3969 355.517 81.3515C355.517 83.3287 354.631 84.6924 353.017 84.6924Z" fill="#2E4885"/>
<path d="M573.373 336C573.373 342.627 568 348 561.373 348H320.902C318.693 348 316.902 346.209 316.902 344V302.43C316.902 295.803 322.275 290.43 328.902 290.43H561.373C568 290.43 573.373 295.803 573.373 302.43V336Z" fill="#2E4885"/>
<path d="M78.9433 67.8046H82.9959C82.1138 62.7037 77.7544 59.1753 72.1038 59.1753C65.3283 59.1753 60.3808 64.2762 60.3808 72.637C60.3808 80.9211 65.1876 86.073 72.2828 86.073C78.6365 86.073 83.1748 81.9054 83.1748 75.2961V72.3174H72.8837V75.5773H79.3524C79.2629 79.7961 76.476 82.4679 72.2828 82.4679C67.6677 82.4679 64.3055 78.9779 64.3055 72.6114C64.3055 66.2705 67.6933 62.7804 72.1294 62.7804C75.6067 62.7804 77.9589 64.698 78.9433 67.8046ZM96.3457 86.1114C100.628 86.1114 103.658 84.002 104.527 80.806L100.91 80.154C100.219 82.0077 98.5573 82.9537 96.384 82.9537C93.1113 82.9537 90.9124 80.8316 90.8101 77.0475H104.77V75.6924C104.77 68.5972 100.526 65.823 96.0772 65.823C90.6056 65.823 87.0005 69.9907 87.0005 76.0247C87.0005 82.1228 90.5545 86.1114 96.3457 86.1114ZM90.8229 74.1838C90.9763 71.3969 92.9962 68.9807 96.1028 68.9807C99.0687 68.9807 101.012 71.1796 101.025 74.1838H90.8229ZM118.178 66.0787H114.151V61.3742H110.328V66.0787H107.452V69.1469H110.328V80.7421C110.315 84.3088 113.038 86.0347 116.056 85.9708C117.27 85.958 118.088 85.7279 118.536 85.5617L117.845 82.404C117.59 82.4551 117.117 82.5702 116.503 82.5702C115.263 82.5702 114.151 82.1611 114.151 79.9495V69.1469H118.178V66.0787ZM134.452 85.7151L136.855 78.7861H147.083L149.473 85.7151H153.666L144.244 59.5333H139.681L130.259 85.7151H134.452ZM138.006 75.4622L141.867 64.2889H142.071L145.932 75.4622H138.006ZM157.14 85.7151H160.963V73.7236C160.963 71.154 162.944 69.3003 165.655 69.3003C166.447 69.3003 167.342 69.4409 167.649 69.5304V65.8742C167.265 65.823 166.511 65.7847 166.025 65.7847C163.724 65.7847 161.755 67.0887 161.04 69.198H160.835V66.0787H157.14V85.7151ZM181.283 66.0787H177.256V61.3742H173.434V66.0787H170.557V69.1469H173.434V80.7421C173.421 84.3088 176.144 86.0347 179.161 85.9708C180.375 85.958 181.194 85.7279 181.641 85.5617L180.951 82.404C180.695 82.4551 180.222 82.5702 179.608 82.5702C178.368 82.5702 177.256 82.1611 177.256 79.9495V69.1469H181.283V66.0787ZM199.91 70.8728C199.117 67.8174 196.726 65.823 192.482 65.823C188.046 65.823 184.901 68.1625 184.901 71.6398C184.901 74.4267 186.589 76.2804 190.27 77.0986L193.594 77.8273C195.486 78.2492 196.368 79.0929 196.368 80.3202C196.368 81.8415 194.745 83.0304 192.239 83.0304C189.951 83.0304 188.481 82.0461 188.02 80.1157L184.326 80.6782C184.965 84.1554 187.854 86.1114 192.265 86.1114C197.008 86.1114 200.293 83.5929 200.293 80.039C200.293 77.2648 198.529 75.5517 194.924 74.7208L191.804 74.0049C189.644 73.4935 188.711 72.7648 188.723 71.4353C188.711 69.9267 190.347 68.8529 192.52 68.8529C194.898 68.8529 195.998 70.1696 196.445 71.4864L199.91 70.8728ZM206.912 93.0276C210.07 93.0276 212.077 91.3784 213.202 88.3358L221.32 66.1171L217.19 66.0787L212.217 81.3174H212.013L207.04 66.0787H202.949L210.134 85.9708L209.661 87.2747C208.689 89.8188 207.321 90.0489 205.225 89.4736L204.304 92.6057C204.764 92.823 205.761 93.0276 206.912 93.0276Z" fill="#2E4885"/>
<path d="M61.7572 159H65.9618C68.7118 159 69.8481 157.659 69.8481 155.909C69.8481 154.068 68.5754 153.068 67.5072 153V152.886C68.5072 152.614 69.3936 151.955 69.3936 150.455C69.3936 148.75 68.2572 147.364 65.8254 147.364H61.7572V159ZM63.1663 157.75V153.705H66.03C67.5527 153.705 68.5072 154.727 68.5072 155.909C68.5072 156.932 67.8027 157.75 65.9618 157.75H63.1663ZM63.1663 152.477V148.614H65.8254C67.3709 148.614 68.0527 149.432 68.0527 150.455C68.0527 151.682 67.0527 152.477 65.78 152.477H63.1663ZM77.4817 155.432C77.4817 157.068 76.2317 157.818 75.2317 157.818C74.118 157.818 73.3226 157 73.3226 155.727V150.273H71.9817V155.818C71.9817 158.045 73.1635 159.114 74.7998 159.114C76.118 159.114 76.9817 158.409 77.3908 157.523H77.4817V159H78.8226V150.273H77.4817V155.432ZM81.2785 159H82.6195V150.273H81.2785V159ZM81.9604 148.818C82.4831 148.818 82.9149 148.409 82.9149 147.909C82.9149 147.409 82.4831 147 81.9604 147C81.4376 147 81.0058 147.409 81.0058 147.909C81.0058 148.409 81.4376 148.818 81.9604 148.818ZM86.4163 147.364H85.0754V159H86.4163V147.364ZM92.1677 159.182C93.8496 159.182 94.4177 158.136 94.7132 157.659H94.8723V159H96.1677V147.364H94.8268V151.659H94.7132C94.4177 151.205 93.895 150.159 92.1905 150.159C89.9859 150.159 88.4632 151.909 88.4632 154.659C88.4632 157.432 89.9859 159.182 92.1677 159.182ZM92.3496 157.977C90.6677 157.977 89.8041 156.5 89.8041 154.636C89.8041 152.795 90.645 151.364 92.3496 151.364C93.9859 151.364 94.8496 152.682 94.8496 154.636C94.8496 156.614 93.9632 157.977 92.3496 157.977ZM105.878 159.205C107.401 159.205 108.196 158.386 108.469 157.818H108.537V159H109.878V153.25C109.878 150.477 107.764 150.159 106.651 150.159C105.333 150.159 103.833 150.614 103.151 152.205L104.423 152.659C104.719 152.023 105.418 151.341 106.696 151.341C107.929 151.341 108.537 151.994 108.537 153.114V153.159C108.537 153.807 107.878 153.75 106.287 153.955C104.668 154.165 102.901 154.523 102.901 156.523C102.901 158.227 104.219 159.205 105.878 159.205ZM106.083 158C105.014 158 104.242 157.523 104.242 156.591C104.242 155.568 105.173 155.25 106.219 155.114C106.787 155.045 108.31 154.886 108.537 154.614V155.841C108.537 156.932 107.673 158 106.083 158ZM113.666 153.75C113.666 152.227 114.61 151.364 115.894 151.364C117.138 151.364 117.894 152.176 117.894 153.545V159H119.235V153.455C119.235 151.227 118.047 150.159 116.28 150.159C114.962 150.159 114.144 150.75 113.735 151.636H113.621V150.273H112.325V159H113.666V153.75ZM126.185 159H127.526V150.273H126.185V159ZM126.867 148.818C127.389 148.818 127.821 148.409 127.821 147.909C127.821 147.409 127.389 147 126.867 147C126.344 147 125.912 147.409 125.912 147.909C125.912 148.409 126.344 148.818 126.867 148.818ZM131.323 153.75C131.323 152.227 132.266 151.364 133.55 151.364C134.794 151.364 135.55 152.176 135.55 153.545V159H136.891V153.455C136.891 151.227 135.703 150.159 133.936 150.159C132.618 150.159 131.8 150.75 131.391 151.636H131.277V150.273H129.982V159H131.323V153.75ZM143.136 150.273H141.273V148.182H139.932V150.273H138.614V151.409H139.932V156.864C139.932 158.386 141.159 159.114 142.296 159.114C142.796 159.114 143.114 159.023 143.296 158.955L143.023 157.75C142.909 157.773 142.727 157.818 142.432 157.818C141.841 157.818 141.273 157.636 141.273 156.5V151.409H143.136V150.273ZM148.719 159.182C150.492 159.182 151.787 158.295 152.196 156.977L150.901 156.614C150.56 157.523 149.77 157.977 148.719 157.977C147.145 157.977 146.06 156.96 145.997 155.091H152.333V154.523C152.333 151.273 150.401 150.159 148.583 150.159C146.219 150.159 144.651 152.023 144.651 154.705C144.651 157.386 146.196 159.182 148.719 159.182ZM145.997 153.932C146.088 152.574 147.048 151.364 148.583 151.364C150.037 151.364 150.969 152.455 150.969 153.932H145.997ZM154.372 159H155.713V153.477C155.713 152.295 156.645 151.432 157.918 151.432C158.276 151.432 158.645 151.5 158.736 151.523V150.159C158.583 150.148 158.23 150.136 158.031 150.136C156.986 150.136 156.077 150.727 155.759 151.591H155.668V150.273H154.372V159ZM162.894 159.205C164.416 159.205 165.212 158.386 165.485 157.818H165.553V159H166.894V153.25C166.894 150.477 164.78 150.159 163.666 150.159C162.348 150.159 160.848 150.614 160.166 152.205L161.439 152.659C161.735 152.023 162.433 151.341 163.712 151.341C164.945 151.341 165.553 151.994 165.553 153.114V153.159C165.553 153.807 164.894 153.75 163.303 153.955C161.683 154.165 159.916 154.523 159.916 156.523C159.916 158.227 161.235 159.205 162.894 159.205ZM163.098 158C162.03 158 161.257 157.523 161.257 156.591C161.257 155.568 162.189 155.25 163.235 155.114C163.803 155.045 165.325 154.886 165.553 154.614V155.841C165.553 156.932 164.689 158 163.098 158ZM172.886 159.182C174.818 159.182 176.091 158 176.318 156.455H174.977C174.727 157.409 173.932 157.977 172.886 157.977C171.296 157.977 170.273 156.659 170.273 154.636C170.273 152.659 171.318 151.364 172.886 151.364C174.068 151.364 174.773 152.091 174.977 152.886H176.318C176.091 151.25 174.705 150.159 172.864 150.159C170.5 150.159 168.932 152.023 168.932 154.682C168.932 157.295 170.432 159.182 172.886 159.182ZM182.074 150.273H180.21V148.182H178.869V150.273H177.551V151.409H178.869V156.864C178.869 158.386 180.097 159.114 181.233 159.114C181.733 159.114 182.051 159.023 182.233 158.955L181.96 157.75C181.847 157.773 181.665 157.818 181.369 157.818C180.779 157.818 180.21 157.636 180.21 156.5V151.409H182.074V150.273ZM184.091 159H185.432V150.273H184.091V159ZM184.773 148.818C185.296 148.818 185.727 148.409 185.727 147.909C185.727 147.409 185.296 147 184.773 147C184.25 147 183.818 147.409 183.818 147.909C183.818 148.409 184.25 148.818 184.773 148.818ZM195.024 150.273H193.57L191.161 157.227H191.07L188.661 150.273H187.206L190.433 159H191.797L195.024 150.273ZM200.141 159.182C201.913 159.182 203.209 158.295 203.618 156.977L202.323 156.614C201.982 157.523 201.192 157.977 200.141 157.977C198.567 157.977 197.482 156.96 197.419 155.091H203.754V154.523C203.754 151.273 201.823 150.159 200.004 150.159C197.641 150.159 196.073 152.023 196.073 154.705C196.073 157.386 197.618 159.182 200.141 159.182ZM197.419 153.932C197.51 152.574 198.47 151.364 200.004 151.364C201.459 151.364 202.391 152.455 202.391 153.932H197.419ZM210.294 159H211.635V153.545C211.635 152.267 212.567 151.364 213.612 151.364C214.629 151.364 215.34 152.028 215.34 153.023V159H216.703V153.318C216.703 152.193 217.408 151.364 218.635 151.364C219.59 151.364 220.408 151.869 220.408 153.159V159H221.749V153.159C221.749 151.108 220.646 150.159 219.09 150.159C217.84 150.159 216.925 150.733 216.476 151.636H216.385C215.953 150.705 215.192 150.159 214.044 150.159C212.908 150.159 212.067 150.705 211.703 151.636H211.59V150.273H210.294V159ZM229.7 155.432C229.7 157.068 228.45 157.818 227.45 157.818C226.337 157.818 225.541 157 225.541 155.727V150.273H224.2V155.818C224.2 158.045 225.382 159.114 227.019 159.114C228.337 159.114 229.2 158.409 229.61 157.523H229.7V159H231.041V150.273H229.7V155.432ZM239.679 152.227C239.259 150.989 238.315 150.159 236.588 150.159C234.747 150.159 233.384 151.205 233.384 152.682C233.384 153.886 234.1 154.693 235.702 155.068L237.156 155.409C238.037 155.614 238.452 156.034 238.452 156.636C238.452 157.386 237.656 158 236.406 158C235.31 158 234.622 157.528 234.384 156.591L233.111 156.909C233.423 158.392 234.645 159.182 236.429 159.182C238.458 159.182 239.838 158.074 239.838 156.568C239.838 155.352 239.077 154.585 237.52 154.205L236.225 153.886C235.19 153.631 234.725 153.284 234.725 152.614C234.725 151.864 235.52 151.318 236.588 151.318C237.759 151.318 238.242 151.966 238.475 152.568L239.679 152.227ZM245.516 159.182C247.288 159.182 248.584 158.295 248.993 156.977L247.698 156.614C247.357 157.523 246.567 157.977 245.516 157.977C243.942 157.977 242.857 156.96 242.794 155.091H249.129V154.523C249.129 151.273 247.198 150.159 245.379 150.159C243.016 150.159 241.448 152.023 241.448 154.705C241.448 157.386 242.993 159.182 245.516 159.182ZM242.794 153.932C242.885 152.574 243.845 151.364 245.379 151.364C246.834 151.364 247.766 152.455 247.766 153.932H242.794ZM256.669 155.432C256.669 157.068 255.419 157.818 254.419 157.818C253.306 157.818 252.51 157 252.51 155.727V150.273H251.169V155.818C251.169 158.045 252.351 159.114 253.987 159.114C255.306 159.114 256.169 158.409 256.578 157.523H256.669V159H258.01V150.273H256.669V155.432ZM260.466 159H261.807V153.545C261.807 152.267 262.739 151.364 263.784 151.364C264.801 151.364 265.511 152.028 265.511 153.023V159H266.875V153.318C266.875 152.193 267.58 151.364 268.807 151.364C269.761 151.364 270.58 151.869 270.58 153.159V159H271.921V153.159C271.921 151.108 270.818 150.159 269.261 150.159C268.011 150.159 267.097 150.733 266.648 151.636H266.557C266.125 150.705 265.364 150.159 264.216 150.159C263.08 150.159 262.239 150.705 261.875 151.636H261.761V150.273H260.466V159ZM282.531 159.182C284.304 159.182 285.6 158.295 286.009 156.977L284.713 156.614C284.372 157.523 283.583 157.977 282.531 157.977C280.958 157.977 279.872 156.96 279.81 155.091H286.145V154.523C286.145 151.273 284.213 150.159 282.395 150.159C280.031 150.159 278.463 152.023 278.463 154.705C278.463 157.386 280.009 159.182 282.531 159.182ZM279.81 153.932C279.901 152.574 280.861 151.364 282.395 151.364C283.85 151.364 284.781 152.455 284.781 153.932H279.81ZM288.95 150.273H287.405L290.178 154.636L287.405 159H288.95L291.041 155.614L293.132 159H294.678L291.86 154.636L294.678 150.273H293.132L291.041 153.841L288.95 150.273ZM296.591 162.273H297.932V157.659H298.046C298.341 158.136 298.909 159.182 300.591 159.182C302.773 159.182 304.296 157.432 304.296 154.659C304.296 151.909 302.773 150.159 300.568 150.159C298.864 150.159 298.341 151.205 298.046 151.659H297.886V150.273H296.591V162.273ZM297.909 154.636C297.909 152.682 298.773 151.364 300.409 151.364C302.114 151.364 302.955 152.795 302.955 154.636C302.955 156.5 302.091 157.977 300.409 157.977C298.796 157.977 297.909 156.614 297.909 154.636ZM310 159.182C311.773 159.182 313.068 158.295 313.477 156.977L312.182 156.614C311.841 157.523 311.051 157.977 310 157.977C308.426 157.977 307.341 156.96 307.279 155.091H313.614V154.523C313.614 151.273 311.682 150.159 309.864 150.159C307.5 150.159 305.932 152.023 305.932 154.705C305.932 157.386 307.477 159.182 310 159.182ZM307.279 153.932C307.369 152.574 308.33 151.364 309.864 151.364C311.318 151.364 312.25 152.455 312.25 153.932H307.279ZM315.654 159H316.994V153.477C316.994 152.295 317.926 151.432 319.199 151.432C319.557 151.432 319.926 151.5 320.017 151.523V150.159C319.864 150.148 319.511 150.136 319.313 150.136C318.267 150.136 317.358 150.727 317.04 151.591H316.949V150.273H315.654V159ZM321.607 159H322.948V150.273H321.607V159ZM322.288 148.818C322.811 148.818 323.243 148.409 323.243 147.909C323.243 147.409 322.811 147 322.288 147C321.766 147 321.334 147.409 321.334 147.909C321.334 148.409 321.766 148.818 322.288 148.818ZM329.063 159.182C330.835 159.182 332.131 158.295 332.54 156.977L331.244 156.614C330.904 157.523 330.114 157.977 329.063 157.977C327.489 157.977 326.404 156.96 326.341 155.091H332.676V154.523C332.676 151.273 330.744 150.159 328.926 150.159C326.563 150.159 324.994 152.023 324.994 154.705C324.994 157.386 326.54 159.182 329.063 159.182ZM326.341 153.932C326.432 152.574 327.392 151.364 328.926 151.364C330.381 151.364 331.313 152.455 331.313 153.932H326.341ZM336.057 153.75C336.057 152.227 337 151.364 338.284 151.364C339.529 151.364 340.284 152.176 340.284 153.545V159H341.625V153.455C341.625 151.227 340.438 150.159 338.671 150.159C337.352 150.159 336.534 150.75 336.125 151.636H336.011V150.273H334.716V159H336.057V153.75ZM347.621 159.182C349.553 159.182 350.825 158 351.053 156.455H349.712C349.462 157.409 348.666 157.977 347.621 157.977C346.03 157.977 345.007 156.659 345.007 154.636C345.007 152.659 346.053 151.364 347.621 151.364C348.803 151.364 349.507 152.091 349.712 152.886H351.053C350.825 151.25 349.439 150.159 347.598 150.159C345.235 150.159 343.666 152.023 343.666 154.682C343.666 157.295 345.166 159.182 347.621 159.182ZM356.672 159.182C358.445 159.182 359.74 158.295 360.149 156.977L358.854 156.614C358.513 157.523 357.723 157.977 356.672 157.977C355.098 157.977 354.013 156.96 353.95 155.091H360.286V154.523C360.286 151.273 358.354 150.159 356.536 150.159C354.172 150.159 352.604 152.023 352.604 154.705C352.604 157.386 354.149 159.182 356.672 159.182ZM353.95 153.932C354.041 152.574 355.002 151.364 356.536 151.364C357.99 151.364 358.922 152.455 358.922 153.932H353.95ZM364.098 147.364H362.553L362.666 155.727H363.985L364.098 147.364ZM363.325 159.091C363.888 159.091 364.348 158.631 364.348 158.068C364.348 157.506 363.888 157.045 363.325 157.045C362.763 157.045 362.303 157.506 362.303 158.068C362.303 158.631 362.763 159.091 363.325 159.091ZM371.46 147.364V159H372.779V150.159H372.892L376.529 159H377.801L381.438 150.159H381.551V159H382.869V147.364H381.188L377.233 157.023H377.097L373.142 147.364H371.46ZM388.081 159.205C389.604 159.205 390.399 158.386 390.672 157.818H390.74V159H392.081V153.25C392.081 150.477 389.967 150.159 388.854 150.159C387.536 150.159 386.036 150.614 385.354 152.205L386.627 152.659C386.922 152.023 387.621 151.341 388.899 151.341C390.132 151.341 390.74 151.994 390.74 153.114V153.159C390.74 153.807 390.081 153.75 388.49 153.955C386.871 154.165 385.104 154.523 385.104 156.523C385.104 158.227 386.422 159.205 388.081 159.205ZM388.286 158C387.217 158 386.445 157.523 386.445 156.591C386.445 155.568 387.377 155.25 388.422 155.114C388.99 155.045 390.513 154.886 390.74 154.614V155.841C390.74 156.932 389.877 158 388.286 158ZM394.529 159H395.869V155.733L396.807 154.864L400.074 159H401.779L397.818 154L401.506 150.273H399.847L396.029 154.159H395.869V147.364H394.529V159ZM406.531 159.182C408.304 159.182 409.6 158.295 410.009 156.977L408.713 156.614C408.372 157.523 407.583 157.977 406.531 157.977C404.958 157.977 403.872 156.96 403.81 155.091H410.145V154.523C410.145 151.273 408.213 150.159 406.395 150.159C404.031 150.159 402.463 152.023 402.463 154.705C402.463 157.386 404.009 159.182 406.531 159.182ZM403.81 153.932C403.901 152.574 404.861 151.364 406.395 151.364C407.85 151.364 408.781 152.455 408.781 153.932H403.81ZM419.253 159.205C420.776 159.205 421.571 158.386 421.844 157.818H421.912V159H423.253V153.25C423.253 150.477 421.139 150.159 420.026 150.159C418.708 150.159 417.208 150.614 416.526 152.205L417.798 152.659C418.094 152.023 418.793 151.341 420.071 151.341C421.304 151.341 421.912 151.994 421.912 153.114V153.159C421.912 153.807 421.253 153.75 419.662 153.955C418.043 154.165 416.276 154.523 416.276 156.523C416.276 158.227 417.594 159.205 419.253 159.205ZM419.458 158C418.389 158 417.617 157.523 417.617 156.591C417.617 155.568 418.548 155.25 419.594 155.114C420.162 155.045 421.685 154.886 421.912 154.614V155.841C421.912 156.932 421.048 158 419.458 158ZM425.7 159H427.041V153.477C427.041 152.295 427.973 151.432 429.246 151.432C429.604 151.432 429.973 151.5 430.064 151.523V150.159C429.911 150.148 429.558 150.136 429.36 150.136C428.314 150.136 427.405 150.727 427.087 151.591H426.996V150.273H425.7V159ZM435.996 150.273H434.132V148.182H432.791V150.273H431.473V151.409H432.791V156.864C432.791 158.386 434.019 159.114 435.155 159.114C435.655 159.114 435.973 159.023 436.155 158.955L435.882 157.75C435.769 157.773 435.587 157.818 435.291 157.818C434.7 157.818 434.132 157.636 434.132 156.5V151.409H435.996V150.273ZM445.081 159.205C446.604 159.205 447.399 158.386 447.672 157.818H447.74V159H449.081V153.25C449.081 150.477 446.967 150.159 445.854 150.159C444.536 150.159 443.036 150.614 442.354 152.205L443.627 152.659C443.922 152.023 444.621 151.341 445.899 151.341C447.132 151.341 447.74 151.994 447.74 153.114V153.159C447.74 153.807 447.081 153.75 445.49 153.955C443.871 154.165 442.104 154.523 442.104 156.523C442.104 158.227 443.422 159.205 445.081 159.205ZM445.286 158C444.217 158 443.445 157.523 443.445 156.591C443.445 155.568 444.377 155.25 445.422 155.114C445.99 155.045 447.513 154.886 447.74 154.614V155.841C447.74 156.932 446.877 158 445.286 158ZM455.324 150.273H453.46V148.182H452.119V150.273H450.801V151.409H452.119V156.864C452.119 158.386 453.347 159.114 454.483 159.114C454.983 159.114 455.301 159.023 455.483 158.955L455.21 157.75C455.097 157.773 454.915 157.818 454.619 157.818C454.029 157.818 453.46 157.636 453.46 156.5V151.409H455.324V150.273ZM463.182 153.75C463.182 152.227 464.154 151.364 465.477 151.364C466.739 151.364 467.5 152.159 467.5 153.545V159H468.841V153.455C468.841 151.21 467.648 150.159 465.864 150.159C464.489 150.159 463.705 150.733 463.296 151.636H463.182V147.364H461.841V159H463.182V153.75ZM474.84 159.182C477.203 159.182 478.794 157.386 478.794 154.682C478.794 151.955 477.203 150.159 474.84 150.159C472.476 150.159 470.885 151.955 470.885 154.682C470.885 157.386 472.476 159.182 474.84 159.182ZM474.84 157.977C473.044 157.977 472.226 156.432 472.226 154.682C472.226 152.932 473.044 151.364 474.84 151.364C476.635 151.364 477.453 152.932 477.453 154.682C477.453 156.432 476.635 157.977 474.84 157.977ZM480.841 159H482.182V153.545C482.182 152.267 483.114 151.364 484.159 151.364C485.176 151.364 485.886 152.028 485.886 153.023V159H487.25V153.318C487.25 152.193 487.955 151.364 489.182 151.364C490.136 151.364 490.955 151.869 490.955 153.159V159H492.296V153.159C492.296 151.108 491.193 150.159 489.636 150.159C488.386 150.159 487.472 150.733 487.023 151.636H486.932C486.5 150.705 485.739 150.159 484.591 150.159C483.455 150.159 482.614 150.705 482.25 151.636H482.136V150.273H480.841V159ZM498.406 159.182C500.179 159.182 501.475 158.295 501.884 156.977L500.588 156.614C500.247 157.523 499.458 157.977 498.406 157.977C496.833 157.977 495.747 156.96 495.685 155.091H502.02V154.523C502.02 151.273 500.088 150.159 498.27 150.159C495.906 150.159 494.338 152.023 494.338 154.705C494.338 157.386 495.884 159.182 498.406 159.182ZM495.685 153.932C495.776 152.574 496.736 151.364 498.27 151.364C499.725 151.364 500.656 152.455 500.656 153.932H495.685ZM64.1436 195.205C65.6663 195.205 66.4618 194.386 66.7345 193.818H66.8027V195H68.1436V189.25C68.1436 186.477 66.03 186.159 64.9163 186.159C63.5981 186.159 62.0981 186.614 61.4163 188.205L62.6891 188.659C62.9845 188.023 63.6834 187.341 64.9618 187.341C66.1947 187.341 66.8027 187.994 66.8027 189.114V189.159C66.8027 189.807 66.1436 189.75 64.5527 189.955C62.9334 190.165 61.1663 190.523 61.1663 192.523C61.1663 194.227 62.4845 195.205 64.1436 195.205ZM64.3481 194C63.28 194 62.5072 193.523 62.5072 192.591C62.5072 191.568 63.4391 191.25 64.4845 191.114C65.0527 191.045 66.5754 190.886 66.8027 190.614V191.841C66.8027 192.932 65.9391 194 64.3481 194ZM71.932 189.75C71.932 188.227 72.8751 187.364 74.1592 187.364C75.4035 187.364 76.1592 188.176 76.1592 189.545V195H77.5001V189.455C77.5001 187.227 76.3126 186.159 74.5456 186.159C73.2274 186.159 72.4092 186.75 72.0001 187.636H71.8865V186.273H70.591V195H71.932V189.75ZM83.2459 195.182C84.9277 195.182 85.4959 194.136 85.7913 193.659H85.9504V195H87.2459V183.364H85.905V187.659H85.7913C85.4959 187.205 84.9731 186.159 83.2686 186.159C81.0641 186.159 79.5413 187.909 79.5413 190.659C79.5413 193.432 81.0641 195.182 83.2459 195.182ZM83.4277 193.977C81.7459 193.977 80.8822 192.5 80.8822 190.636C80.8822 188.795 81.7231 187.364 83.4277 187.364C85.0641 187.364 85.9277 188.682 85.9277 190.636C85.9277 192.614 85.0413 193.977 83.4277 193.977ZM98.1834 186.273H96.3197V184.182H94.9788V186.273H93.6606V187.409H94.9788V192.864C94.9788 194.386 96.2061 195.114 97.3425 195.114C97.8425 195.114 98.1606 195.023 98.3425 194.955L98.0697 193.75C97.9561 193.773 97.7743 193.818 97.4788 193.818C96.8879 193.818 96.3197 193.636 96.3197 192.5V187.409H98.1834V186.273ZM100.2 195H101.541V189.477C101.541 188.295 102.473 187.432 103.746 187.432C104.104 187.432 104.473 187.5 104.564 187.523V186.159C104.411 186.148 104.058 186.136 103.86 186.136C102.814 186.136 101.905 186.727 101.587 187.591H101.496V186.273H100.2V195ZM108.722 195.205C110.244 195.205 111.04 194.386 111.313 193.818H111.381V195H112.722V189.25C112.722 186.477 110.608 186.159 109.494 186.159C108.176 186.159 106.676 186.614 105.994 188.205L107.267 188.659C107.563 188.023 108.261 187.341 109.54 187.341C110.773 187.341 111.381 187.994 111.381 189.114V189.159C111.381 189.807 110.722 189.75 109.131 189.955C107.511 190.165 105.744 190.523 105.744 192.523C105.744 194.227 107.063 195.205 108.722 195.205ZM108.926 194C107.858 194 107.085 193.523 107.085 192.591C107.085 191.568 108.017 191.25 109.063 191.114C109.631 191.045 111.154 190.886 111.381 190.614V191.841C111.381 192.932 110.517 194 108.926 194ZM116.51 189.75C116.51 188.227 117.453 187.364 118.737 187.364C119.982 187.364 120.737 188.176 120.737 189.545V195H122.078V189.455C122.078 187.227 120.891 186.159 119.124 186.159C117.806 186.159 116.987 186.75 116.578 187.636H116.465V186.273H115.169V195H116.51V189.75ZM130.71 188.227C130.29 186.989 129.347 186.159 127.619 186.159C125.779 186.159 124.415 187.205 124.415 188.682C124.415 189.886 125.131 190.693 126.733 191.068L128.188 191.409C129.068 191.614 129.483 192.034 129.483 192.636C129.483 193.386 128.688 194 127.438 194C126.341 194 125.654 193.528 125.415 192.591L124.142 192.909C124.455 194.392 125.676 195.182 127.46 195.182C129.489 195.182 130.869 194.074 130.869 192.568C130.869 191.352 130.108 190.585 128.551 190.205L127.256 189.886C126.222 189.631 125.756 189.284 125.756 188.614C125.756 187.864 126.551 187.318 127.619 187.318C128.79 187.318 129.273 187.966 129.506 188.568L130.71 188.227ZM136.774 186.273H134.82V185.386C134.82 184.523 135.183 184.068 136.07 184.068C136.456 184.068 136.683 184.159 136.82 184.205L137.206 183.045C137.002 182.955 136.592 182.818 135.933 182.818C134.683 182.818 133.479 183.568 133.479 185.068V186.273H132.07V187.409H133.479V195H134.82V187.409H136.774V186.273ZM141.84 195.182C144.203 195.182 145.794 193.386 145.794 190.682C145.794 187.955 144.203 186.159 141.84 186.159C139.476 186.159 137.885 187.955 137.885 190.682C137.885 193.386 139.476 195.182 141.84 195.182ZM141.84 193.977C140.044 193.977 139.226 192.432 139.226 190.682C139.226 188.932 140.044 187.364 141.84 187.364C143.635 187.364 144.453 188.932 144.453 190.682C144.453 192.432 143.635 193.977 141.84 193.977ZM147.841 195H149.182V189.477C149.182 188.295 150.114 187.432 151.386 187.432C151.744 187.432 152.114 187.5 152.205 187.523V186.159C152.051 186.148 151.699 186.136 151.5 186.136C150.455 186.136 149.546 186.727 149.227 187.591H149.136V186.273H147.841V195ZM153.794 195H155.135V189.545C155.135 188.267 156.067 187.364 157.112 187.364C158.129 187.364 158.84 188.028 158.84 189.023V195H160.203V189.318C160.203 188.193 160.908 187.364 162.135 187.364C163.09 187.364 163.908 187.869 163.908 189.159V195H165.249V189.159C165.249 187.108 164.146 186.159 162.59 186.159C161.34 186.159 160.425 186.733 159.976 187.636H159.885C159.453 186.705 158.692 186.159 157.544 186.159C156.408 186.159 155.567 186.705 155.203 187.636H155.09V186.273H153.794V195ZM175.996 186.273H174.132V184.182H172.791V186.273H171.473V187.409H172.791V192.864C172.791 194.386 174.019 195.114 175.155 195.114C175.655 195.114 175.973 195.023 176.155 194.955L175.882 193.75C175.769 193.773 175.587 193.818 175.291 193.818C174.7 193.818 174.132 193.636 174.132 192.5V187.409H175.996V186.273ZM179.541 189.75C179.541 188.227 180.513 187.364 181.837 187.364C183.098 187.364 183.86 188.159 183.86 189.545V195H185.2V189.455C185.2 187.21 184.007 186.159 182.223 186.159C180.848 186.159 180.064 186.733 179.655 187.636H179.541V183.364H178.2V195H179.541V189.75ZM191.313 195.182C193.085 195.182 194.381 194.295 194.79 192.977L193.494 192.614C193.154 193.523 192.364 193.977 191.313 193.977C189.739 193.977 188.654 192.96 188.591 191.091H194.926V190.523C194.926 187.273 192.994 186.159 191.176 186.159C188.813 186.159 187.244 188.023 187.244 190.705C187.244 193.386 188.79 195.182 191.313 195.182ZM188.591 189.932C188.682 188.574 189.642 187.364 191.176 187.364C192.631 187.364 193.563 188.455 193.563 189.932H188.591ZM196.966 195H198.307V189.545C198.307 188.267 199.239 187.364 200.284 187.364C201.301 187.364 202.011 188.028 202.011 189.023V195H203.375V189.318C203.375 188.193 204.08 187.364 205.307 187.364C206.261 187.364 207.08 187.869 207.08 189.159V195H208.421V189.159C208.421 187.108 207.318 186.159 205.761 186.159C204.511 186.159 203.597 186.733 203.148 187.636H203.057C202.625 186.705 201.864 186.159 200.716 186.159C199.58 186.159 198.739 186.705 198.375 187.636H198.261V186.273H196.966V195ZM220.872 191.432C220.872 193.068 219.622 193.818 218.622 193.818C217.509 193.818 216.713 193 216.713 191.727V186.273H215.372V191.818C215.372 194.045 216.554 195.114 218.19 195.114C219.509 195.114 220.372 194.409 220.781 193.523H220.872V195H222.213V186.273H220.872V191.432ZM230.851 188.227C230.431 186.989 229.487 186.159 227.76 186.159C225.919 186.159 224.556 187.205 224.556 188.682C224.556 189.886 225.271 190.693 226.874 191.068L228.328 191.409C229.209 191.614 229.624 192.034 229.624 192.636C229.624 193.386 228.828 194 227.578 194C226.482 194 225.794 193.528 225.556 192.591L224.283 192.909C224.595 194.392 225.817 195.182 227.601 195.182C229.629 195.182 231.01 194.074 231.01 192.568C231.01 191.352 230.249 190.585 228.692 190.205L227.396 189.886C226.362 189.631 225.896 189.284 225.896 188.614C225.896 187.864 226.692 187.318 227.76 187.318C228.931 187.318 229.413 187.966 229.646 188.568L230.851 188.227ZM233.029 195H234.369V186.273H233.029V195ZM233.71 184.818C234.233 184.818 234.665 184.409 234.665 183.909C234.665 183.409 234.233 183 233.71 183C233.188 183 232.756 183.409 232.756 183.909C232.756 184.409 233.188 184.818 233.71 184.818ZM238.166 189.75C238.166 188.227 239.11 187.364 240.394 187.364C241.638 187.364 242.394 188.176 242.394 189.545V195H243.735V189.455C243.735 187.227 242.547 186.159 240.78 186.159C239.462 186.159 238.644 186.75 238.235 187.636H238.121V186.273H236.825V195H238.166V189.75ZM249.708 198.455C251.798 198.455 253.48 197.5 253.48 195.25V186.273H252.185V187.659H252.048C251.753 187.205 251.208 186.159 249.503 186.159C247.298 186.159 245.776 187.909 245.776 190.591C245.776 193.318 247.367 194.864 249.48 194.864C251.185 194.864 251.73 193.864 252.026 193.386H252.139V195.159C252.139 196.614 251.117 197.273 249.708 197.273C248.122 197.273 247.565 196.438 247.208 195.955L246.139 196.705C246.685 197.619 247.759 198.455 249.708 198.455ZM249.662 193.659C247.98 193.659 247.117 192.386 247.117 190.568C247.117 188.795 247.958 187.364 249.662 187.364C251.298 187.364 252.162 188.682 252.162 190.568C252.162 192.5 251.276 193.659 249.662 193.659ZM263.73 195.182C265.412 195.182 265.98 194.136 266.276 193.659H266.435V195H267.73V183.364H266.389V187.659H266.276C265.98 187.205 265.458 186.159 263.753 186.159C261.548 186.159 260.026 187.909 260.026 190.659C260.026 193.432 261.548 195.182 263.73 195.182ZM263.912 193.977C262.23 193.977 261.367 192.5 261.367 190.636C261.367 188.795 262.208 187.364 263.912 187.364C265.548 187.364 266.412 188.682 266.412 190.636C266.412 192.614 265.526 193.977 263.912 193.977ZM270.372 195H271.713V186.273H270.372V195ZM271.054 184.818C271.577 184.818 272.009 184.409 272.009 183.909C272.009 183.409 271.577 183 271.054 183C270.531 183 270.1 183.409 270.1 183.909C270.1 184.409 270.531 184.818 271.054 184.818ZM278.056 186.273H276.101V185.386C276.101 184.523 276.465 184.068 277.351 184.068C277.737 184.068 277.965 184.159 278.101 184.205L278.487 183.045C278.283 182.955 277.874 182.818 277.215 182.818C275.965 182.818 274.76 183.568 274.76 185.068V186.273H273.351V187.409H274.76V195H276.101V187.409H278.056V186.273ZM283.821 186.273H281.867V185.386C281.867 184.523 282.23 184.068 283.117 184.068C283.503 184.068 283.73 184.159 283.867 184.205L284.253 183.045C284.048 182.955 283.639 182.818 282.98 182.818C281.73 182.818 280.526 183.568 280.526 185.068V186.273H279.117V187.409H280.526V195H281.867V187.409H283.821V186.273ZM289 195.182C290.773 195.182 292.068 194.295 292.477 192.977L291.182 192.614C290.841 193.523 290.051 193.977 289 193.977C287.426 193.977 286.341 192.96 286.279 191.091H292.614V190.523C292.614 187.273 290.682 186.159 288.864 186.159C286.5 186.159 284.932 188.023 284.932 190.705C284.932 193.386 286.477 195.182 289 195.182ZM286.279 189.932C286.369 188.574 287.33 187.364 288.864 187.364C290.318 187.364 291.25 188.455 291.25 189.932H286.279ZM294.654 195H295.994V189.477C295.994 188.295 296.926 187.432 298.199 187.432C298.557 187.432 298.926 187.5 299.017 187.523V186.159C298.864 186.148 298.511 186.136 298.313 186.136C297.267 186.136 296.358 186.727 296.04 187.591H295.949V186.273H294.654V195ZM304 195.182C305.773 195.182 307.068 194.295 307.477 192.977L306.182 192.614C305.841 193.523 305.051 193.977 304 193.977C302.426 193.977 301.341 192.96 301.279 191.091H307.614V190.523C307.614 187.273 305.682 186.159 303.864 186.159C301.5 186.159 299.932 188.023 299.932 190.705C299.932 193.386 301.477 195.182 304 195.182ZM301.279 189.932C301.369 188.574 302.33 187.364 303.864 187.364C305.318 187.364 306.25 188.455 306.25 189.932H301.279ZM310.994 189.75C310.994 188.227 311.938 187.364 313.222 187.364C314.466 187.364 315.222 188.176 315.222 189.545V195H316.563V189.455C316.563 187.227 315.375 186.159 313.608 186.159C312.29 186.159 311.472 186.75 311.063 187.636H310.949V186.273H309.654V195H310.994V189.75ZM322.808 186.273H320.945V184.182H319.604V186.273H318.286V187.409H319.604V192.864C319.604 194.386 320.831 195.114 321.967 195.114C322.467 195.114 322.786 195.023 322.967 194.955L322.695 193.75C322.581 193.773 322.399 193.818 322.104 193.818C321.513 193.818 320.945 193.636 320.945 192.5V187.409H322.808V186.273ZM337.462 187H338.916C338.485 184.75 336.598 183.205 334.144 183.205C331.161 183.205 329.053 185.5 329.053 189.182C329.053 192.864 331.144 195.159 334.235 195.159C337.007 195.159 338.985 193.312 338.985 190.432V189.182H334.553V190.432H337.621C337.581 192.523 336.206 193.841 334.235 193.841C332.075 193.841 330.416 192.205 330.416 189.182C330.416 186.159 332.075 184.523 334.144 184.523C335.825 184.523 336.967 185.472 337.462 187ZM341.516 195L342.686 191.705H347.391L348.561 195H350.038L345.766 183.364H344.311L340.038 195H341.516ZM343.129 190.455L344.993 185.205H345.084L346.948 190.455H343.129ZM361.078 183.364H359.692V192.523H359.578L353.215 183.364H351.851V195H353.26V185.864H353.374L359.715 195H361.078V183.364ZM369.898 188.227C369.477 186.989 368.534 186.159 366.807 186.159C364.966 186.159 363.602 187.205 363.602 188.682C363.602 189.886 364.318 190.693 365.921 191.068L367.375 191.409C368.256 191.614 368.671 192.034 368.671 192.636C368.671 193.386 367.875 194 366.625 194C365.529 194 364.841 193.528 364.602 192.591L363.33 192.909C363.642 194.392 364.864 195.182 366.648 195.182C368.676 195.182 370.057 194.074 370.057 192.568C370.057 191.352 369.296 190.585 367.739 190.205L366.443 189.886C365.409 189.631 364.943 189.284 364.943 188.614C364.943 187.864 365.739 187.318 366.807 187.318C367.977 187.318 368.46 187.966 368.693 188.568L369.898 188.227ZM373.053 195.091C373.615 195.091 374.075 194.631 374.075 194.068C374.075 193.506 373.615 193.045 373.053 193.045C372.49 193.045 372.03 193.506 372.03 194.068C372.03 194.631 372.49 195.091 373.053 195.091ZM380.527 184.614H384.186V195H385.595V184.614H389.254V183.364H380.527V184.614ZM392.588 189.75C392.588 188.227 393.56 187.364 394.884 187.364C396.145 187.364 396.906 188.159 396.906 189.545V195H398.247V189.455C398.247 187.21 397.054 186.159 395.27 186.159C393.895 186.159 393.111 186.733 392.702 187.636H392.588V183.364H391.247V195H392.588V189.75ZM404.36 195.182C406.132 195.182 407.428 194.295 407.837 192.977L406.541 192.614C406.2 193.523 405.411 193.977 404.36 193.977C402.786 193.977 401.7 192.96 401.638 191.091H407.973V190.523C407.973 187.273 406.041 186.159 404.223 186.159C401.86 186.159 400.291 188.023 400.291 190.705C400.291 193.386 401.837 195.182 404.36 195.182ZM401.638 189.932C401.729 188.574 402.689 187.364 404.223 187.364C405.678 187.364 406.61 188.455 406.61 189.932H401.638ZM411.354 189.75C411.354 188.227 412.297 187.364 413.581 187.364C414.825 187.364 415.581 188.176 415.581 189.545V195H416.922V189.455C416.922 187.227 415.735 186.159 413.967 186.159C412.649 186.159 411.831 186.75 411.422 187.636H411.308V186.273H410.013V195H411.354V189.75ZM421.372 193.409H419.918L419.85 194.045C419.685 195.585 419.361 197.119 419.213 197.841H420.236C420.509 197.068 421.088 195.318 421.281 194.023L421.372 193.409ZM432.243 186.273H430.288V185.386C430.288 184.523 430.652 184.068 431.538 184.068C431.925 184.068 432.152 184.159 432.288 184.205L432.675 183.045C432.47 182.955 432.061 182.818 431.402 182.818C430.152 182.818 428.948 183.568 428.948 185.068V186.273H427.538V187.409H428.948V195H430.288V187.409H432.243V186.273ZM434.122 195H435.463V186.273H434.122V195ZM434.804 184.818C435.327 184.818 435.759 184.409 435.759 183.909C435.759 183.409 435.327 183 434.804 183C434.281 183 433.85 183.409 433.85 183.909C433.85 184.409 434.281 184.818 434.804 184.818ZM439.26 189.75C439.26 188.227 440.203 187.364 441.487 187.364C442.732 187.364 443.487 188.176 443.487 189.545V195H444.828V189.455C444.828 187.227 443.641 186.159 441.874 186.159C440.556 186.159 439.737 186.75 439.328 187.636H439.215V186.273H437.919V195H439.26V189.75ZM450.574 195.182C452.256 195.182 452.824 194.136 453.119 193.659H453.279V195H454.574V183.364H453.233V187.659H453.119C452.824 187.205 452.301 186.159 450.597 186.159C448.392 186.159 446.869 187.909 446.869 190.659C446.869 193.432 448.392 195.182 450.574 195.182ZM450.756 193.977C449.074 193.977 448.21 192.5 448.21 190.636C448.21 188.795 449.051 187.364 450.756 187.364C452.392 187.364 453.256 188.682 453.256 190.636C453.256 192.614 452.369 193.977 450.756 193.977ZM462.58 198.25C463.79 198.25 464.648 197.608 465.148 196.273L468.864 186.295L467.398 186.273L464.989 193.227H464.898L462.489 186.273H461.034L464.261 195.045L464.011 195.727C463.534 197.034 462.921 197.159 461.943 196.909L461.602 198.091C461.739 198.159 462.125 198.25 462.58 198.25ZM473.871 195.182C476.235 195.182 477.825 193.386 477.825 190.682C477.825 187.955 476.235 186.159 473.871 186.159C471.507 186.159 469.916 187.955 469.916 190.682C469.916 193.386 471.507 195.182 473.871 195.182ZM473.871 193.977C472.075 193.977 471.257 192.432 471.257 190.682C471.257 188.932 472.075 187.364 473.871 187.364C475.666 187.364 476.485 188.932 476.485 190.682C476.485 192.432 475.666 193.977 473.871 193.977ZM485.372 191.432C485.372 193.068 484.122 193.818 483.122 193.818C482.009 193.818 481.213 193 481.213 191.727V186.273H479.872V191.818C479.872 194.045 481.054 195.114 482.69 195.114C484.009 195.114 484.872 194.409 485.281 193.523H485.372V195H486.713V186.273H485.372V191.432ZM489.169 195H490.51V189.477C490.51 188.295 491.442 187.432 492.715 187.432C493.073 187.432 493.442 187.5 493.533 187.523V186.159C493.379 186.148 493.027 186.136 492.828 186.136C491.783 186.136 490.874 186.727 490.556 187.591H490.465V186.273H489.169V195ZM61.5754 231H62.9163V225.545C62.9163 224.267 63.8481 223.364 64.8936 223.364C65.9106 223.364 66.6209 224.028 66.6209 225.023V231H67.9845V225.318C67.9845 224.193 68.6891 223.364 69.9163 223.364C70.8709 223.364 71.6891 223.869 71.6891 225.159V231H73.03V225.159C73.03 223.108 71.9277 222.159 70.3709 222.159C69.1209 222.159 68.2061 222.733 67.7572 223.636H67.6663C67.2345 222.705 66.4731 222.159 65.3254 222.159C64.1891 222.159 63.3481 222.705 62.9845 223.636H62.8709V222.273H61.5754V231ZM78.0498 231.205C79.5726 231.205 80.368 230.386 80.6408 229.818H80.7089V231H82.0498V225.25C82.0498 222.477 79.9362 222.159 78.8226 222.159C77.5044 222.159 76.0044 222.614 75.3226 224.205L76.5953 224.659C76.8908 224.023 77.5896 223.341 78.868 223.341C80.101 223.341 80.7089 223.994 80.7089 225.114V225.159C80.7089 225.807 80.0498 225.75 78.4589 225.955C76.8396 226.165 75.0726 226.523 75.0726 228.523C75.0726 230.227 76.3908 231.205 78.0498 231.205ZM78.2544 230C77.1862 230 76.4135 229.523 76.4135 228.591C76.4135 227.568 77.3453 227.25 78.3908 227.114C78.9589 227.045 80.4817 226.886 80.7089 226.614V227.841C80.7089 228.932 79.8453 230 78.2544 230ZM88.2927 222.273H86.4291V220.182H85.0882V222.273H83.77V223.409H85.0882V228.864C85.0882 230.386 86.3155 231.114 87.4518 231.114C87.9518 231.114 88.27 231.023 88.4518 230.955L88.1791 229.75C88.0655 229.773 87.8837 229.818 87.5882 229.818C86.9973 229.818 86.4291 229.636 86.4291 228.5V223.409H88.2927V222.273ZM93.7615 231.182C95.6933 231.182 96.966 230 97.1933 228.455H95.8524C95.6024 229.409 94.807 229.977 93.7615 229.977C92.1706 229.977 91.1479 228.659 91.1479 226.636C91.1479 224.659 92.1933 223.364 93.7615 223.364C94.9433 223.364 95.6479 224.091 95.8524 224.886H97.1933C96.966 223.25 95.5797 222.159 93.7388 222.159C91.3751 222.159 89.807 224.023 89.807 226.682C89.807 229.295 91.307 231.182 93.7615 231.182ZM100.494 225.75C100.494 224.227 101.466 223.364 102.79 223.364C104.051 223.364 104.813 224.159 104.813 225.545V231H106.154V225.455C106.154 223.21 104.96 222.159 103.176 222.159C101.801 222.159 101.017 222.733 100.608 223.636H100.494V219.364H99.1535V231H100.494V225.75ZM115.084 231H116.402L118.311 224.295H118.448L120.357 231H121.675L124.334 222.273H122.925L121.038 228.932H120.948L119.107 222.273H117.675L115.811 228.955H115.72L113.834 222.273H112.425L115.084 231ZM126.107 231H127.448V222.273H126.107V231ZM126.788 220.818C127.311 220.818 127.743 220.409 127.743 219.909C127.743 219.409 127.311 219 126.788 219C126.266 219 125.834 219.409 125.834 219.909C125.834 220.409 126.266 220.818 126.788 220.818ZM133.699 222.273H131.835V220.182H130.494V222.273H129.176V223.409H130.494V228.864C130.494 230.386 131.722 231.114 132.858 231.114C133.358 231.114 133.676 231.023 133.858 230.955L133.585 229.75C133.472 229.773 133.29 229.818 132.994 229.818C132.404 229.818 131.835 229.636 131.835 228.5V223.409H133.699V222.273ZM137.244 225.75C137.244 224.227 138.216 223.364 139.54 223.364C140.801 223.364 141.563 224.159 141.563 225.545V231H142.904V225.455C142.904 223.21 141.71 222.159 139.926 222.159C138.551 222.159 137.767 222.733 137.358 223.636H137.244V219.364H135.904V231H137.244V225.75ZM152.425 231.205C153.948 231.205 154.743 230.386 155.016 229.818H155.084V231H156.425V225.25C156.425 222.477 154.311 222.159 153.198 222.159C151.879 222.159 150.379 222.614 149.698 224.205L150.97 224.659C151.266 224.023 151.965 223.341 153.243 223.341C154.476 223.341 155.084 223.994 155.084 225.114V225.159C155.084 225.807 154.425 225.75 152.834 225.955C151.215 226.165 149.448 226.523 149.448 228.523C149.448 230.227 150.766 231.205 152.425 231.205ZM152.629 230C151.561 230 150.788 229.523 150.788 228.591C150.788 227.568 151.72 227.25 152.766 227.114C153.334 227.045 154.857 226.886 155.084 226.614V227.841C155.084 228.932 154.22 230 152.629 230ZM166.918 231.182C168.85 231.182 170.122 230 170.35 228.455H169.009C168.759 229.409 167.963 229.977 166.918 229.977C165.327 229.977 164.304 228.659 164.304 226.636C164.304 224.659 165.35 223.364 166.918 223.364C168.1 223.364 168.804 224.091 169.009 224.886H170.35C170.122 223.25 168.736 222.159 166.895 222.159C164.531 222.159 162.963 224.023 162.963 226.682C162.963 229.295 164.463 231.182 166.918 231.182ZM177.81 227.432C177.81 229.068 176.56 229.818 175.56 229.818C174.446 229.818 173.651 229 173.651 227.727V222.273H172.31V227.818C172.31 230.045 173.492 231.114 175.128 231.114C176.446 231.114 177.31 230.409 177.719 229.523H177.81V231H179.151V222.273H177.81V227.432ZM181.607 231H182.948V225.477C182.948 224.295 183.879 223.432 185.152 223.432C185.51 223.432 185.879 223.5 185.97 223.523V222.159C185.817 222.148 185.465 222.136 185.266 222.136C184.22 222.136 183.311 222.727 182.993 223.591H182.902V222.273H181.607V231ZM187.56 231H188.901V225.477C188.901 224.295 189.833 223.432 191.105 223.432C191.463 223.432 191.833 223.5 191.923 223.523V222.159C191.77 222.148 191.418 222.136 191.219 222.136C190.173 222.136 189.264 222.727 188.946 223.591H188.855V222.273H187.56V231ZM196.906 231.182C198.679 231.182 199.975 230.295 200.384 228.977L199.088 228.614C198.747 229.523 197.958 229.977 196.906 229.977C195.333 229.977 194.247 228.96 194.185 227.091H200.52V226.523C200.52 223.273 198.588 222.159 196.77 222.159C194.406 222.159 192.838 224.023 192.838 226.705C192.838 229.386 194.384 231.182 196.906 231.182ZM194.185 225.932C194.276 224.574 195.236 223.364 196.77 223.364C198.225 223.364 199.156 224.455 199.156 225.932H194.185ZM203.901 225.75C203.901 224.227 204.844 223.364 206.128 223.364C207.372 223.364 208.128 224.176 208.128 225.545V231H209.469V225.455C209.469 223.227 208.281 222.159 206.514 222.159C205.196 222.159 204.378 222.75 203.969 223.636H203.855V222.273H202.56V231H203.901V225.75ZM215.715 222.273H213.851V220.182H212.51V222.273H211.192V223.409H212.51V228.864C212.51 230.386 213.737 231.114 214.874 231.114C215.374 231.114 215.692 231.023 215.874 230.955L215.601 229.75C215.487 229.773 215.306 229.818 215.01 229.818C214.419 229.818 213.851 229.636 213.851 228.5V223.409H215.715V222.273ZM222.232 231H223.573V225.545C223.573 224.267 224.504 223.364 225.55 223.364C226.567 223.364 227.277 224.028 227.277 225.023V231H228.641V225.318C228.641 224.193 229.345 223.364 230.573 223.364C231.527 223.364 232.345 223.869 232.345 225.159V231H233.686V225.159C233.686 223.108 232.584 222.159 231.027 222.159C229.777 222.159 228.862 222.733 228.413 223.636H228.323C227.891 222.705 227.129 222.159 225.982 222.159C224.845 222.159 224.004 222.705 223.641 223.636H223.527V222.273H222.232V231ZM241.638 227.432C241.638 229.068 240.388 229.818 239.388 229.818C238.274 229.818 237.479 229 237.479 227.727V222.273H236.138V227.818C236.138 230.045 237.32 231.114 238.956 231.114C240.274 231.114 241.138 230.409 241.547 229.523H241.638V231H242.979V222.273H241.638V227.432ZM251.617 224.227C251.196 222.989 250.253 222.159 248.526 222.159C246.685 222.159 245.321 223.205 245.321 224.682C245.321 225.886 246.037 226.693 247.639 227.068L249.094 227.409C249.975 227.614 250.389 228.034 250.389 228.636C250.389 229.386 249.594 230 248.344 230C247.247 230 246.56 229.528 246.321 228.591L245.048 228.909C245.361 230.392 246.583 231.182 248.367 231.182C250.395 231.182 251.776 230.074 251.776 228.568C251.776 227.352 251.014 226.585 249.458 226.205L248.162 225.886C247.128 225.631 246.662 225.284 246.662 224.614C246.662 223.864 247.458 223.318 248.526 223.318C249.696 223.318 250.179 223.966 250.412 224.568L251.617 224.227ZM257.453 231.182C259.226 231.182 260.521 230.295 260.931 228.977L259.635 228.614C259.294 229.523 258.504 229.977 257.453 229.977C255.879 229.977 254.794 228.96 254.732 227.091H261.067V226.523C261.067 223.273 259.135 222.159 257.317 222.159C254.953 222.159 253.385 224.023 253.385 226.705C253.385 229.386 254.931 231.182 257.453 231.182ZM254.732 225.932C254.823 224.574 255.783 223.364 257.317 223.364C258.771 223.364 259.703 224.455 259.703 225.932H254.732ZM268.607 227.432C268.607 229.068 267.357 229.818 266.357 229.818C265.243 229.818 264.448 229 264.448 227.727V222.273H263.107V227.818C263.107 230.045 264.288 231.114 265.925 231.114C267.243 231.114 268.107 230.409 268.516 229.523H268.607V231H269.948V222.273H268.607V227.432ZM272.404 231H273.744V225.545C273.744 224.267 274.676 223.364 275.722 223.364C276.739 223.364 277.449 224.028 277.449 225.023V231H278.813V225.318C278.813 224.193 279.517 223.364 280.744 223.364C281.699 223.364 282.517 223.869 282.517 225.159V231H283.858V225.159C283.858 223.108 282.756 222.159 281.199 222.159C279.949 222.159 279.034 222.733 278.585 223.636H278.494C278.063 222.705 277.301 222.159 276.154 222.159C275.017 222.159 274.176 222.705 273.813 223.636H273.699V222.273H272.404V231ZM290.81 234.273H292.151V229.659H292.264C292.56 230.136 293.128 231.182 294.81 231.182C296.992 231.182 298.514 229.432 298.514 226.659C298.514 223.909 296.992 222.159 294.787 222.159C293.083 222.159 292.56 223.205 292.264 223.659H292.105V222.273H290.81V234.273ZM292.128 226.636C292.128 224.682 292.992 223.364 294.628 223.364C296.333 223.364 297.173 224.795 297.173 226.636C297.173 228.5 296.31 229.977 294.628 229.977C293.014 229.977 292.128 228.614 292.128 226.636ZM300.56 231H301.901V222.273H300.56V231ZM301.242 220.818C301.764 220.818 302.196 220.409 302.196 219.909C302.196 219.409 301.764 219 301.242 219C300.719 219 300.287 219.409 300.287 219.909C300.287 220.409 300.719 220.818 301.242 220.818ZM308.016 231.182C309.788 231.182 311.084 230.295 311.493 228.977L310.198 228.614C309.857 229.523 309.067 229.977 308.016 229.977C306.442 229.977 305.357 228.96 305.294 227.091H311.629V226.523C311.629 223.273 309.698 222.159 307.879 222.159C305.516 222.159 303.948 224.023 303.948 226.705C303.948 229.386 305.493 231.182 308.016 231.182ZM305.294 225.932C305.385 224.574 306.345 223.364 307.879 223.364C309.334 223.364 310.266 224.455 310.266 225.932H305.294ZM317.215 231.182C319.146 231.182 320.419 230 320.646 228.455H319.306C319.056 229.409 318.26 229.977 317.215 229.977C315.624 229.977 314.601 228.659 314.601 226.636C314.601 224.659 315.646 223.364 317.215 223.364C318.396 223.364 319.101 224.091 319.306 224.886H320.646C320.419 223.25 319.033 222.159 317.192 222.159C314.828 222.159 313.26 224.023 313.26 226.682C313.26 229.295 314.76 231.182 317.215 231.182ZM326.266 231.182C328.038 231.182 329.334 230.295 329.743 228.977L328.448 228.614C328.107 229.523 327.317 229.977 326.266 229.977C324.692 229.977 323.607 228.96 323.544 227.091H329.879V226.523C329.879 223.273 327.948 222.159 326.129 222.159C323.766 222.159 322.198 224.023 322.198 226.705C322.198 229.386 323.743 231.182 326.266 231.182ZM323.544 225.932C323.635 224.574 324.595 223.364 326.129 223.364C327.584 223.364 328.516 224.455 328.516 225.932H323.544Z" fill="#2E4885"/>
<path d="M111.516 327.6H112.994L118.176 317.282V315.964H110.721V317.214H116.721V317.305L111.516 327.6ZM124.998 315.964V327.6H126.316V318.759H126.43L130.066 327.6H131.339L134.975 318.759H135.089V327.6H136.407V315.964H134.725L130.771 325.623H130.634L126.68 315.964H124.998ZM142.71 327.782C144.482 327.782 145.778 326.896 146.187 325.577L144.891 325.214C144.551 326.123 143.761 326.577 142.71 326.577C141.136 326.577 140.051 325.56 139.988 323.691H146.323V323.123C146.323 319.873 144.391 318.759 142.573 318.759C140.21 318.759 138.641 320.623 138.641 323.305C138.641 325.987 140.187 327.782 142.71 327.782ZM139.988 322.532C140.079 321.174 141.039 319.964 142.573 319.964C144.028 319.964 144.96 321.055 144.96 322.532H139.988ZM148.363 327.6H149.704V322.146C149.704 320.867 150.636 319.964 151.681 319.964C152.698 319.964 153.408 320.629 153.408 321.623V327.6H154.772V321.918C154.772 320.793 155.477 319.964 156.704 319.964C157.658 319.964 158.477 320.469 158.477 321.759V327.6H159.818V321.759C159.818 319.708 158.715 318.759 157.158 318.759C155.908 318.759 154.994 319.333 154.545 320.237H154.454C154.022 319.305 153.261 318.759 152.113 318.759C150.977 318.759 150.136 319.305 149.772 320.237H149.658V318.873H148.363V327.6ZM162.451 327.6H163.747V326.259H163.906C164.201 326.737 164.769 327.782 166.451 327.782C168.633 327.782 170.156 326.032 170.156 323.259C170.156 320.509 168.633 318.759 166.428 318.759C164.724 318.759 164.201 319.805 163.906 320.259H163.792V315.964H162.451V327.6ZM163.769 323.237C163.769 321.282 164.633 319.964 166.269 319.964C167.974 319.964 168.815 321.396 168.815 323.237C168.815 325.1 167.951 326.577 166.269 326.577C164.656 326.577 163.769 325.214 163.769 323.237ZM175.866 327.782C177.639 327.782 178.934 326.896 179.343 325.577L178.048 325.214C177.707 326.123 176.917 326.577 175.866 326.577C174.292 326.577 173.207 325.56 173.144 323.691H179.479V323.123C179.479 319.873 177.548 318.759 175.729 318.759C173.366 318.759 171.798 320.623 171.798 323.305C171.798 325.987 173.343 327.782 175.866 327.782ZM173.144 322.532C173.235 321.174 174.195 319.964 175.729 319.964C177.184 319.964 178.116 321.055 178.116 322.532H173.144ZM181.519 327.6H182.86V322.077C182.86 320.896 183.792 320.032 185.065 320.032C185.423 320.032 185.792 320.1 185.883 320.123V318.759C185.729 318.748 185.377 318.737 185.178 318.737C184.133 318.737 183.224 319.327 182.906 320.191H182.815V318.873H181.519V327.6ZM193.654 320.827C193.234 319.589 192.291 318.759 190.563 318.759C188.722 318.759 187.359 319.805 187.359 321.282C187.359 322.487 188.075 323.293 189.677 323.668L191.131 324.009C192.012 324.214 192.427 324.634 192.427 325.237C192.427 325.987 191.631 326.6 190.381 326.6C189.285 326.6 188.597 326.129 188.359 325.191L187.086 325.509C187.399 326.992 188.62 327.782 190.404 327.782C192.433 327.782 193.813 326.674 193.813 325.168C193.813 323.952 193.052 323.185 191.495 322.805L190.2 322.487C189.166 322.231 188.7 321.884 188.7 321.214C188.7 320.464 189.495 319.918 190.563 319.918C191.734 319.918 192.217 320.566 192.45 321.168L193.654 320.827Z" fill="#2E4885"/>
<circle cx="68.5828" cy="311.538" r="6.7376" fill="#2E4885"/>
<circle cx="84.3044" cy="318.276" r="5.98898" fill="#2E4885"/>
<path d="M60.3481 328.008C60.3481 323.46 64.035 319.773 68.583 319.773V319.773C73.131 319.773 76.8178 323.46 76.8178 328.008V339.237H60.3481V328.008Z" fill="#2E4885"/>
<path d="M76.8174 333.248C76.8174 329.114 80.1691 325.762 84.3036 325.762V325.762C88.4381 325.762 91.7898 329.114 91.7898 333.248V339.237H76.8174V333.248Z" fill="#2E4885"/>
<path d="M390.271 310.545H388.056L394.465 328H396.646L403.056 310.545H400.84L395.658 325.239H395.453L390.271 310.545ZM409.601 328.273C413.146 328.273 415.533 325.58 415.533 321.523C415.533 317.432 413.146 314.739 409.601 314.739C406.056 314.739 403.669 317.432 403.669 321.523C403.669 325.58 406.056 328.273 409.601 328.273ZM409.601 326.466C406.908 326.466 405.681 324.148 405.681 321.523C405.681 318.898 406.908 316.545 409.601 316.545C412.294 316.545 413.521 318.898 413.521 321.523C413.521 324.148 412.294 326.466 409.601 326.466ZM420.614 310.545H418.603V328H420.614V310.545ZM432.548 322.648C432.548 325.102 430.673 326.227 429.173 326.227C427.503 326.227 426.31 325 426.31 323.091V314.909H424.298V323.227C424.298 326.568 426.071 328.17 428.526 328.17C430.503 328.17 431.798 327.114 432.412 325.784H432.548V328H434.56V314.909H432.548V322.648ZM440.255 320.125C440.255 317.841 441.67 316.545 443.596 316.545C445.462 316.545 446.596 317.764 446.596 319.818V328H448.607V319.682C448.607 316.341 446.826 314.739 444.176 314.739C442.198 314.739 440.971 315.625 440.357 316.955H440.187V314.909H438.244V328H440.255V320.125ZM457.976 314.909H455.181V311.773H453.169V314.909H451.192V316.614H453.169V324.795C453.169 327.08 455.01 328.17 456.715 328.17C457.465 328.17 457.942 328.034 458.215 327.932L457.806 326.125C457.635 326.159 457.362 326.227 456.919 326.227C456.033 326.227 455.181 325.955 455.181 324.25V316.614H457.976V314.909ZM466.35 328.273C469.009 328.273 470.952 326.943 471.565 324.966L469.622 324.42C469.111 325.784 467.926 326.466 466.35 326.466C463.989 326.466 462.361 324.94 462.267 322.136H471.77V321.284C471.77 316.409 468.872 314.739 466.145 314.739C462.6 314.739 460.247 317.534 460.247 321.557C460.247 325.58 462.565 328.273 466.35 328.273ZM462.267 320.398C462.404 318.361 463.844 316.545 466.145 316.545C468.327 316.545 469.725 318.182 469.725 320.398H462.267ZM480.318 328.273C482.977 328.273 484.921 326.943 485.534 324.966L483.591 324.42C483.08 325.784 481.895 326.466 480.318 326.466C477.958 326.466 476.33 324.94 476.236 322.136H485.739V321.284C485.739 316.409 482.841 314.739 480.114 314.739C476.568 314.739 474.216 317.534 474.216 321.557C474.216 325.58 476.534 328.273 480.318 328.273ZM476.236 320.398C476.372 318.361 477.813 316.545 480.114 316.545C482.296 316.545 483.693 318.182 483.693 320.398H476.236ZM488.798 328H490.81V319.716C490.81 317.943 492.208 316.648 494.117 316.648C494.654 316.648 495.208 316.75 495.344 316.784V314.739C495.114 314.722 494.585 314.705 494.287 314.705C492.719 314.705 491.355 315.591 490.878 316.886H490.742V314.909H488.798V328Z" fill="#F5F7FB"/>
</svg>
