<svg width="1400" height="413" viewBox="0 0 1400 413" fill="none" xmlns="http://www.w3.org/2000/svg">
<rect x="461.469" y="192.361" width="32.4147" height="8.03169" fill="#A7D2FB"/>
<path d="M1172.92 212C1188.1 212 1200.42 199.688 1200.42 184.5C1200.42 169.312 1188.1 157 1172.92 157C1146.81 155.846 1145.42 169.312 1145.42 184.5C1145.42 199.688 1147 212 1172.92 212Z" fill="#557CD6"/>
<circle r="27.5" transform="matrix(4.37114e-08 1 1 -4.37114e-08 1165.07 184.5)" fill="#A7D2FB"/>
<path d="M1165.07 202.991C1175.28 202.991 1183.56 194.712 1183.56 184.5C1183.56 179.45 1181.54 174.873 1178.26 171.535C1174.9 168.124 1170.23 166.009 1165.07 166.009C1154.86 166.009 1146.58 174.288 1146.58 184.5C1146.58 194.712 1154.86 202.991 1165.07 202.991Z" stroke="#2E4885"/>
<path d="M1045.87 284.5H1350C1377.61 284.5 1400 306.886 1400 334.5V334.5C1400 362.114 1377.61 384.5 1350 384.5H1045.87V284.5Z" fill="#2E4885"/>
<circle cx="1168.16" cy="182.5" r="81" stroke="#5F8DF7" stroke-width="38"/>
<path d="M1372.4 263.036L1254.28 216.333" stroke="#5F8DF7" stroke-width="43"/>
<rect x="1015.14" y="267.646" width="69.7363" height="15.1053" rx="3" fill="#A7D2FB"/>
<rect x="1000" y="250.792" width="69.7363" height="15.1053" rx="3" fill="#A7D2FB"/>
<path d="M1081.43 269.888V280.51" stroke="black"/>
<path d="M1066.29 253.033V263.655" stroke="black"/>
<path d="M1067.93 269.888V280.51" stroke="black"/>
<path d="M1052.8 253.033V263.655" stroke="black"/>
<path d="M1054.75 269.888V280.51" stroke="black"/>
<path d="M1036.56 253.033V263.655" stroke="black"/>
<path d="M1044.35 269.888V280.51" stroke="black"/>
<path d="M1024.15 253.033V263.655" stroke="black"/>
<path d="M1030.78 269.888V280.51" stroke="black"/>
<path d="M1012.58 253.033V263.655" stroke="black"/>
<path d="M1018.58 269.888V280.51" stroke="black"/>
<path d="M1005.24 253.033V263.655" stroke="black"/>
<path d="M459.604 282.415C461.393 282.637 463.215 282.752 465.064 282.752C489.311 282.752 508.968 263.095 508.968 238.848C508.968 214.6 489.311 194.944 465.064 194.944V194.944C462.826 194.944 461.023 192.916 461.335 190.7C461.703 188.084 461.894 185.411 461.894 182.693C461.894 151.258 436.411 125.775 404.976 125.775C398.759 125.775 392.774 126.772 387.174 128.614C383.084 129.959 378.522 129.141 375.195 126.408C364.559 117.673 350.946 112.429 336.109 112.429C309.949 112.429 287.596 128.729 278.653 151.728C276.695 156.762 271.635 160.145 266.235 160.015C265.735 160.003 265.234 159.997 264.731 159.997C230.833 159.997 203.354 187.477 203.354 221.374C203.354 255.272 230.833 282.752 264.731 282.752C266.808 282.752 268.861 282.649 270.885 282.447V282.752H459.604V282.415Z" fill="#5F8DF7"/>
<path d="M459.605 282.415C461.394 282.637 463.216 282.751 465.065 282.751C489.313 282.751 508.969 263.095 508.969 238.848C508.969 214.6 489.313 194.944 465.065 194.944V194.944C462.827 194.944 461.024 192.916 461.336 190.7C461.705 188.083 461.895 185.41 461.895 182.693C461.895 151.258 436.412 125.774 404.977 125.774C396.21 125.774 387.906 127.756 380.489 131.297C380.489 167.657 380.489 218.63 380.488 282.447L459.605 282.751V282.415Z" fill="#2E4885"/>
<rect x="356.161" y="254.528" width="89.1279" height="28.2232" rx="2" fill="#A7D2FB"/>
<rect x="379.599" y="232.5" width="42.2523" height="20.1366" rx="2" fill="#A7D2FB"/>
<path d="M421.851 254.528H443.289C444.393 254.528 445.289 255.424 445.289 256.528V280.752C445.289 281.856 444.393 282.752 443.289 282.752H421.851V254.528Z" fill="#5F8DF7"/>
<path d="M703.407 81.3251C704.655 75.8691 709.508 72 715.105 72H990.486C998.193 72 1003.9 79.1617 1002.18 86.675L960.128 270.592H660.128L703.407 81.3251Z" fill="#5F8DF7"/>
<path d="M559.224 270.592H960.127V270.592C957.94 277.813 951.284 282.751 943.739 282.751H571.383C564.668 282.751 559.224 277.307 559.224 270.592V270.592Z" fill="#2E4885"/>
<path d="M899.557 159.5C899.557 173.307 910.75 184.5 924.557 184.5H942.261L757.031 184.5C743.224 184.5 732.031 173.307 732.031 159.5V118.622C732.031 104.815 720.839 93.6218 707.031 93.6217L624.091 93.6217H567.865C554.422 93.6217 543.524 82.7238 543.524 69.2806V69.2806V25.6383C543.524 11.8312 554.717 0.638306 568.524 0.638306H600.222H745.629H738.841C725.034 0.638306 713.841 11.8312 713.841 25.6383V68.6217C713.841 82.4288 725.034 93.6217 738.841 93.6217H801.446L874.728 93.6216C888.441 93.6216 899.557 104.738 899.557 118.451V118.451L899.557 159.5Z" fill="#A7D2FB"/>
<path d="M938.989 239.611L943.873 247.165L934.813 252.636" stroke="#A7D2FB" stroke-width="3"/>
<path d="M921.501 252.636L916.617 245.082L925.676 239.611" stroke="#A7D2FB" stroke-width="3"/>
<path d="M937.004 233.624L924.068 258.281" stroke="#A7D2FB" stroke-width="3"/>
<path d="M492.951 194.377H490.951V198.377H492.951V194.377ZM459.529 272.162H521.778V268.162H459.529V272.162ZM521.778 244.519H509.493V248.519H521.778V244.519ZM509.493 225.091H556.582V221.091H509.493V225.091ZM556.582 194.377H492.951V198.377H556.582V194.377ZM571.939 209.734C571.939 201.253 565.064 194.377 556.582 194.377V198.377C562.854 198.377 567.939 203.462 567.939 209.734H571.939ZM556.582 225.091C565.064 225.091 571.939 218.215 571.939 209.734H567.939C567.939 216.006 562.854 221.091 556.582 221.091V225.091ZM499.779 234.805C499.779 229.44 504.128 225.091 509.493 225.091V221.091C501.919 221.091 495.779 227.231 495.779 234.805H499.779ZM509.493 244.519C504.128 244.519 499.779 240.17 499.779 234.805H495.779C495.779 242.379 501.919 248.519 509.493 248.519V244.519ZM535.6 258.341C535.6 250.707 529.412 244.519 521.778 244.519V248.519C527.202 248.519 531.6 252.916 531.6 258.341H535.6ZM521.778 272.162C529.412 272.162 535.6 265.974 535.6 258.341H531.6C531.6 263.765 527.202 268.162 521.778 268.162V272.162Z" fill="#5F8DF7"/>
<circle cx="435.61" cy="270.162" r="5.51585" fill="#2E4885" stroke="#A7D2FB" stroke-width="3"/>
<rect x="439.625" y="266.146" width="25.5907" height="8.03169" fill="#A7D2FB"/>
<path d="M759.675 122.032H780.776" stroke="black" stroke-width="3"/>
<path d="M844.362 141.559H823.261" stroke="black" stroke-width="3"/>
<path d="M826.123 160.269L797.814 160.269" stroke="black" stroke-width="3"/>
<path d="M790.312 122.032H793.584" stroke="black" stroke-width="3"/>
<path d="M815.64 141.559H812.368" stroke="black" stroke-width="3"/>
<path d="M854.396 141.559H851.124" stroke="black" stroke-width="3"/>
<path d="M863.369 141.559H860.097" stroke="black" stroke-width="3"/>
<path d="M849.642 160.269H846.37" stroke="black" stroke-width="3"/>
<path d="M871.946 160.269H859.673" stroke="black" stroke-width="3"/>
<path d="M796.75 122.032H800.022" stroke="black" stroke-width="3"/>
<path d="M809.202 141.559H805.93" stroke="black" stroke-width="3"/>
<path d="M843.204 160.269H839.932" stroke="black" stroke-width="3"/>
<path d="M810.188 122.032H813.459" stroke="black" stroke-width="3"/>
<path d="M795.765 141.559H792.493" stroke="black" stroke-width="3"/>
<path d="M836.39 160.269H833.118" stroke="black" stroke-width="3"/>
<path d="M823.404 122.032H826.676" stroke="black" stroke-width="3"/>
<path d="M782.548 141.559H779.276" stroke="black" stroke-width="3"/>
<path d="M782.548 160.269H779.276" stroke="black" stroke-width="3"/>
<path d="M816.625 122.032H819.897" stroke="black" stroke-width="3"/>
<path d="M789.327 141.559H786.055" stroke="black" stroke-width="3"/>
<path d="M789.327 160.269H786.055" stroke="black" stroke-width="3"/>
<path d="M829.842 122.032H833.114" stroke="black" stroke-width="3"/>
<path d="M776.11 160.269H772.839" stroke="black" stroke-width="3"/>
<path d="M844.006 122.032H847.278" stroke="black" stroke-width="3"/>
<path d="M768.946 141.559H765.675" stroke="black" stroke-width="3"/>
<path d="M682.211 66.5166H661.109" stroke="black" stroke-width="3"/>
<path d="M597.523 46.9894H618.625" stroke="black" stroke-width="3"/>
<path d="M615.763 28.279L644.072 28.279" stroke="black" stroke-width="3"/>
<path d="M651.573 66.5166H648.301" stroke="black" stroke-width="3"/>
<path d="M626.246 46.9894H629.518" stroke="black" stroke-width="3"/>
<path d="M587.49 46.9894H590.762" stroke="black" stroke-width="3"/>
<path d="M578.517 46.9894H581.788" stroke="black" stroke-width="3"/>
<path d="M592.244 28.279H595.516" stroke="black" stroke-width="3"/>
<path d="M569.939 28.279H582.213" stroke="black" stroke-width="3"/>
<path d="M645.136 66.5166H641.864" stroke="black" stroke-width="3"/>
<path d="M632.684 46.9894H635.955" stroke="black" stroke-width="3"/>
<path d="M598.682 28.279H601.953" stroke="black" stroke-width="3"/>
<path d="M631.698 66.5166H628.426" stroke="black" stroke-width="3"/>
<path d="M646.121 46.9894H649.393" stroke="black" stroke-width="3"/>
<path d="M605.496 28.279H608.768" stroke="black" stroke-width="3"/>
<path d="M618.481 66.5166H615.21" stroke="black" stroke-width="3"/>
<path d="M659.338 46.9894H662.61" stroke="black" stroke-width="3"/>
<path d="M659.338 28.279H662.61" stroke="black" stroke-width="3"/>
<path d="M625.261 66.5166H621.989" stroke="black" stroke-width="3"/>
<path d="M652.559 46.9894H655.83" stroke="black" stroke-width="3"/>
<path d="M652.559 28.279H655.83" stroke="black" stroke-width="3"/>
<path d="M612.044 66.5166H608.772" stroke="black" stroke-width="3"/>
<path d="M665.775 28.279H669.047" stroke="black" stroke-width="3"/>
<path d="M597.88 66.5166H594.608" stroke="black" stroke-width="3"/>
<path d="M672.939 46.9894H676.211" stroke="black" stroke-width="3"/>
<path d="M897.97 204.654C900.295 194.36 909.44 187.05 919.993 187.05V187.05H762.094H754.472C746.62 187.05 739.612 191.976 736.954 199.365V199.365L730.277 221.063C727.917 228.734 733.653 236.5 741.678 236.5V236.5H859.891H878.019C885.361 236.5 891.757 231.493 893.519 224.365V224.365L897.97 204.654Z" fill="url(#paint0_linear)"/>
<path d="M0 334.5C0 306.886 22.3858 284.5 50 284.5H1106.9C1134.51 284.5 1156.9 306.886 1156.9 334.5V334.5C1156.9 362.114 1134.51 384.5 1106.9 384.5H50C22.3858 384.5 0 362.114 0 334.5V334.5Z" fill="#A7D2FB"/>
<path d="M1036.26 352.768C1046.02 343.005 1046.02 327.176 1036.26 317.413C1026.5 307.65 1010.67 307.65 1000.9 317.413C1006.08 322.587 1008.82 325.327 1018.58 335.09C1028.34 344.853 1031.01 347.522 1036.26 352.768Z" fill="#2E4885"/>
<path d="M1045.87 361.671C1060.39 346.768 1060.28 322.912 1045.52 308.154C1030.76 293.395 1006.9 293.278 991.999 307.802C996.555 312.358 999.928 315.731 1004.94 320.743C1008.47 324.268 1012.8 328.606 1018.93 334.737L1035.19 350.997L1045.87 361.671Z" stroke="#2E4885"/>
<path d="M1036.26 352.768C1026.5 362.531 1010.67 362.531 1000.9 352.768C991.14 343.005 991.14 327.176 1000.9 317.413C1006.08 322.587 1008.82 325.327 1018.58 335.09C1028.34 344.853 1031.01 347.522 1036.26 352.768Z" fill="#5F8DF7"/>
<path d="M1045.16 362.378C1030.26 376.903 1006.4 376.786 991.644 362.027C976.885 347.268 976.768 323.413 991.292 308.51C995.848 313.065 999.221 316.438 1004.23 321.45C1007.76 324.976 1012.1 329.313 1018.23 335.444L1034.49 351.704L1045.16 362.378Z" stroke="#5F8DF7"/>
<path d="M1011.49 327.543L1025.63 341.686" stroke="#A7D2FB" stroke-width="6"/>
<path d="M1025.65 327.522L1011.51 341.664" stroke="#A7D2FB" stroke-width="6"/>
<path d="M578.307 352.768C588.07 343.005 588.07 327.176 578.307 317.413C568.544 307.65 552.715 307.65 542.952 317.413C548.126 322.587 550.866 325.327 560.629 335.09C570.392 344.853 573.061 347.522 578.307 352.768Z" fill="#2E4885"/>
<path d="M587.917 361.671C602.442 346.768 602.325 322.912 587.566 308.154C572.807 293.395 548.951 293.278 534.048 307.802C538.604 312.358 541.977 315.731 546.989 320.743C550.514 324.268 554.851 328.606 560.983 334.737L577.243 350.997L587.917 361.671Z" stroke="#2E4885"/>
<path d="M578.307 352.768C568.544 362.531 552.715 362.531 542.952 352.768C533.189 343.005 533.189 327.176 542.952 317.413C548.126 322.587 550.866 325.327 560.629 335.09C570.392 344.853 573.061 347.522 578.307 352.768Z" fill="#5F8DF7"/>
<path d="M587.21 362.378C572.307 376.903 548.451 376.786 533.692 362.027C518.934 347.268 518.817 323.413 533.341 308.51C537.897 313.065 541.269 316.438 546.281 321.45C549.807 324.976 554.144 329.313 560.276 335.444L576.536 351.704L587.21 362.378Z" stroke="#5F8DF7"/>
<path d="M553.536 327.543L567.678 341.686" stroke="#A7D2FB" stroke-width="6"/>
<path d="M567.699 327.522L553.557 341.664" stroke="#A7D2FB" stroke-width="6"/>
<path d="M190.81 352.768C200.573 343.005 200.573 327.176 190.81 317.413C181.047 307.65 165.218 307.65 155.455 317.413C160.629 322.587 163.369 325.327 173.132 335.09C182.895 344.853 185.564 347.522 190.81 352.768Z" fill="#2E4885"/>
<path d="M200.42 361.671C214.945 346.768 214.828 322.912 200.069 308.154C185.31 293.395 161.454 293.278 146.551 307.802C151.107 312.358 154.48 315.731 159.491 320.743C163.017 324.268 167.354 328.606 173.486 334.737L189.746 350.997L200.42 361.671Z" stroke="#2E4885"/>
<path d="M190.81 352.768C181.047 362.531 165.218 362.531 155.455 352.768C145.691 343.005 145.691 327.176 155.455 317.413C160.629 322.587 163.369 325.327 173.132 335.09C182.895 344.853 185.564 347.522 190.81 352.768Z" fill="#5F8DF7"/>
<path d="M199.713 362.378C184.81 376.903 160.954 376.786 146.195 362.027C131.437 347.268 131.32 323.413 145.844 308.51C150.4 313.065 153.772 316.438 158.784 321.45C162.31 324.976 166.647 329.313 172.779 335.444L189.039 351.704L199.713 362.378Z" stroke="#5F8DF7"/>
<path d="M166.039 327.543L180.181 341.686" stroke="#A7D2FB" stroke-width="6"/>
<path d="M180.202 327.522L166.06 341.664" stroke="#A7D2FB" stroke-width="6"/>
<path d="M39.1647 352.768C29.4016 343.005 29.4016 327.176 39.1647 317.413C48.9278 307.65 64.7569 307.65 74.52 317.413C69.3458 322.587 66.6055 325.327 56.8423 335.09C47.0792 344.853 44.4102 347.522 39.1647 352.768Z" fill="#2E4885"/>
<path d="M29.5545 361.671C15.03 346.768 15.1471 322.912 29.9058 308.154C44.6645 293.395 68.5204 293.278 83.4234 307.802C78.8675 312.358 75.495 315.731 70.4831 320.743C66.9573 324.268 62.6202 328.606 56.489 334.737L40.2286 350.997L29.5545 361.671Z" stroke="#2E4885"/>
<path d="M39.1647 352.768C48.9278 362.531 64.7569 362.531 74.52 352.768C84.2831 343.005 84.2831 327.176 74.52 317.413C69.346 322.587 66.6055 325.327 56.8424 335.09C47.0792 344.853 44.4102 347.522 39.1647 352.768Z" fill="#5F8DF7"/>
<path d="M30.2616 362.378C45.1647 376.903 69.0206 376.786 83.7793 362.027C98.538 347.268 98.6551 323.413 84.1306 308.51C79.5748 313.065 76.2022 316.438 71.1903 321.45C67.6645 324.976 63.3273 329.313 57.1961 335.444L40.9357 351.704L30.2616 362.378Z" stroke="#5F8DF7"/>
<path d="M63.936 327.543L49.7939 341.686" stroke="#A7D2FB" stroke-width="6"/>
<path d="M49.7725 327.522L63.9146 341.664" stroke="#A7D2FB" stroke-width="6"/>
<path d="M861.536 335.09C861.536 321.283 872.729 310.09 886.536 310.09C900.343 310.09 911.536 321.283 911.536 335.09C904.219 335.09 900.343 335.09 886.536 335.09C872.729 335.09 868.954 335.09 861.536 335.09Z" fill="#2E4885"/>
<path d="M848.445 334.59C848.713 313.782 865.664 296.996 886.536 296.996C907.408 296.996 924.359 313.782 924.627 334.59C918.184 334.59 913.415 334.59 906.327 334.59C901.341 334.59 895.207 334.59 886.536 334.59L863.54 334.59L848.445 334.59Z" stroke="#2E4885"/>
<path d="M861.536 335.09C861.536 348.898 872.729 360.09 886.536 360.09C900.343 360.09 911.536 348.898 911.536 335.09C904.219 335.091 900.343 335.09 886.536 335.09C872.729 335.09 868.954 335.09 861.536 335.09Z" fill="#5F8DF7"/>
<path d="M848.445 335.59C848.713 356.399 865.664 373.185 886.536 373.185C907.408 373.185 924.359 356.399 924.627 335.59C918.184 335.591 913.415 335.59 906.327 335.59C901.341 335.59 895.207 335.59 886.536 335.59L863.54 335.59L848.445 335.59Z" stroke="#5F8DF7"/>
<path d="M896.889 334.77L876.889 334.77" stroke="#A7D2FB" stroke-width="6"/>
<path d="M886.889 324.74L886.889 344.74" stroke="#A7D2FB" stroke-width="6"/>
<defs>
<linearGradient id="paint0_linear" x1="824.26" y1="187.05" x2="824.26" y2="229.563" gradientUnits="userSpaceOnUse">
<stop stop-color="#A7D2FB"/>
<stop offset="1" stop-color="#5F8DF7" stop-opacity="0"/>
</linearGradient>
</defs>
</svg>
