<svg width="795" height="388" viewBox="0 0 795 388" fill="none" xmlns="http://www.w3.org/2000/svg">
<path d="M530.226 240.027C530.226 226.22 519.033 215.027 505.226 215.027L198.737 215.027V215.027C211.505 215.027 221.856 225.378 221.856 238.146V345.629V363C221.856 376.807 233.049 388 246.856 388H265.738H557.007H555.226C541.419 388 530.226 376.807 530.226 363V345.629V240.027Z" fill="#5F8DF7"/>
<path d="M441.461 25.1987C441.461 11.3916 430.268 0.19873 416.461 0.19873H0.0250244H3.44041C17.2475 0.19873 28.4404 11.3916 28.4404 25.1987V53.6999V190.027C28.4404 203.834 39.6333 215.027 53.4404 215.027H469.829H466.461C452.654 215.027 441.461 203.834 441.461 190.027V162.308V25.1987Z" fill="#A7D2FB"/>
<circle cx="87.6437" cy="44.984" r="13.984" fill="#2E4885"/>
<path d="M81.5283 53.5458H93.7594V67.0001L87.6439 62.7192L81.5283 67.0001V53.5458Z" fill="#2E4885"/>
<path d="M126.292 39.8592V52.2342C126.284 54.2455 125.346 55.3194 123.676 55.3194C122.133 55.3194 121.059 54.3989 121.051 52.9501H118.434C118.434 55.8989 120.65 57.5524 123.607 57.5524C126.812 57.5524 128.909 55.5921 128.917 52.2342V39.8592H126.292ZM138.06 57.5779C141.75 57.5779 144.162 54.8762 144.162 50.8279C144.162 46.7541 141.75 44.0524 138.06 44.0524C134.369 44.0524 131.958 46.7541 131.958 50.8279C131.958 54.8762 134.369 57.5779 138.06 57.5779ZM138.068 55.4387C135.656 55.4387 134.531 53.3336 134.531 50.8194C134.531 48.3137 135.656 46.183 138.068 46.183C140.463 46.183 141.588 48.3137 141.588 50.8194C141.588 53.3336 140.463 55.4387 138.068 55.4387ZM149.555 49.541C149.555 47.4529 150.876 46.2597 152.691 46.2597C154.447 46.2597 155.495 47.3762 155.495 49.2938V57.3137H158.043V48.987C158.043 45.7228 156.254 44.0524 153.561 44.0524C151.524 44.0524 150.296 44.9387 149.683 46.3535H149.521V39.8592H147.007V57.3137H149.555V49.541ZM163.992 49.541C163.992 47.4529 165.271 46.2597 167.043 46.2597C168.774 46.2597 169.822 47.3933 169.822 49.2938V57.3137H172.37V48.987C172.37 45.7484 170.589 44.0524 167.913 44.0524C165.944 44.0524 164.657 44.9643 164.052 46.3535H163.89V44.2228H161.444V57.3137H163.992V49.541Z" fill="#2E4885"/>
<path d="M693.62 109C693.62 164.826 693.62 177.076 693.62 210.081C637.795 210.081 592.539 164.826 592.539 109C592.539 53.1746 637.795 7.91907 693.62 7.91907C693.62 42.2229 693.62 53.1746 693.62 109Z" fill="#2E4885"/>
<path d="M693.62 109C693.62 164.825 693.62 177.076 693.62 210.081C749.445 210.081 794.701 164.825 794.701 109C794.701 53.1745 749.445 7.91895 693.62 7.91895C693.62 42.2228 693.62 53.1745 693.62 109Z" fill="#5F8DF7"/>
<circle cx="693.62" cy="109" r="71.5398" fill="#F5F7FB"/>
<rect x="688.026" y="47.7451" width="10.5135" height="63.938" fill="#2E4885"/>
<rect x="698.54" y="165.513" width="10.1081" height="10.1081" transform="rotate(180 698.54 165.513)" fill="#2E4885"/>
<rect x="634.602" y="111.683" width="10.1081" height="10.1081" transform="rotate(-90 634.602 111.683)" fill="#2E4885"/>
<rect x="742.261" y="111.683" width="10.1081" height="10.1081" transform="rotate(-90 742.261 111.683)" fill="#5F8DF7"/>
<rect x="655.423" y="151.84" width="10.1081" height="10.1081" transform="rotate(-135 655.423 151.84)" fill="#2E4885"/>
<rect x="731.549" y="75.7129" width="10.1081" height="10.1081" transform="rotate(-135 731.549 75.7129)" fill="#5F8DF7"/>
<rect x="648.275" y="68.5656" width="10.1081" height="10.1081" transform="rotate(-45 648.275 68.5656)" fill="#2E4885"/>
<rect x="714.136" y="134.426" width="10.1081" height="24.6268" transform="rotate(-45 714.136 134.426)" fill="#5F8DF7"/>
<circle cx="277.02" cy="324.774" r="6.26089" fill="#2E4885"/>
<circle cx="291.628" cy="331.035" r="5.56524" fill="#2E4885"/>
<path d="M269.368 340.078C269.368 335.852 272.794 332.426 277.02 332.426V332.426C281.246 332.426 284.672 335.852 284.672 340.078V350.513H269.368V340.078Z" fill="#2E4885"/>
<path d="M284.672 344.948C284.672 341.106 287.787 337.991 291.629 337.991V337.991C295.471 337.991 298.585 341.106 298.585 344.948V350.513H284.672V344.948Z" fill="#2E4885"/>
<path d="M414.774 293.156H376.399" stroke="#2E4885" stroke-width="5"/>
<path d="M381.604 259.129L330.121 259.129" stroke="#2E4885" stroke-width="5"/>
<path d="M362.539 293.156H356.589" stroke="#2E4885" stroke-width="5"/>
<path d="M433.021 293.156H427.071" stroke="#2E4885" stroke-width="5"/>
<path d="M449.341 293.156H443.391" stroke="#2E4885" stroke-width="5"/>
<path d="M464.938 293.156H458.988" stroke="#2E4885" stroke-width="5"/>
<path d="M424.375 259.129H418.425" stroke="#2E4885" stroke-width="5"/>
<path d="M464.939 259.129H442.618" stroke="#2E4885" stroke-width="5"/>
<path d="M350.832 293.156H344.882" stroke="#2E4885" stroke-width="5"/>
<path d="M412.668 259.129H406.718" stroke="#2E4885" stroke-width="5"/>
<path d="M326.394 293.156H320.444" stroke="#2E4885" stroke-width="5"/>
<path d="M400.275 259.129H394.325" stroke="#2E4885" stroke-width="5"/>
<path d="M302.358 293.156H296.408" stroke="#2E4885" stroke-width="5"/>
<path d="M289.329 293.156H283.379" stroke="#2E4885" stroke-width="5"/>
<path d="M302.358 259.129H296.408" stroke="#2E4885" stroke-width="5"/>
<path d="M314.687 293.156H308.737" stroke="#2E4885" stroke-width="5"/>
<path d="M314.687 259.129H308.737" stroke="#2E4885" stroke-width="5"/>
<path d="M290.651 259.129H284.701" stroke="#2E4885" stroke-width="5"/>
<path d="M277.622 259.129H271.672" stroke="#2E4885" stroke-width="5"/>
<path d="M277.622 293.156H271.672" stroke="#2E4885" stroke-width="5"/>
<path d="M75.6053 90.9682H74.1962V102.605H75.6053V90.9682ZM79.5897 97.3546C79.5897 95.8318 80.5328 94.9682 81.8169 94.9682C83.0613 94.9682 83.8169 95.7807 83.8169 97.15V102.605H85.1578V97.0591C85.1578 94.8318 83.9703 93.7636 82.2033 93.7636C80.8851 93.7636 80.0669 94.3546 79.6578 95.2409H79.5442V93.8773H78.2488V102.605H79.5897V97.3546ZM95.6536 102.786C98.0172 102.786 99.6081 100.991 99.6081 98.2864C99.6081 95.5591 98.0172 93.7636 95.6536 93.7636C93.29 93.7636 91.699 95.5591 91.699 98.2864C91.699 100.991 93.29 102.786 95.6536 102.786ZM95.6536 101.582C93.8581 101.582 93.04 100.036 93.04 98.2864C93.04 96.5364 93.8581 94.9682 95.6536 94.9682C97.449 94.9682 98.2672 96.5364 98.2672 98.2864C98.2672 100.036 97.449 101.582 95.6536 101.582ZM101.655 102.605H102.996V97.0818C102.996 95.9 103.928 95.0364 105.2 95.0364C105.558 95.0364 105.928 95.1046 106.019 95.1273V93.7636C105.865 93.7523 105.513 93.7409 105.314 93.7409C104.269 93.7409 103.36 94.3318 103.041 95.1955H102.95V93.8773H101.655V102.605ZM110.638 102.786C112.32 102.786 112.888 101.741 113.183 101.264H113.343V102.605H114.638V90.9682H113.297V95.2636H113.183C112.888 94.8091 112.365 93.7636 110.661 93.7636C108.456 93.7636 106.933 95.5136 106.933 98.2636C106.933 101.036 108.456 102.786 110.638 102.786ZM110.82 101.582C109.138 101.582 108.274 100.105 108.274 98.2409C108.274 96.4 109.115 94.9682 110.82 94.9682C112.456 94.9682 113.32 96.2864 113.32 98.2409C113.32 100.218 112.433 101.582 110.82 101.582ZM120.939 102.786C122.712 102.786 124.007 101.9 124.416 100.582L123.121 100.218C122.78 101.127 121.99 101.582 120.939 101.582C119.365 101.582 118.28 100.565 118.218 98.6955H124.553V98.1273C124.553 94.8773 122.621 93.7636 120.803 93.7636C118.439 93.7636 116.871 95.6273 116.871 98.3091C116.871 100.991 118.416 102.786 120.939 102.786ZM118.218 97.5364C118.308 96.1784 119.269 94.9682 120.803 94.9682C122.257 94.9682 123.189 96.0591 123.189 97.5364H118.218ZM126.593 102.605H127.933V97.0818C127.933 95.9 128.865 95.0364 130.138 95.0364C130.496 95.0364 130.865 95.1046 130.956 95.1273V93.7636C130.803 93.7523 130.45 93.7409 130.252 93.7409C129.206 93.7409 128.297 94.3318 127.979 95.1955H127.888V93.8773H126.593V102.605ZM140.841 93.8773H138.977V91.7864H137.637V93.8773H136.318V95.0136H137.637V100.468C137.637 101.991 138.864 102.718 140 102.718C140.5 102.718 140.818 102.627 141 102.559L140.727 101.355C140.614 101.377 140.432 101.423 140.137 101.423C139.546 101.423 138.977 101.241 138.977 100.105V95.0136H140.841V93.8773ZM146.31 102.786C148.673 102.786 150.264 100.991 150.264 98.2864C150.264 95.5591 148.673 93.7636 146.31 93.7636C143.946 93.7636 142.355 95.5591 142.355 98.2864C142.355 100.991 143.946 102.786 146.31 102.786ZM146.31 101.582C144.514 101.582 143.696 100.036 143.696 98.2864C143.696 96.5364 144.514 94.9682 146.31 94.9682C148.105 94.9682 148.923 96.5364 148.923 98.2864C148.923 100.036 148.105 101.582 146.31 101.582ZM160.107 102.786C161.789 102.786 162.357 101.741 162.652 101.264H162.811V102.605H164.107V90.9682H162.766V95.2636H162.652C162.357 94.8091 161.834 93.7636 160.129 93.7636C157.925 93.7636 156.402 95.5136 156.402 98.2636C156.402 101.036 157.925 102.786 160.107 102.786ZM160.289 101.582C158.607 101.582 157.743 100.105 157.743 98.2409C157.743 96.4 158.584 94.9682 160.289 94.9682C161.925 94.9682 162.789 96.2864 162.789 98.2409C162.789 100.218 161.902 101.582 160.289 101.582ZM170.408 102.786C172.181 102.786 173.476 101.9 173.885 100.582L172.59 100.218C172.249 101.127 171.459 101.582 170.408 101.582C168.834 101.582 167.749 100.565 167.686 98.6955H174.021V98.1273C174.021 94.8773 172.09 93.7636 170.271 93.7636C167.908 93.7636 166.34 95.6273 166.34 98.3091C166.34 100.991 167.885 102.786 170.408 102.786ZM167.686 97.5364C167.777 96.1784 168.737 94.9682 170.271 94.9682C171.726 94.9682 172.658 96.0591 172.658 97.5364H167.686ZM179.607 102.786C181.539 102.786 182.811 101.605 183.039 100.059H181.698C181.448 101.014 180.652 101.582 179.607 101.582C178.016 101.582 176.993 100.264 176.993 98.2409C176.993 96.2636 178.039 94.9682 179.607 94.9682C180.789 94.9682 181.493 95.6955 181.698 96.4909H183.039C182.811 94.8546 181.425 93.7636 179.584 93.7636C177.22 93.7636 175.652 95.6273 175.652 98.2864C175.652 100.9 177.152 102.786 179.607 102.786ZM184.999 102.605H186.34V93.8773H184.999V102.605ZM185.681 92.4227C186.203 92.4227 186.635 92.0136 186.635 91.5136C186.635 91.0136 186.203 90.6046 185.681 90.6046C185.158 90.6046 184.726 91.0136 184.726 91.5136C184.726 92.0136 185.158 92.4227 185.681 92.4227ZM192.091 102.786C193.773 102.786 194.341 101.741 194.637 101.264H194.796V102.605H196.091V90.9682H194.75V95.2636H194.637C194.341 94.8091 193.818 93.7636 192.114 93.7636C189.909 93.7636 188.387 95.5136 188.387 98.2636C188.387 101.036 189.909 102.786 192.091 102.786ZM192.273 101.582C190.591 101.582 189.727 100.105 189.727 98.2409C189.727 96.4 190.568 94.9682 192.273 94.9682C193.909 94.9682 194.773 96.2864 194.773 98.2409C194.773 100.218 193.887 101.582 192.273 101.582ZM202.392 102.786C204.165 102.786 205.46 101.9 205.869 100.582L204.574 100.218C204.233 101.127 203.443 101.582 202.392 101.582C200.818 101.582 199.733 100.565 199.671 98.6955H206.006V98.1273C206.006 94.8773 204.074 93.7636 202.256 93.7636C199.892 93.7636 198.324 95.6273 198.324 98.3091C198.324 100.991 199.869 102.786 202.392 102.786ZM199.671 97.5364C199.762 96.1784 200.722 94.9682 202.256 94.9682C203.71 94.9682 204.642 96.0591 204.642 97.5364H199.671ZM216.341 93.8773H214.477V91.7864H213.137V93.8773H211.818V95.0136H213.137V100.468C213.137 101.991 214.364 102.718 215.5 102.718C216 102.718 216.318 102.627 216.5 102.559L216.227 101.355C216.114 101.377 215.932 101.423 215.637 101.423C215.046 101.423 214.477 101.241 214.477 100.105V95.0136H216.341V93.8773ZM219.887 97.3546C219.887 95.8318 220.858 94.9682 222.182 94.9682C223.443 94.9682 224.205 95.7636 224.205 97.15V102.605H225.546V97.0591C225.546 94.8148 224.352 93.7636 222.568 93.7636C221.193 93.7636 220.409 94.3375 220 95.2409H219.887V90.9682H218.546V102.605H219.887V97.3546ZM231.658 102.786C233.431 102.786 234.726 101.9 235.135 100.582L233.84 100.218C233.499 101.127 232.709 101.582 231.658 101.582C230.084 101.582 228.999 100.565 228.936 98.6955H235.271V98.1273C235.271 94.8773 233.34 93.7636 231.521 93.7636C229.158 93.7636 227.59 95.6273 227.59 98.3091C227.59 100.991 229.135 102.786 231.658 102.786ZM228.936 97.5364C229.027 96.1784 229.987 94.9682 231.521 94.9682C232.976 94.9682 233.908 96.0591 233.908 97.5364H228.936ZM241.811 102.605H243.152V97.15C243.152 95.8716 244.084 94.9682 245.129 94.9682C246.146 94.9682 246.857 95.633 246.857 96.6273V102.605H248.22V96.9227C248.22 95.7977 248.925 94.9682 250.152 94.9682C251.107 94.9682 251.925 95.4739 251.925 96.7636V102.605H253.266V96.7636C253.266 94.7125 252.164 93.7636 250.607 93.7636C249.357 93.7636 248.442 94.3375 247.993 95.2409H247.902C247.47 94.3091 246.709 93.7636 245.561 93.7636C244.425 93.7636 243.584 94.3091 243.22 95.2409H243.107V93.8773H241.811V102.605ZM259.263 102.786C261.627 102.786 263.218 100.991 263.218 98.2864C263.218 95.5591 261.627 93.7636 259.263 93.7636C256.899 93.7636 255.308 95.5591 255.308 98.2864C255.308 100.991 256.899 102.786 259.263 102.786ZM259.263 101.582C257.468 101.582 256.649 100.036 256.649 98.2864C256.649 96.5364 257.468 94.9682 259.263 94.9682C261.058 94.9682 261.877 96.5364 261.877 98.2864C261.877 100.036 261.058 101.582 259.263 101.582ZM271.446 95.8318C271.026 94.5932 270.083 93.7636 268.355 93.7636C266.514 93.7636 265.151 94.8091 265.151 96.2864C265.151 97.4909 265.867 98.2977 267.469 98.6727L268.923 99.0136C269.804 99.2182 270.219 99.6386 270.219 100.241C270.219 100.991 269.423 101.605 268.173 101.605C267.077 101.605 266.389 101.133 266.151 100.195L264.878 100.514C265.191 101.997 266.412 102.786 268.196 102.786C270.225 102.786 271.605 101.678 271.605 100.173C271.605 98.9568 270.844 98.1898 269.287 97.8091L267.992 97.4909C266.958 97.2352 266.492 96.8886 266.492 96.2182C266.492 95.4682 267.287 94.9227 268.355 94.9227C269.526 94.9227 270.009 95.5705 270.242 96.1727L271.446 95.8318ZM277.419 93.8773H275.556V91.7864H274.215V93.8773H272.896V95.0136H274.215V100.468C274.215 101.991 275.442 102.718 276.578 102.718C277.078 102.718 277.396 102.627 277.578 102.559L277.306 101.355C277.192 101.377 277.01 101.423 276.715 101.423C276.124 101.423 275.556 101.241 275.556 100.105V95.0136H277.419V93.8773ZM289.436 99.0364C289.436 100.673 288.186 101.423 287.186 101.423C286.073 101.423 285.277 100.605 285.277 99.3318V93.8773H283.936V99.4227C283.936 101.65 285.118 102.718 286.754 102.718C288.073 102.718 288.936 102.014 289.345 101.127H289.436V102.605H290.777V93.8773H289.436V99.0364ZM299.415 95.8318C298.994 94.5932 298.051 93.7636 296.324 93.7636C294.483 93.7636 293.119 94.8091 293.119 96.2864C293.119 97.4909 293.835 98.2977 295.438 98.6727L296.892 99.0136C297.773 99.2182 298.188 99.6386 298.188 100.241C298.188 100.991 297.392 101.605 296.142 101.605C295.046 101.605 294.358 101.133 294.119 100.195L292.847 100.514C293.159 101.997 294.381 102.786 296.165 102.786C298.193 102.786 299.574 101.678 299.574 100.173C299.574 98.9568 298.813 98.1898 297.256 97.8091L295.96 97.4909C294.926 97.2352 294.46 96.8886 294.46 96.2182C294.46 95.4682 295.256 94.9227 296.324 94.9227C297.494 94.9227 297.977 95.5705 298.21 96.1727L299.415 95.8318ZM305.252 102.786C307.024 102.786 308.32 101.9 308.729 100.582L307.433 100.218C307.093 101.127 306.303 101.582 305.252 101.582C303.678 101.582 302.593 100.565 302.53 98.6955H308.865V98.1273C308.865 94.8773 306.933 93.7636 305.115 93.7636C302.752 93.7636 301.183 95.6273 301.183 98.3091C301.183 100.991 302.729 102.786 305.252 102.786ZM302.53 97.5364C302.621 96.1784 303.581 94.9682 305.115 94.9682C306.57 94.9682 307.502 96.0591 307.502 97.5364H302.53ZM314.791 93.8773H312.837V92.9909C312.837 92.1273 313.2 91.6727 314.087 91.6727C314.473 91.6727 314.7 91.7636 314.837 91.8091L315.223 90.65C315.019 90.5591 314.61 90.4227 313.95 90.4227C312.7 90.4227 311.496 91.1727 311.496 92.6727V93.8773H310.087V95.0136H311.496V102.605H312.837V95.0136H314.791V93.8773ZM322.171 99.0364C322.171 100.673 320.921 101.423 319.921 101.423C318.807 101.423 318.012 100.605 318.012 99.3318V93.8773H316.671V99.4227C316.671 101.65 317.852 102.718 319.489 102.718C320.807 102.718 321.671 102.014 322.08 101.127H322.171V102.605H323.512V93.8773H322.171V99.0364ZM327.308 90.9682H325.968V102.605H327.308V90.9682ZM77.3098 134.786C78.9917 134.786 79.5598 133.741 79.8553 133.264H80.0144V134.605H81.3098V122.968H79.9689V127.264H79.8553C79.5598 126.809 79.0371 125.764 77.3326 125.764C75.128 125.764 73.6053 127.514 73.6053 130.264C73.6053 133.036 75.128 134.786 77.3098 134.786ZM77.4917 133.582C75.8098 133.582 74.9462 132.105 74.9462 130.241C74.9462 128.4 75.7871 126.968 77.4917 126.968C79.128 126.968 79.9917 128.286 79.9917 130.241C79.9917 132.218 79.1053 133.582 77.4917 133.582ZM86.5201 134.809C88.0428 134.809 88.8382 133.991 89.111 133.423H89.1792V134.605H90.5201V128.855C90.5201 126.082 88.4064 125.764 87.2928 125.764C85.9746 125.764 84.4746 126.218 83.7928 127.809L85.0655 128.264C85.361 127.627 86.0598 126.945 87.3382 126.945C88.5712 126.945 89.1792 127.599 89.1792 128.718V128.764C89.1792 129.411 88.5201 129.355 86.9292 129.559C85.3098 129.769 83.5428 130.127 83.5428 132.127C83.5428 133.832 84.861 134.809 86.5201 134.809ZM86.7246 133.605C85.6564 133.605 84.8837 133.127 84.8837 132.195C84.8837 131.173 85.8155 130.855 86.861 130.718C87.4292 130.65 88.9519 130.491 89.1792 130.218V131.445C89.1792 132.536 88.3155 133.605 86.7246 133.605ZM96.763 125.877H94.8993V123.786H93.5584V125.877H92.2402V127.014H93.5584V132.468C93.5584 133.991 94.7857 134.718 95.9221 134.718C96.4221 134.718 96.7402 134.627 96.9221 134.559L96.6493 133.355C96.5357 133.377 96.3539 133.423 96.0584 133.423C95.4675 133.423 94.8993 133.241 94.8993 132.105V127.014H96.763V125.877ZM101.348 134.809C102.871 134.809 103.666 133.991 103.939 133.423H104.007V134.605H105.348V128.855C105.348 126.082 103.235 125.764 102.121 125.764C100.803 125.764 99.3027 126.218 98.6209 127.809L99.8936 128.264C100.189 127.627 100.888 126.945 102.166 126.945C103.399 126.945 104.007 127.599 104.007 128.718V128.764C104.007 129.411 103.348 129.355 101.757 129.559C100.138 129.769 98.3709 130.127 98.3709 132.127C98.3709 133.832 99.6891 134.809 101.348 134.809ZM101.553 133.605C100.485 133.605 99.7118 133.127 99.7118 132.195C99.7118 131.173 100.644 130.855 101.689 130.718C102.257 130.65 103.78 130.491 104.007 130.218V131.445C104.007 132.536 103.144 133.605 101.553 133.605ZM113.977 127.832C113.557 126.593 112.614 125.764 110.887 125.764C109.046 125.764 107.682 126.809 107.682 128.286C107.682 129.491 108.398 130.298 110 130.673L111.455 131.014C112.335 131.218 112.75 131.639 112.75 132.241C112.75 132.991 111.955 133.605 110.705 133.605C109.608 133.605 108.921 133.133 108.682 132.195L107.409 132.514C107.722 133.997 108.943 134.786 110.727 134.786C112.756 134.786 114.137 133.678 114.137 132.173C114.137 130.957 113.375 130.19 111.818 129.809L110.523 129.491C109.489 129.235 109.023 128.889 109.023 128.218C109.023 127.468 109.818 126.923 110.887 126.923C112.057 126.923 112.54 127.57 112.773 128.173L113.977 127.832ZM119.814 134.786C121.587 134.786 122.882 133.9 123.291 132.582L121.996 132.218C121.655 133.127 120.865 133.582 119.814 133.582C118.24 133.582 117.155 132.565 117.093 130.695H123.428V130.127C123.428 126.877 121.496 125.764 119.678 125.764C117.314 125.764 115.746 127.627 115.746 130.309C115.746 132.991 117.291 134.786 119.814 134.786ZM117.093 129.536C117.183 128.178 118.144 126.968 119.678 126.968C121.132 126.968 122.064 128.059 122.064 129.536H117.093ZM129.263 125.877H127.399V123.786H126.058V125.877H124.74V127.014H126.058V132.468C126.058 133.991 127.286 134.718 128.422 134.718C128.922 134.718 129.24 134.627 129.422 134.559L129.149 133.355C129.036 133.377 128.854 133.423 128.558 133.423C127.968 133.423 127.399 133.241 127.399 132.105V127.014H129.263V125.877ZM137.306 127.832C136.885 126.593 135.942 125.764 134.215 125.764C132.374 125.764 131.01 126.809 131.01 128.286C131.01 129.491 131.726 130.298 133.328 130.673L134.783 131.014C135.664 131.218 136.078 131.639 136.078 132.241C136.078 132.991 135.283 133.605 134.033 133.605C132.936 133.605 132.249 133.133 132.01 132.195L130.737 132.514C131.05 133.997 132.271 134.786 134.056 134.786C136.084 134.786 137.465 133.678 137.465 132.173C137.465 130.957 136.703 130.19 135.146 129.809L133.851 129.491C132.817 129.235 132.351 128.889 132.351 128.218C132.351 127.468 133.146 126.923 134.215 126.923C135.385 126.923 135.868 127.57 136.101 128.173L137.306 127.832ZM141.483 133.014H140.029L139.96 133.65C139.796 135.19 139.472 136.724 139.324 137.445H140.347C140.619 136.673 141.199 134.923 141.392 133.627L141.483 133.014ZM150.058 122.968H148.649V134.605H150.058V122.968ZM160.997 125.877H159.134V123.786H157.793V125.877H156.475V127.014H157.793V132.468C157.793 133.991 159.02 134.718 160.156 134.718C160.656 134.718 160.975 134.627 161.156 134.559L160.884 133.355C160.77 133.377 160.588 133.423 160.293 133.423C159.702 133.423 159.134 133.241 159.134 132.105V127.014H160.997V125.877ZM164.543 129.355C164.543 127.832 165.514 126.968 166.838 126.968C168.1 126.968 168.861 127.764 168.861 129.15V134.605H170.202V129.059C170.202 126.815 169.009 125.764 167.225 125.764C165.85 125.764 165.066 126.338 164.656 127.241H164.543V122.968H163.202V134.605H164.543V129.355ZM172.655 134.605H173.996V125.877H172.655V134.605ZM173.337 124.423C173.86 124.423 174.291 124.014 174.291 123.514C174.291 123.014 173.86 122.605 173.337 122.605C172.814 122.605 172.382 123.014 172.382 123.514C172.382 124.014 172.814 124.423 173.337 124.423ZM177.793 129.355C177.793 127.832 178.736 126.968 180.02 126.968C181.264 126.968 182.02 127.781 182.02 129.15V134.605H183.361V129.059C183.361 126.832 182.173 125.764 180.406 125.764C179.088 125.764 178.27 126.355 177.861 127.241H177.747V125.877H176.452V134.605H177.793V129.355ZM185.811 134.605H187.152V131.338L188.09 130.468L191.357 134.605H193.061L189.101 129.605L192.789 125.877H191.129L187.311 129.764H187.152V122.968H185.811V134.605ZM199.878 137.855C201.088 137.855 201.946 137.213 202.446 135.877L206.162 125.9L204.696 125.877L202.287 132.832H202.196L199.787 125.877H198.333L201.56 134.65L201.31 135.332C200.833 136.639 200.219 136.764 199.242 136.514L198.901 137.695C199.037 137.764 199.423 137.855 199.878 137.855ZM211.169 134.786C213.533 134.786 215.124 132.991 215.124 130.286C215.124 127.559 213.533 125.764 211.169 125.764C208.806 125.764 207.215 127.559 207.215 130.286C207.215 132.991 208.806 134.786 211.169 134.786ZM211.169 133.582C209.374 133.582 208.556 132.036 208.556 130.286C208.556 128.536 209.374 126.968 211.169 126.968C212.965 126.968 213.783 128.536 213.783 130.286C213.783 132.036 212.965 133.582 211.169 133.582ZM222.671 131.036C222.671 132.673 221.421 133.423 220.421 133.423C219.307 133.423 218.512 132.605 218.512 131.332V125.877H217.171V131.423C217.171 133.65 218.352 134.718 219.989 134.718C221.307 134.718 222.171 134.014 222.58 133.127H222.671V134.605H224.012V125.877H222.671V131.036ZM237.149 127.832C236.729 126.593 235.786 125.764 234.058 125.764C232.218 125.764 230.854 126.809 230.854 128.286C230.854 129.491 231.57 130.298 233.172 130.673L234.627 131.014C235.507 131.218 235.922 131.639 235.922 132.241C235.922 132.991 235.127 133.605 233.877 133.605C232.78 133.605 232.093 133.133 231.854 132.195L230.581 132.514C230.894 133.997 232.115 134.786 233.899 134.786C235.928 134.786 237.308 133.678 237.308 132.173C237.308 130.957 236.547 130.19 234.99 129.809L233.695 129.491C232.661 129.235 232.195 128.889 232.195 128.218C232.195 127.468 232.99 126.923 234.058 126.923C235.229 126.923 235.712 127.57 235.945 128.173L237.149 127.832ZM240.668 129.355C240.668 127.832 241.639 126.968 242.963 126.968C244.225 126.968 244.986 127.764 244.986 129.15V134.605H246.327V129.059C246.327 126.815 245.134 125.764 243.35 125.764C241.975 125.764 241.191 126.338 240.781 127.241H240.668V122.968H239.327V134.605H240.668V129.355ZM252.325 134.786C254.689 134.786 256.28 132.991 256.28 130.286C256.28 127.559 254.689 125.764 252.325 125.764C249.962 125.764 248.371 127.559 248.371 130.286C248.371 132.991 249.962 134.786 252.325 134.786ZM252.325 133.582C250.53 133.582 249.712 132.036 249.712 130.286C249.712 128.536 250.53 126.968 252.325 126.968C254.121 126.968 254.939 128.536 254.939 130.286C254.939 132.036 254.121 133.582 252.325 133.582ZM263.827 131.036C263.827 132.673 262.577 133.423 261.577 133.423C260.463 133.423 259.668 132.605 259.668 131.332V125.877H258.327V131.423C258.327 133.65 259.509 134.718 261.145 134.718C262.463 134.718 263.327 134.014 263.736 133.127H263.827V134.605H265.168V125.877H263.827V131.036ZM268.965 122.968H267.624V134.605H268.965V122.968ZM274.716 134.786C276.398 134.786 276.966 133.741 277.262 133.264H277.421V134.605H278.716V122.968H277.375V127.264H277.262C276.966 126.809 276.443 125.764 274.739 125.764C272.534 125.764 271.012 127.514 271.012 130.264C271.012 133.036 272.534 134.786 274.716 134.786ZM274.898 133.582C273.216 133.582 272.352 132.105 272.352 130.241C272.352 128.4 273.193 126.968 274.898 126.968C276.534 126.968 277.398 128.286 277.398 130.241C277.398 132.218 276.512 133.582 274.898 133.582ZM289.654 125.877H287.79V123.786H286.449V125.877H285.131V127.014H286.449V132.468C286.449 133.991 287.676 134.718 288.813 134.718C289.313 134.718 289.631 134.627 289.813 134.559L289.54 133.355C289.426 133.377 289.244 133.423 288.949 133.423C288.358 133.423 287.79 133.241 287.79 132.105V127.014H289.654V125.877ZM294.239 134.809C295.762 134.809 296.557 133.991 296.83 133.423H296.898V134.605H298.239V128.855C298.239 126.082 296.125 125.764 295.012 125.764C293.693 125.764 292.193 126.218 291.512 127.809L292.784 128.264C293.08 127.627 293.779 126.945 295.057 126.945C296.29 126.945 296.898 127.599 296.898 128.718V128.764C296.898 129.411 296.239 129.355 294.648 129.559C293.029 129.769 291.262 130.127 291.262 132.127C291.262 133.832 292.58 134.809 294.239 134.809ZM294.443 133.605C293.375 133.605 292.602 133.127 292.602 132.195C292.602 131.173 293.534 130.855 294.58 130.718C295.148 130.65 296.671 130.491 296.898 130.218V131.445C296.898 132.536 296.034 133.605 294.443 133.605ZM302.027 122.968H300.686V134.605H302.027V122.968ZM304.483 134.605H305.824V131.338L306.762 130.468L310.029 134.605H311.733L307.773 129.605L311.46 125.877H309.801L305.983 129.764H305.824V122.968H304.483V134.605ZM321.482 125.877H319.618V123.786H318.277V125.877H316.959V127.014H318.277V132.468C318.277 133.991 319.504 134.718 320.641 134.718C321.141 134.718 321.459 134.627 321.641 134.559L321.368 133.355C321.254 133.377 321.073 133.423 320.777 133.423C320.186 133.423 319.618 133.241 319.618 132.105V127.014H321.482V125.877ZM326.95 134.786C329.314 134.786 330.905 132.991 330.905 130.286C330.905 127.559 329.314 125.764 326.95 125.764C324.587 125.764 322.996 127.559 322.996 130.286C322.996 132.991 324.587 134.786 326.95 134.786ZM326.95 133.582C325.155 133.582 324.337 132.036 324.337 130.286C324.337 128.536 325.155 126.968 326.95 126.968C328.746 126.968 329.564 128.536 329.564 130.286C329.564 132.036 328.746 133.582 326.95 133.582ZM337.452 137.877H338.793V133.264H338.906C339.202 133.741 339.77 134.786 341.452 134.786C343.634 134.786 345.156 133.036 345.156 130.264C345.156 127.514 343.634 125.764 341.429 125.764C339.725 125.764 339.202 126.809 338.906 127.264H338.747V125.877H337.452V137.877ZM338.77 130.241C338.77 128.286 339.634 126.968 341.27 126.968C342.975 126.968 343.816 128.4 343.816 130.241C343.816 132.105 342.952 133.582 341.27 133.582C339.656 133.582 338.77 132.218 338.77 130.241ZM350.861 134.786C352.634 134.786 353.929 133.9 354.338 132.582L353.043 132.218C352.702 133.127 351.912 133.582 350.861 133.582C349.287 133.582 348.202 132.565 348.139 130.695H354.475V130.127C354.475 126.877 352.543 125.764 350.725 125.764C348.361 125.764 346.793 127.627 346.793 130.309C346.793 132.991 348.338 134.786 350.861 134.786ZM348.139 129.536C348.23 128.178 349.191 126.968 350.725 126.968C352.179 126.968 353.111 128.059 353.111 129.536H348.139ZM360.06 134.786C362.423 134.786 364.014 132.991 364.014 130.286C364.014 127.559 362.423 125.764 360.06 125.764C357.696 125.764 356.105 127.559 356.105 130.286C356.105 132.991 357.696 134.786 360.06 134.786ZM360.06 133.582C358.264 133.582 357.446 132.036 357.446 130.286C357.446 128.536 358.264 126.968 360.06 126.968C361.855 126.968 362.673 128.536 362.673 130.286C362.673 132.036 361.855 133.582 360.06 133.582ZM366.061 137.877H367.402V133.264H367.516C367.811 133.741 368.379 134.786 370.061 134.786C372.243 134.786 373.766 133.036 373.766 130.264C373.766 127.514 372.243 125.764 370.039 125.764C368.334 125.764 367.811 126.809 367.516 127.264H367.357V125.877H366.061V137.877ZM367.379 130.241C367.379 128.286 368.243 126.968 369.879 126.968C371.584 126.968 372.425 128.4 372.425 130.241C372.425 132.105 371.561 133.582 369.879 133.582C368.266 133.582 367.379 132.218 367.379 130.241ZM377.152 122.968H375.811V134.605H377.152V122.968ZM383.267 134.786C385.04 134.786 386.335 133.9 386.744 132.582L385.449 132.218C385.108 133.127 384.318 133.582 383.267 133.582C381.693 133.582 380.608 132.565 380.546 130.695H386.881V130.127C386.881 126.877 384.949 125.764 383.131 125.764C380.767 125.764 379.199 127.627 379.199 130.309C379.199 132.991 380.744 134.786 383.267 134.786ZM380.546 129.536C380.637 128.178 381.597 126.968 383.131 126.968C384.585 126.968 385.517 128.059 385.517 129.536H380.546ZM75.9917 166.605H77.3098L79.2189 159.9H79.3553L81.2644 166.605H82.5826L85.2417 157.877H83.8326L81.9462 164.536H81.8553L80.0144 157.877H78.5826L76.7189 164.559H76.628L74.7417 157.877H73.3326L75.9917 166.605ZM88.3553 161.355C88.3553 159.832 89.3269 158.968 90.6507 158.968C91.9121 158.968 92.6735 159.764 92.6735 161.15V166.605H94.0144V161.059C94.0144 158.815 92.8212 157.764 91.0371 157.764C89.6621 157.764 88.878 158.338 88.4689 159.241H88.3553V154.968H87.0144V166.605H88.3553V161.355ZM100.013 166.786C102.377 166.786 103.968 164.991 103.968 162.286C103.968 159.559 102.377 157.764 100.013 157.764C97.6493 157.764 96.0584 159.559 96.0584 162.286C96.0584 164.991 97.6493 166.786 100.013 166.786ZM100.013 165.582C98.2175 165.582 97.3993 164.036 97.3993 162.286C97.3993 160.536 98.2175 158.968 100.013 158.968C101.808 158.968 102.627 160.536 102.627 162.286C102.627 164.036 101.808 165.582 100.013 165.582ZM111.855 161.355C111.855 159.832 112.827 158.968 114.151 158.968C115.412 158.968 116.173 159.764 116.173 161.15V166.605H117.514V161.059C117.514 158.815 116.321 157.764 114.537 157.764C113.162 157.764 112.378 158.338 111.969 159.241H111.855V154.968H110.514V166.605H111.855V161.355ZM122.536 166.809C124.058 166.809 124.854 165.991 125.127 165.423H125.195V166.605H126.536V160.855C126.536 158.082 124.422 157.764 123.308 157.764C121.99 157.764 120.49 158.218 119.808 159.809L121.081 160.264C121.377 159.627 122.075 158.945 123.354 158.945C124.587 158.945 125.195 159.599 125.195 160.718V160.764C125.195 161.411 124.536 161.355 122.945 161.559C121.325 161.769 119.558 162.127 119.558 164.127C119.558 165.832 120.877 166.809 122.536 166.809ZM122.74 165.605C121.672 165.605 120.899 165.127 120.899 164.195C120.899 163.173 121.831 162.855 122.877 162.718C123.445 162.65 124.968 162.491 125.195 162.218V163.445C125.195 164.536 124.331 165.605 122.74 165.605ZM135.807 157.877H134.352L131.943 164.832H131.852L129.443 157.877H127.989L131.216 166.605H132.58L135.807 157.877ZM140.923 166.786C142.696 166.786 143.992 165.9 144.401 164.582L143.105 164.218C142.764 165.127 141.975 165.582 140.923 165.582C139.35 165.582 138.264 164.565 138.202 162.695H144.537V162.127C144.537 158.877 142.605 157.764 140.787 157.764C138.423 157.764 136.855 159.627 136.855 162.309C136.855 164.991 138.401 166.786 140.923 166.786ZM138.202 161.536C138.293 160.178 139.253 158.968 140.787 158.968C142.242 158.968 143.173 160.059 143.173 161.536H138.202ZM151.259 166.605H152.554V165.264H152.713C153.009 165.741 153.577 166.786 155.259 166.786C157.441 166.786 158.963 165.036 158.963 162.264C158.963 159.514 157.441 157.764 155.236 157.764C153.531 157.764 153.009 158.809 152.713 159.264H152.6V154.968H151.259V166.605ZM152.577 162.241C152.577 160.286 153.441 158.968 155.077 158.968C156.781 158.968 157.622 160.4 157.622 162.241C157.622 164.105 156.759 165.582 155.077 165.582C153.463 165.582 152.577 164.218 152.577 162.241ZM164.673 166.786C166.446 166.786 167.742 165.9 168.151 164.582L166.855 164.218C166.514 165.127 165.725 165.582 164.673 165.582C163.1 165.582 162.014 164.565 161.952 162.695H168.287V162.127C168.287 158.877 166.355 157.764 164.537 157.764C162.173 157.764 160.605 159.627 160.605 162.309C160.605 164.991 162.151 166.786 164.673 166.786ZM161.952 161.536C162.043 160.178 163.003 158.968 164.537 158.968C165.992 158.968 166.923 160.059 166.923 161.536H161.952ZM173.986 166.786C175.759 166.786 177.054 165.9 177.463 164.582L176.168 164.218C175.827 165.127 175.037 165.582 173.986 165.582C172.412 165.582 171.327 164.565 171.264 162.695H177.6V162.127C177.6 158.877 175.668 157.764 173.85 157.764C171.486 157.764 169.918 159.627 169.918 162.309C169.918 164.991 171.463 166.786 173.986 166.786ZM171.264 161.536C171.355 160.178 172.316 158.968 173.85 158.968C175.304 158.968 176.236 160.059 176.236 161.536H171.264ZM180.98 161.355C180.98 159.832 181.923 158.968 183.208 158.968C184.452 158.968 185.208 159.781 185.208 161.15V166.605H186.548V161.059C186.548 158.832 185.361 157.764 183.594 157.764C182.276 157.764 181.458 158.355 181.048 159.241H180.935V157.877H179.639V166.605H180.98V161.355ZM193.499 166.605H194.84V161.082C194.84 159.9 195.771 159.036 197.044 159.036C197.402 159.036 197.771 159.105 197.862 159.127V157.764C197.709 157.752 197.357 157.741 197.158 157.741C196.112 157.741 195.203 158.332 194.885 159.195H194.794V157.877H193.499V166.605ZM202.845 166.786C204.618 166.786 205.914 165.9 206.323 164.582L205.027 164.218C204.686 165.127 203.896 165.582 202.845 165.582C201.271 165.582 200.186 164.565 200.124 162.695H206.459V162.127C206.459 158.877 204.527 157.764 202.709 157.764C200.345 157.764 198.777 159.627 198.777 162.309C198.777 164.991 200.323 166.786 202.845 166.786ZM200.124 161.536C200.215 160.178 201.175 158.968 202.709 158.968C204.164 158.968 205.095 160.059 205.095 161.536H200.124ZM214.681 159.832C214.26 158.593 213.317 157.764 211.59 157.764C209.749 157.764 208.385 158.809 208.385 160.286C208.385 161.491 209.101 162.298 210.703 162.673L212.158 163.014C213.039 163.218 213.453 163.639 213.453 164.241C213.453 164.991 212.658 165.605 211.408 165.605C210.311 165.605 209.624 165.133 209.385 164.195L208.112 164.514C208.425 165.997 209.646 166.786 211.431 166.786C213.459 166.786 214.84 165.678 214.84 164.173C214.84 162.957 214.078 162.19 212.521 161.809L211.226 161.491C210.192 161.235 209.726 160.889 209.726 160.218C209.726 159.468 210.521 158.923 211.59 158.923C212.76 158.923 213.243 159.57 213.476 160.173L214.681 159.832ZM220.517 166.786C222.29 166.786 223.585 165.9 223.994 164.582L222.699 164.218C222.358 165.127 221.568 165.582 220.517 165.582C218.943 165.582 217.858 164.565 217.796 162.695H224.131V162.127C224.131 158.877 222.199 157.764 220.381 157.764C218.017 157.764 216.449 159.627 216.449 162.309C216.449 164.991 217.994 166.786 220.517 166.786ZM217.796 161.536C217.887 160.178 218.847 158.968 220.381 158.968C221.835 158.968 222.767 160.059 222.767 161.536H217.796ZM228.739 166.809C230.262 166.809 231.057 165.991 231.33 165.423H231.398V166.605H232.739V160.855C232.739 158.082 230.625 157.764 229.512 157.764C228.193 157.764 226.693 158.218 226.012 159.809L227.284 160.264C227.58 159.627 228.279 158.945 229.557 158.945C230.79 158.945 231.398 159.599 231.398 160.718V160.764C231.398 161.411 230.739 161.355 229.148 161.559C227.529 161.769 225.762 162.127 225.762 164.127C225.762 165.832 227.08 166.809 228.739 166.809ZM228.943 165.605C227.875 165.605 227.102 165.127 227.102 164.195C227.102 163.173 228.034 162.855 229.08 162.718C229.648 162.65 231.171 162.491 231.398 162.218V163.445C231.398 164.536 230.534 165.605 228.943 165.605ZM235.186 166.605H236.527V161.082C236.527 159.9 237.459 159.036 238.732 159.036C239.09 159.036 239.459 159.105 239.55 159.127V157.764C239.396 157.752 239.044 157.741 238.845 157.741C237.8 157.741 236.891 158.332 236.573 159.195H236.482V157.877H235.186V166.605ZM244.419 166.786C246.351 166.786 247.624 165.605 247.851 164.059H246.51C246.26 165.014 245.465 165.582 244.419 165.582C242.828 165.582 241.806 164.264 241.806 162.241C241.806 160.264 242.851 158.968 244.419 158.968C245.601 158.968 246.306 159.695 246.51 160.491H247.851C247.624 158.855 246.237 157.764 244.396 157.764C242.033 157.764 240.465 159.627 240.465 162.286C240.465 164.9 241.965 166.786 244.419 166.786ZM251.152 161.355C251.152 159.832 252.124 158.968 253.448 158.968C254.709 158.968 255.47 159.764 255.47 161.15V166.605H256.811V161.059C256.811 158.815 255.618 157.764 253.834 157.764C252.459 157.764 251.675 158.338 251.266 159.241H251.152V154.968H249.811V166.605H251.152V161.355ZM259.264 166.605H260.605V157.877H259.264V166.605ZM259.946 156.423C260.469 156.423 260.901 156.014 260.901 155.514C260.901 155.014 260.469 154.605 259.946 154.605C259.423 154.605 258.992 155.014 258.992 155.514C258.992 156.014 259.423 156.423 259.946 156.423ZM264.402 161.355C264.402 159.832 265.345 158.968 266.629 158.968C267.874 158.968 268.629 159.781 268.629 161.15V166.605H269.97V161.059C269.97 158.832 268.783 157.764 267.016 157.764C265.698 157.764 264.879 158.355 264.47 159.241H264.357V157.877H263.061V166.605H264.402V161.355ZM275.943 170.059C278.034 170.059 279.716 169.105 279.716 166.855V157.877H278.421V159.264H278.284C277.989 158.809 277.443 157.764 275.739 157.764C273.534 157.764 272.012 159.514 272.012 162.195C272.012 164.923 273.602 166.468 275.716 166.468C277.421 166.468 277.966 165.468 278.262 164.991H278.375V166.764C278.375 168.218 277.352 168.877 275.943 168.877C274.358 168.877 273.801 168.042 273.443 167.559L272.375 168.309C272.921 169.224 273.994 170.059 275.943 170.059ZM275.898 165.264C274.216 165.264 273.352 163.991 273.352 162.173C273.352 160.4 274.193 158.968 275.898 158.968C277.534 158.968 278.398 160.286 278.398 162.173C278.398 164.105 277.512 165.264 275.898 165.264ZM286.671 166.605H288.012V157.877H286.671V166.605ZM287.352 156.423C287.875 156.423 288.307 156.014 288.307 155.514C288.307 155.014 287.875 154.605 287.352 154.605C286.83 154.605 286.398 155.014 286.398 155.514C286.398 156.014 286.83 156.423 287.352 156.423ZM291.808 161.355C291.808 159.832 292.752 158.968 294.036 158.968C295.28 158.968 296.036 159.781 296.036 161.15V166.605H297.377V161.059C297.377 158.832 296.189 157.764 294.422 157.764C293.104 157.764 292.286 158.355 291.877 159.241H291.763V157.877H290.468V166.605H291.808V161.355ZM308.122 157.877H306.259V155.786H304.918V157.877H303.6V159.014H304.918V164.468C304.918 165.991 306.145 166.718 307.281 166.718C307.781 166.718 308.1 166.627 308.281 166.559L308.009 165.355C307.895 165.377 307.713 165.423 307.418 165.423C306.827 165.423 306.259 165.241 306.259 164.105V159.014H308.122V157.877ZM311.668 161.355C311.668 159.832 312.639 158.968 313.963 158.968C315.225 158.968 315.986 159.764 315.986 161.15V166.605H317.327V161.059C317.327 158.815 316.134 157.764 314.35 157.764C312.975 157.764 312.191 158.338 311.781 159.241H311.668V154.968H310.327V166.605H311.668V161.355ZM323.439 166.786C325.212 166.786 326.507 165.9 326.916 164.582L325.621 164.218C325.28 165.127 324.49 165.582 323.439 165.582C321.865 165.582 320.78 164.565 320.718 162.695H327.053V162.127C327.053 158.877 325.121 157.764 323.303 157.764C320.939 157.764 319.371 159.627 319.371 162.309C319.371 164.991 320.916 166.786 323.439 166.786ZM320.718 161.536C320.808 160.178 321.769 158.968 323.303 158.968C324.757 158.968 325.689 160.059 325.689 161.536H320.718ZM337.479 157.877H335.524V156.991C335.524 156.127 335.888 155.673 336.774 155.673C337.161 155.673 337.388 155.764 337.524 155.809L337.911 154.65C337.706 154.559 337.297 154.423 336.638 154.423C335.388 154.423 334.183 155.173 334.183 156.673V157.877H332.774V159.014H334.183V166.605H335.524V159.014H337.479V157.877ZM339.358 166.605H340.699V157.877H339.358V166.605ZM340.04 156.423C340.563 156.423 340.994 156.014 340.994 155.514C340.994 155.014 340.563 154.605 340.04 154.605C339.517 154.605 339.085 155.014 339.085 155.514C339.085 156.014 339.517 156.423 340.04 156.423ZM346.814 166.786C348.587 166.786 349.882 165.9 350.291 164.582L348.996 164.218C348.655 165.127 347.865 165.582 346.814 165.582C345.24 165.582 344.155 164.565 344.093 162.695H350.428V162.127C350.428 158.877 348.496 157.764 346.678 157.764C344.314 157.764 342.746 159.627 342.746 162.309C342.746 164.991 344.291 166.786 346.814 166.786ZM344.093 161.536C344.183 160.178 345.144 158.968 346.678 158.968C348.132 158.968 349.064 160.059 349.064 161.536H344.093ZM353.808 154.968H352.468V166.605H353.808V154.968ZM359.56 166.786C361.242 166.786 361.81 165.741 362.105 165.264H362.264V166.605H363.56V154.968H362.219V159.264H362.105C361.81 158.809 361.287 157.764 359.583 157.764C357.378 157.764 355.855 159.514 355.855 162.264C355.855 165.036 357.378 166.786 359.56 166.786ZM359.742 165.582C358.06 165.582 357.196 164.105 357.196 162.241C357.196 160.4 358.037 158.968 359.742 158.968C361.378 158.968 362.242 160.286 362.242 162.241C362.242 164.218 361.355 165.582 359.742 165.582ZM367.179 166.695C367.742 166.695 368.202 166.235 368.202 165.673C368.202 165.11 367.742 164.65 367.179 164.65C366.617 164.65 366.156 165.11 366.156 165.673C366.156 166.235 366.617 166.695 367.179 166.695Z" fill="#2E4885"/>
</svg>
