<svg width="300" height="599" viewBox="0 0 300 599" fill="none" xmlns="http://www.w3.org/2000/svg">
<rect width="100" height="100" transform="matrix(1 0 0 -1 0 599)" fill="#F5F7FB"/>
<rect width="100" height="100" transform="matrix(1 0 0 -1 200 599)" fill="#F5F7FB"/>
<path d="M0 199.5H100V99.5H0V199.5Z" fill="#F5F7FB"/>
<rect width="100" height="100" transform="matrix(1 0 0 -1 200 199.5)" fill="#F5F7FB"/>
<rect width="100" height="100" transform="matrix(1 0 0 -1 100 299.5)" fill="#F5F7FB"/>
<rect width="100" height="100" transform="matrix(1 0 0 -1 100 100)" fill="#F5F7FB"/>
<rect width="100" height="100" transform="matrix(1 0 0 -1 0 399)" fill="#F5F7FB"/>
<rect width="100" height="100" transform="matrix(1 0 0 -1 100 499)" fill="#F5F7FB"/>
<rect width="100" height="100" transform="matrix(1 0 0 -1 200 399)" fill="#F5F7FB"/>
</svg>
