<?xml version="1.0" standalone="no"?>
<!DOCTYPE svg PUBLIC "-//W3C//DTD SVG 20010904//EN"
 "http://www.w3.org/TR/2001/REC-SVG-20010904/DTD/svg10.dtd">
<svg version="1.0" xmlns="http://www.w3.org/2000/svg"
 width="500.000000pt" height="500.000000pt" viewBox="0 0 500.000000 500.000000"
 preserveAspectRatio="xMidYMid meet">
<metadata>
Created by potrace 1.11, written by Peter Selinger 2001-2013
</metadata>
<g transform="translate(0.000000,500.000000) scale(0.100000,-0.100000)"
fill="#000000" stroke="none">
<path d="M1943 4774 c-18 -9 -49 -35 -70 -58 -20 -22 -131 -137 -246 -255
l-209 -213 -257 262 c-242 247 -258 262 -298 267 -24 3 -56 0 -73 -7 -16 -7
-119 -106 -229 -220 -215 -224 -229 -245 -209 -317 10 -39 43 -75 383 -420
l129 -133 -45 -47 c-24 -27 -138 -144 -252 -260 -114 -117 -212 -224 -217
-239 -13 -34 -12 -94 3 -120 7 -12 106 -119 222 -237 181 -186 215 -216 248
-222 64 -12 106 20 362 285 131 135 241 246 245 248 4 1 117 -110 250 -248
134 -138 256 -258 271 -266 33 -17 65 -18 107 -3 19 7 105 87 231 219 158 164
202 216 210 247 20 75 11 89 -260 366 l-252 258 44 47 c25 26 138 143 252 259
114 117 212 224 217 239 13 34 12 94 -3 121 -24 43 -412 436 -444 450 -42 17
-70 16 -110 -3z"/>
<path d="M2892 4570 c-18 -4 -42 -16 -53 -26 -46 -42 -49 -60 -49 -306 0 -213
2 -236 20 -265 10 -18 31 -40 47 -50 25 -17 77 -18 856 -21 557 -2 841 1 867
8 26 7 49 23 67 47 l28 36 3 228 c3 210 2 232 -16 273 -39 86 24 81 -912 83
-454 0 -840 -2 -858 -7z"/>
<path d="M4951 4524 c0 -11 3 -14 6 -6 3 7 2 16 -1 19 -3 4 -6 -2 -5 -13z"/>
<path d="M4951 3564 c0 -11 3 -14 6 -6 3 7 2 16 -1 19 -3 4 -6 -2 -5 -13z"/>
<path d="M2861 3312 c-66 -35 -71 -58 -71 -317 0 -210 2 -233 20 -262 10 -18
31 -40 47 -50 26 -17 75 -18 873 -18 789 0 847 1 877 18 64 34 68 55 68 319 0
223 -1 238 -21 265 -11 15 -36 36 -55 45 -32 17 -94 18 -869 18 -790 0 -837
-1 -869 -18z"/>
<path d="M4951 2604 c0 -11 3 -14 6 -6 3 7 2 16 -1 19 -3 4 -6 -2 -5 -13z"/>
<path d="M3615 2319 c-435 -57 -793 -406 -870 -848 -62 -354 55 -710 315 -954
340 -320 846 -363 1230 -106 167 112 316 295 388 479 56 143 67 209 67 395 0
186 -11 252 -67 395 -72 182 -222 368 -385 477 -197 131 -453 192 -678 162z"/>
<path d="M747 2227 c-119 -44 -219 -156 -252 -282 -23 -89 -22 -1242 1 -1330
30 -119 107 -210 222 -267 l67 -33 640 0 640 0 50 23 c120 55 200 144 235 261
20 64 20 89 18 701 l-3 635 -23 58 c-45 111 -136 199 -248 238 -50 18 -90 19
-671 18 -607 0 -619 -1 -676 -22z"/>
<path d="M4951 1644 c0 -11 3 -14 6 -6 3 7 2 16 -1 19 -3 4 -6 -2 -5 -13z"/>
<path d="M4951 684 c0 -11 3 -14 6 -6 3 7 2 16 -1 19 -3 4 -6 -2 -5 -13z"/>
</g>
</svg>
